<svg width="281" height="32" viewBox="0 0 281 32" fill="none" xmlns="http://www.w3.org/2000/svg">
<path d="M0.606867 29.303C0.0990517 29.5201 -0.136603 30.1078 0.0805182 30.6156C0.297639 31.1234 0.885317 31.3591 1.39313 31.142L1 30.2225L0.606867 29.303ZM281 30.2225L274.035 21.0128L269.542 31.6498L281 30.2225ZM1 30.2225L1.39313 31.142C2.30784 30.7509 3.22486 30.3635 4.14419 29.9799L3.75909 29.057L3.37398 28.1341C2.4493 28.52 1.52692 28.9096 0.606867 29.303L1 30.2225ZM9.30943 26.7974L9.67842 27.7269C11.5266 26.9931 13.3838 26.2744 15.2497 25.5708L14.8968 24.6351L14.544 23.6994C12.6673 24.4071 10.7994 25.13 8.94044 25.868L9.30943 26.7974ZM20.522 22.5695L20.8586 23.5111C22.7313 22.8417 24.6125 22.1875 26.5019 21.5487L26.1816 20.6014L25.8613 19.6541C23.961 20.2966 22.069 20.9546 20.1854 21.6278L20.522 22.5695ZM31.8738 18.7311L32.1778 19.6838C34.0726 19.0792 35.9754 18.4899 37.8861 17.9162L37.5985 16.9585L37.3109 16.0007C35.3893 16.5777 33.4755 17.1704 31.5698 17.7784L31.8738 18.7311ZM43.3513 15.2844L43.6225 16.2469C45.5365 15.7076 47.458 15.1838 49.3869 14.6757L49.1322 13.7087L48.8774 12.7416C46.9375 13.2527 45.005 13.7795 43.0801 14.3219L43.3513 15.2844ZM54.9403 12.2312L55.1786 13.2024C57.1095 12.7286 59.0475 12.2704 60.9925 11.828L60.7707 10.8529L60.5489 9.87785C58.5929 10.3228 56.6439 10.7835 54.702 11.26L54.9403 12.2312ZM66.6244 9.57334L66.8297 10.552C68.7762 10.1437 70.7293 9.75115 72.6889 9.37444L72.5001 8.39242L72.3113 7.4104C70.3407 7.78923 68.3766 8.18403 66.4191 8.59464L66.6244 9.57334ZM78.3925 7.31093L78.5648 8.29598C80.5234 7.95346 82.4882 7.62675 84.4591 7.31601L84.3034 6.32821L84.1476 5.34041C82.1657 5.6529 80.1899 5.98144 78.2203 6.32587L78.3925 7.31093ZM90.231 5.44429L90.3703 6.43455C92.3388 6.15777 94.3132 5.89688 96.2931 5.65203L96.1704 4.65959L96.0477 3.66715C94.0567 3.91337 92.0713 4.17571 90.0918 4.45403L90.231 5.44429ZM102.123 3.97358L102.229 4.96792C104.206 4.75665 106.189 4.56133 108.177 4.38211L108.087 3.38615L107.997 2.39019C105.998 2.5704 104.005 2.7668 102.017 2.97925L102.123 3.97358ZM114.059 2.89738L114.132 3.89468C116.114 3.74884 118.102 3.61899 120.094 3.50528L120.037 2.50691L119.98 1.50853C117.977 1.62287 115.979 1.75343 113.985 1.90007L114.059 2.89738ZM126.023 2.21445L126.063 3.21362C128.05 3.13284 130.041 3.06808 132.037 3.0195L132.012 2.0198L131.988 1.02009C129.981 1.06894 127.979 1.13405 125.982 1.21527L126.023 2.21445ZM138.002 1.92266L138.01 2.92263C139.006 2.91456 140.002 2.91052 141 2.91052V1.91052V0.910522C139.997 0.910522 138.995 0.914585 137.994 0.922694L138.002 1.92266ZM141 1.91052V2.91052C141.998 2.91052 142.994 2.91456 143.99 2.92263L143.998 1.92266L144.006 0.922694C143.005 0.914585 142.003 0.910522 141 0.910522V1.91052ZM149.988 2.0198L149.964 3.0195C151.959 3.06808 153.95 3.13284 155.937 3.21362L155.977 2.21445L156.018 1.21527C154.021 1.13405 152.019 1.06894 150.012 1.02009L149.988 2.0198ZM161.963 2.50691L161.906 3.50529C163.898 3.61899 165.886 3.74884 167.868 3.89468L167.941 2.89738L168.015 1.90007C166.021 1.75343 164.023 1.62287 162.02 1.50853L161.963 2.50691ZM173.913 3.38615L173.823 4.38211C175.811 4.56133 177.794 4.75665 179.771 4.96792L179.877 3.97359L179.983 2.97925C177.995 2.7668 176.002 2.5704 174.003 2.39019L173.913 3.38615ZM185.83 4.65959L185.707 5.65203C187.687 5.89688 189.661 6.15777 191.63 6.43455L191.769 5.44429L191.908 4.45403C189.929 4.17571 187.943 3.91337 185.952 3.66715L185.83 4.65959ZM197.697 6.32821L197.541 7.31601C199.512 7.62675 201.477 7.95346 203.435 8.29597L203.607 7.31092L203.78 6.32587C201.81 5.98143 199.834 5.6529 197.852 5.34041L197.697 6.32821ZM209.5 8.39241L209.311 9.37443C211.271 9.75114 213.224 10.1437 215.17 10.552L215.376 9.57333L215.581 8.59463C213.623 8.18402 211.659 7.78922 209.689 7.4104L209.5 8.39241ZM221.229 10.8529L221.008 11.828C222.952 12.2704 224.89 12.7286 226.821 13.2024L227.06 12.2312L227.298 11.26C225.356 10.7835 223.407 10.3228 221.451 9.87785L221.229 10.8529ZM232.868 13.7087L232.613 14.6757C234.542 15.1838 236.464 15.7076 238.378 16.2469L238.649 15.2844L238.92 14.3219C236.995 13.7795 235.062 13.2527 233.123 12.7416L232.868 13.7087ZM244.402 16.9585L244.114 17.9162C246.025 18.4899 247.927 19.0792 249.822 19.6838L250.126 18.7311L250.43 17.7784C248.524 17.1704 246.611 16.5777 244.689 16.0007L244.402 16.9585ZM255.818 20.6014L255.498 21.5487C257.388 22.1875 259.269 22.8417 261.141 23.5111L261.478 22.5695L261.815 21.6278C259.931 20.9546 258.039 20.2966 256.139 19.6541L255.818 20.6014ZM267.103 24.6351L266.75 25.5708C268.616 26.2744 270.473 26.9931 272.322 27.7269L272.691 26.7975L273.06 25.868C271.201 25.13 269.333 24.4071 267.456 23.6994L267.103 24.6351ZM0.606867 29.303C0.0990517 29.5201 -0.136603 30.1078 0.0805182 30.6156C0.297639 31.1234 0.885317 31.3591 1.39313 31.142L1 30.2225L0.606867 29.303ZM281 30.2225L274.035 21.0128L269.542 31.6498L281 30.2225ZM1 30.2225L1.39313 31.142C2.30784 30.7509 3.22486 30.3635 4.14419 29.9799L3.75909 29.057L3.37398 28.1341C2.4493 28.52 1.52692 28.9096 0.606867 29.303L1 30.2225ZM9.30943 26.7974L9.67842 27.7269C11.5266 26.9931 13.3838 26.2744 15.2497 25.5708L14.8968 24.6351L14.544 23.6994C12.6673 24.4071 10.7994 25.13 8.94044 25.868L9.30943 26.7974ZM20.522 22.5695L20.8586 23.5111C22.7313 22.8417 24.6125 22.1875 26.5019 21.5487L26.1816 20.6014L25.8613 19.6541C23.961 20.2966 22.069 20.9546 20.1854 21.6278L20.522 22.5695ZM31.8738 18.7311L32.1778 19.6838C34.0726 19.0792 35.9754 18.4899 37.8861 17.9162L37.5985 16.9585L37.3109 16.0007C35.3893 16.5777 33.4755 17.1704 31.5698 17.7784L31.8738 18.7311ZM43.3513 15.2844L43.6225 16.2469C45.5365 15.7076 47.458 15.1838 49.3869 14.6757L49.1322 13.7087L48.8774 12.7416C46.9375 13.2527 45.005 13.7795 43.0801 14.3219L43.3513 15.2844ZM54.9403 12.2312L55.1786 13.2024C57.1095 12.7286 59.0475 12.2704 60.9925 11.828L60.7707 10.8529L60.5489 9.87785C58.5929 10.3228 56.6439 10.7835 54.702 11.26L54.9403 12.2312ZM66.6244 9.57334L66.8297 10.552C68.7762 10.1437 70.7293 9.75115 72.6889 9.37444L72.5001 8.39242L72.3113 7.4104C70.3407 7.78923 68.3766 8.18403 66.4191 8.59464L66.6244 9.57334ZM78.3925 7.31093L78.5648 8.29598C80.5234 7.95346 82.4882 7.62675 84.4591 7.31601L84.3034 6.32821L84.1476 5.34041C82.1657 5.6529 80.1899 5.98144 78.2203 6.32587L78.3925 7.31093ZM90.231 5.44429L90.3703 6.43455C92.3388 6.15777 94.3132 5.89688 96.2931 5.65203L96.1704 4.65959L96.0477 3.66715C94.0567 3.91337 92.0713 4.17571 90.0918 4.45403L90.231 5.44429ZM102.123 3.97358L102.229 4.96792C104.206 4.75665 106.189 4.56133 108.177 4.38211L108.087 3.38615L107.997 2.39019C105.998 2.5704 104.005 2.7668 102.017 2.97925L102.123 3.97358ZM114.059 2.89738L114.132 3.89468C116.114 3.74884 118.102 3.61899 120.094 3.50528L120.037 2.50691L119.98 1.50853C117.977 1.62287 115.979 1.75343 113.985 1.90007L114.059 2.89738ZM126.023 2.21445L126.063 3.21362C128.05 3.13284 130.041 3.06808 132.037 3.0195L132.012 2.0198L131.988 1.02009C129.981 1.06894 127.979 1.13405 125.982 1.21527L126.023 2.21445ZM138.002 1.92266L138.01 2.92263C139.006 2.91456 140.002 2.91052 141 2.91052V1.91052V0.910522C139.997 0.910522 138.995 0.914585 137.994 0.922694L138.002 1.92266ZM141 1.91052V2.91052C141.998 2.91052 142.994 2.91456 143.99 2.92263L143.998 1.92266L144.006 0.922694C143.005 0.914585 142.003 0.910522 141 0.910522V1.91052ZM149.988 2.0198L149.964 3.0195C151.959 3.06808 153.95 3.13284 155.937 3.21362L155.977 2.21445L156.018 1.21527C154.021 1.13405 152.019 1.06894 150.012 1.02009L149.988 2.0198ZM161.963 2.50691L161.906 3.50529C163.898 3.61899 165.886 3.74884 167.868 3.89468L167.941 2.89738L168.015 1.90007C166.021 1.75343 164.023 1.62287 162.02 1.50853L161.963 2.50691ZM173.913 3.38615L173.823 4.38211C175.811 4.56133 177.794 4.75665 179.771 4.96792L179.877 3.97359L179.983 2.97925C177.995 2.7668 176.002 2.5704 174.003 2.39019L173.913 3.38615ZM185.83 4.65959L185.707 5.65203C187.687 5.89688 189.661 6.15777 191.63 6.43455L191.769 5.44429L191.908 4.45403C189.929 4.17571 187.943 3.91337 185.952 3.66715L185.83 4.65959ZM197.697 6.32821L197.541 7.31601C199.512 7.62675 201.477 7.95346 203.435 8.29597L203.607 7.31092L203.78 6.32587C201.81 5.98143 199.834 5.6529 197.852 5.34041L197.697 6.32821ZM209.5 8.39241L209.311 9.37443C211.271 9.75114 213.224 10.1437 215.17 10.552L215.376 9.57333L215.581 8.59463C213.623 8.18402 211.659 7.78922 209.689 7.4104L209.5 8.39241ZM221.229 10.8529L221.008 11.828C222.952 12.2704 224.89 12.7286 226.821 13.2024L227.06 12.2312L227.298 11.26C225.356 10.7835 223.407 10.3228 221.451 9.87785L221.229 10.8529ZM232.868 13.7087L232.613 14.6757C234.542 15.1838 236.464 15.7076 238.378 16.2469L238.649 15.2844L238.92 14.3219C236.995 13.7795 235.062 13.2527 233.123 12.7416L232.868 13.7087ZM244.402 16.9585L244.114 17.9162C246.025 18.4899 247.927 19.0792 249.822 19.6838L250.126 18.7311L250.43 17.7784C248.524 17.1704 246.611 16.5777 244.689 16.0007L244.402 16.9585ZM255.818 20.6014L255.498 21.5487C257.388 22.1875 259.269 22.8417 261.141 23.5111L261.478 22.5695L261.815 21.6278C259.931 20.9546 258.039 20.2966 256.139 19.6541L255.818 20.6014ZM267.103 24.6351L266.75 25.5708C268.616 26.2744 270.473 26.9931 272.322 27.7269L272.691 26.7975L273.06 25.868C271.201 25.13 269.333 24.4071 267.456 23.6994L267.103 24.6351Z" fill="url(#paint0_linear_1_520)"/>
<defs>
<linearGradient id="paint0_linear_1_520" x1="1" y1="16.0665" x2="281" y2="16.0665" gradientUnits="userSpaceOnUse">
<stop stop-color="#028650"/>
<stop offset="1" stop-color="#004984"/>
</linearGradient>
</defs>
</svg>
