<svg width="281" height="32" viewBox="0 0 281 32" fill="none" xmlns="http://www.w3.org/2000/svg">
<path d="M0.606867 2.98619C0.0990517 2.76906 -0.136603 2.18139 0.0805182 1.67357C0.297639 1.16576 0.885317 0.930101 1.39313 1.14722L1 2.0667L0.606867 2.98619ZM281 2.0667L274.035 11.2764L269.542 0.639433L281 2.0667ZM1 2.0667L1.39313 1.14722C2.30784 1.53831 3.22486 1.92568 4.14419 2.3093L3.75909 3.23217L3.37398 4.15505C2.4493 3.76919 1.52692 3.37956 0.606867 2.98619L1 2.0667ZM9.30943 5.49174L9.67842 4.56231C11.5266 5.29606 13.3838 6.0148 15.2497 6.71836L14.8968 7.65405L14.544 8.58974C12.6673 7.88211 10.7994 7.15919 8.94044 6.42118L9.30943 5.49174ZM20.522 9.71972L20.8586 8.77807C22.7313 9.44745 24.6125 10.1017 26.5019 10.7405L26.1816 11.6878L25.8613 12.6351C23.961 11.9926 22.069 11.3346 20.1854 10.6614L20.522 9.71972ZM31.8738 13.5581L32.1778 12.6054C34.0726 13.21 35.9754 13.7992 37.8861 14.373L37.5985 15.3307L37.3109 16.2885C35.3893 15.7115 33.4755 15.1188 31.5698 14.5107L31.8738 13.5581ZM43.3513 17.0048L43.6225 16.0423C45.5365 16.5815 47.458 17.1054 49.3869 17.6135L49.1322 18.5805L48.8774 19.5475C46.9375 19.0365 45.005 18.5097 43.0801 17.9673L43.3513 17.0048ZM54.9403 20.058L55.1786 19.0868C57.1095 19.5606 59.0475 20.0187 60.9925 20.4611L60.7707 21.4362L60.5489 22.4113C58.5929 21.9664 56.6439 21.5057 54.702 21.0292L54.9403 20.058ZM66.6244 22.7158L66.8297 21.7371C68.7762 22.1455 70.7293 22.538 72.6889 22.9147L72.5001 23.8968L72.3113 24.8788C70.3407 24.5 68.3766 24.1052 66.4191 23.6945L66.6244 22.7158ZM78.3925 24.9783L78.5648 23.9932C80.5234 24.3357 82.4882 24.6624 84.4591 24.9732L84.3034 25.961L84.1476 26.9488C82.1657 26.6363 80.1899 26.3077 78.2203 25.9633L78.3925 24.9783ZM90.231 26.8449L90.3703 25.8546C92.3388 26.1314 94.3132 26.3923 96.2931 26.6372L96.1704 27.6296L96.0477 28.622C94.0567 28.3758 92.0713 28.1135 90.0918 27.8352L90.231 26.8449ZM102.123 28.3156L102.229 27.3213C104.206 27.5325 106.189 27.7279 108.177 27.9071L108.087 28.903L107.997 29.899C105.998 29.7188 104.005 29.5224 102.017 29.3099L102.123 28.3156ZM114.059 29.3918L114.132 28.3945C116.114 28.5403 118.102 28.6702 120.094 28.7839L120.037 29.7823L119.98 30.7807C117.977 30.6663 115.979 30.5358 113.985 30.3891L114.059 29.3918ZM126.023 30.0747L126.063 29.0756C128.05 29.1563 130.041 29.2211 132.037 29.2697L132.012 30.2694L131.988 31.2691C129.981 31.2202 127.979 31.1551 125.982 31.0739L126.023 30.0747ZM138.002 30.3665L138.01 29.3666C139.006 29.3746 140.002 29.3787 141 29.3787V30.3787V31.3787C139.997 31.3787 138.995 31.3746 137.994 31.3665L138.002 30.3665ZM141 30.3787V29.3787C141.998 29.3787 142.994 29.3746 143.99 29.3666L143.998 30.3665L144.006 31.3665C143.005 31.3746 142.003 31.3787 141 31.3787V30.3787ZM149.988 30.2694L149.964 29.2697C151.959 29.2211 153.95 29.1563 155.937 29.0756L155.977 30.0747L156.018 31.0739C154.021 31.1551 152.019 31.2202 150.012 31.2691L149.988 30.2694ZM161.963 29.7823L161.906 28.7839C163.898 28.6702 165.886 28.5403 167.868 28.3945L167.941 29.3918L168.015 30.3891C166.021 30.5358 164.023 30.6663 162.02 30.7807L161.963 29.7823ZM173.913 28.903L173.823 27.9071C175.811 27.7279 177.794 27.5325 179.771 27.3213L179.877 28.3156L179.983 29.3099C177.995 29.5224 176.002 29.7188 174.003 29.899L173.913 28.903ZM185.83 27.6296L185.707 26.6372C187.687 26.3923 189.661 26.1314 191.63 25.8546L191.769 26.8449L191.908 27.8352C189.929 28.1135 187.943 28.3758 185.952 28.622L185.83 27.6296ZM197.697 25.961L197.541 24.9732C199.512 24.6624 201.477 24.3357 203.435 23.9932L203.607 24.9783L203.78 25.9633C201.81 26.3078 199.834 26.6363 197.852 26.9488L197.697 25.961ZM209.5 23.8968L209.311 22.9148C211.271 22.538 213.224 22.1455 215.17 21.7372L215.376 22.7159L215.581 23.6946C213.623 24.1052 211.659 24.5 209.689 24.8788L209.5 23.8968ZM221.229 21.4362L221.008 20.4611C222.952 20.0187 224.89 19.5606 226.821 19.0868L227.06 20.058L227.298 21.0292C225.356 21.5057 223.407 21.9664 221.451 22.4113L221.229 21.4362ZM232.868 18.5805L232.613 17.6135C234.542 17.1054 236.464 16.5815 238.378 16.0423L238.649 17.0048L238.92 17.9673C236.995 18.5097 235.062 19.0365 233.123 19.5475L232.868 18.5805ZM244.402 15.3307L244.114 14.373C246.025 13.7992 247.927 13.21 249.822 12.6054L250.126 13.5581L250.43 14.5107C248.524 15.1188 246.611 15.7114 244.689 16.2885L244.402 15.3307ZM255.818 11.6878L255.498 10.7405C257.388 10.1016 259.269 9.44744 261.141 8.77806L261.478 9.71971L261.815 10.6614C259.931 11.3346 258.039 11.9926 256.139 12.6351L255.818 11.6878ZM267.103 7.65404L266.75 6.71835C268.616 6.01479 270.473 5.29605 272.322 4.56229L272.691 5.49173L273.06 6.42116C271.201 7.15918 269.333 7.8821 267.456 8.58974L267.103 7.65404ZM0.606867 2.98619C0.0990517 2.76906 -0.136603 2.18139 0.0805182 1.67357C0.297639 1.16576 0.885317 0.930101 1.39313 1.14722L1 2.0667L0.606867 2.98619ZM281 2.0667L274.035 11.2764L269.542 0.639433L281 2.0667ZM1 2.0667L1.39313 1.14722C2.30784 1.53831 3.22486 1.92568 4.14419 2.3093L3.75909 3.23217L3.37398 4.15505C2.4493 3.76919 1.52692 3.37956 0.606867 2.98619L1 2.0667ZM9.30943 5.49174L9.67842 4.56231C11.5266 5.29606 13.3838 6.0148 15.2497 6.71836L14.8968 7.65405L14.544 8.58974C12.6673 7.88211 10.7994 7.15919 8.94044 6.42118L9.30943 5.49174ZM20.522 9.71972L20.8586 8.77807C22.7313 9.44745 24.6125 10.1017 26.5019 10.7405L26.1816 11.6878L25.8613 12.6351C23.961 11.9926 22.069 11.3346 20.1854 10.6614L20.522 9.71972ZM31.8738 13.5581L32.1778 12.6054C34.0726 13.21 35.9754 13.7992 37.8861 14.373L37.5985 15.3307L37.3109 16.2885C35.3893 15.7115 33.4755 15.1188 31.5698 14.5107L31.8738 13.5581ZM43.3513 17.0048L43.6225 16.0423C45.5365 16.5815 47.458 17.1054 49.3869 17.6135L49.1322 18.5805L48.8774 19.5475C46.9375 19.0365 45.005 18.5097 43.0801 17.9673L43.3513 17.0048ZM54.9403 20.058L55.1786 19.0868C57.1095 19.5606 59.0475 20.0187 60.9925 20.4611L60.7707 21.4362L60.5489 22.4113C58.5929 21.9664 56.6439 21.5057 54.702 21.0292L54.9403 20.058ZM66.6244 22.7158L66.8297 21.7371C68.7762 22.1455 70.7293 22.538 72.6889 22.9147L72.5001 23.8968L72.3113 24.8788C70.3407 24.5 68.3766 24.1052 66.4191 23.6945L66.6244 22.7158ZM78.3925 24.9783L78.5648 23.9932C80.5234 24.3357 82.4882 24.6624 84.4591 24.9732L84.3034 25.961L84.1476 26.9488C82.1657 26.6363 80.1899 26.3077 78.2203 25.9633L78.3925 24.9783ZM90.231 26.8449L90.3703 25.8546C92.3388 26.1314 94.3132 26.3923 96.2931 26.6372L96.1704 27.6296L96.0477 28.622C94.0567 28.3758 92.0713 28.1135 90.0918 27.8352L90.231 26.8449ZM102.123 28.3156L102.229 27.3213C104.206 27.5325 106.189 27.7279 108.177 27.9071L108.087 28.903L107.997 29.899C105.998 29.7188 104.005 29.5224 102.017 29.3099L102.123 28.3156ZM114.059 29.3918L114.132 28.3945C116.114 28.5403 118.102 28.6702 120.094 28.7839L120.037 29.7823L119.98 30.7807C117.977 30.6663 115.979 30.5358 113.985 30.3891L114.059 29.3918ZM126.023 30.0747L126.063 29.0756C128.05 29.1563 130.041 29.2211 132.037 29.2697L132.012 30.2694L131.988 31.2691C129.981 31.2202 127.979 31.1551 125.982 31.0739L126.023 30.0747ZM138.002 30.3665L138.01 29.3666C139.006 29.3746 140.002 29.3787 141 29.3787V30.3787V31.3787C139.997 31.3787 138.995 31.3746 137.994 31.3665L138.002 30.3665ZM141 30.3787V29.3787C141.998 29.3787 142.994 29.3746 143.99 29.3666L143.998 30.3665L144.006 31.3665C143.005 31.3746 142.003 31.3787 141 31.3787V30.3787ZM149.988 30.2694L149.964 29.2697C151.959 29.2211 153.95 29.1563 155.937 29.0756L155.977 30.0747L156.018 31.0739C154.021 31.1551 152.019 31.2202 150.012 31.2691L149.988 30.2694ZM161.963 29.7823L161.906 28.7839C163.898 28.6702 165.886 28.5403 167.868 28.3945L167.941 29.3918L168.015 30.3891C166.021 30.5358 164.023 30.6663 162.02 30.7807L161.963 29.7823ZM173.913 28.903L173.823 27.9071C175.811 27.7279 177.794 27.5325 179.771 27.3213L179.877 28.3156L179.983 29.3099C177.995 29.5224 176.002 29.7188 174.003 29.899L173.913 28.903ZM185.83 27.6296L185.707 26.6372C187.687 26.3923 189.661 26.1314 191.63 25.8546L191.769 26.8449L191.908 27.8352C189.929 28.1135 187.943 28.3758 185.952 28.622L185.83 27.6296ZM197.697 25.961L197.541 24.9732C199.512 24.6624 201.477 24.3357 203.435 23.9932L203.607 24.9783L203.78 25.9633C201.81 26.3078 199.834 26.6363 197.852 26.9488L197.697 25.961ZM209.5 23.8968L209.311 22.9148C211.271 22.538 213.224 22.1455 215.17 21.7372L215.376 22.7159L215.581 23.6946C213.623 24.1052 211.659 24.5 209.689 24.8788L209.5 23.8968ZM221.229 21.4362L221.008 20.4611C222.952 20.0187 224.89 19.5606 226.821 19.0868L227.06 20.058L227.298 21.0292C225.356 21.5057 223.407 21.9664 221.451 22.4113L221.229 21.4362ZM232.868 18.5805L232.613 17.6135C234.542 17.1054 236.464 16.5815 238.378 16.0423L238.649 17.0048L238.92 17.9673C236.995 18.5097 235.062 19.0365 233.123 19.5475L232.868 18.5805ZM244.402 15.3307L244.114 14.373C246.025 13.7992 247.927 13.21 249.822 12.6054L250.126 13.5581L250.43 14.5107C248.524 15.1188 246.611 15.7114 244.689 16.2885L244.402 15.3307ZM255.818 11.6878L255.498 10.7405C257.388 10.1016 259.269 9.44744 261.141 8.77806L261.478 9.71971L261.815 10.6614C259.931 11.3346 258.039 11.9926 256.139 12.6351L255.818 11.6878ZM267.103 7.65404L266.75 6.71835C268.616 6.01479 270.473 5.29605 272.322 4.56229L272.691 5.49173L273.06 6.42116C271.201 7.15918 269.333 7.8821 267.456 8.58974L267.103 7.65404Z" fill="url(#paint0_linear_1_521)"/>
<defs>
<linearGradient id="paint0_linear_1_521" x1="1" y1="16.2227" x2="281" y2="16.2227" gradientUnits="userSpaceOnUse">
<stop offset="0.312547" stop-color="#004984"/>
<stop offset="1" stop-color="#028650"/>
</linearGradient>
</defs>
</svg>
