<svg width="599" height="994" viewBox="0 0 599 994" fill="none" xmlns="http://www.w3.org/2000/svg">
<g opacity="0.7">
<path d="M602.188 993.44C601.628 993.2 601.065 992.96 600.503 992.715C538.266 942.746 399.009 837.948 339.876 818.519C265.958 794.236 77.549 720.488 15.9268 536.396C-15.8924 419.446 -21.2665 180.682 208.652 152.985C295.372 168.254 491.168 162.649 583.773 26.3213C590.013 17.1353 596.152 8.36678 602.188 -0.00195312V993.44Z" fill="url(#paint0_linear_1_441)"/>
<path d="M602.188 993.44C601.628 993.2 601.065 992.96 600.503 992.715C538.266 942.746 399.009 837.948 339.876 818.519C265.958 794.236 77.549 720.488 15.9268 536.396C-15.8924 419.446 -21.2665 180.682 208.652 152.985C295.372 168.254 491.168 162.649 583.773 26.3213C590.013 17.1353 596.152 8.36678 602.188 -0.00195312V993.44Z" fill="url(#paint1_linear_1_441)"/>
</g>
<defs>
<linearGradient id="paint0_linear_1_441" x1="1037.01" y1="-60.0596" x2="-19.95" y2="366.898" gradientUnits="userSpaceOnUse">
<stop offset="0.0527528" stop-color="#86BBF1"/>
<stop offset="1" stop-color="#D2EAEF"/>
</linearGradient>
<linearGradient id="paint1_linear_1_441" x1="-20.0893" y1="358.286" x2="602.188" y2="358.286" gradientUnits="userSpaceOnUse">
<stop offset="0.312547" stop-color="#004984"/>
<stop offset="1" stop-color="#028650"/>
</linearGradient>
</defs>
</svg>
