<svg width="24" height="24" viewBox="0 0 24 24" fill="none" xmlns="http://www.w3.org/2000/svg">
<path d="M9.22848 0.922832V3.99975C9.22848 4.24458 9.13122 4.47936 8.95812 4.65247C8.785 4.82558 8.55021 4.92283 8.3054 4.92283C8.06058 4.92283 7.8258 4.82558 7.65268 4.65247C7.47957 4.47936 7.38232 4.24458 7.38232 3.99975V0.922832C7.38232 0.67802 7.47957 0.443228 7.65268 0.270116C7.8258 0.0970039 8.06058 -0.000244141 8.3054 -0.000244141C8.55021 -0.000244141 8.785 0.0970039 8.95812 0.270116C9.13122 0.443228 9.22848 0.67802 9.22848 0.922832Z" fill="white"/>
<path d="M23.5796 4.67687C23.5222 3.88427 23.1805 3.13906 22.6175 2.57828C22.0544 2.01748 21.3078 1.67882 20.515 1.62456C19.715 1.56302 18.8042 1.50148 17.8442 1.45226V3.99994C17.8442 4.57118 17.6173 5.11902 17.2134 5.52294C16.8095 5.92686 16.2617 6.1538 15.6904 6.1538C15.1192 6.1538 14.5714 5.92686 14.1674 5.52294C13.7635 5.11902 13.5366 4.57118 13.5366 3.99994V1.23071H10.4596V3.99994C10.4596 4.57118 10.2326 5.11902 9.82877 5.52294C9.42485 5.92686 8.87701 6.1538 8.30577 6.1538C7.73454 6.1538 7.18669 5.92686 6.78277 5.52294C6.37885 5.11902 6.15193 4.57118 6.15193 3.99994V1.45226C5.19193 1.45226 4.28115 1.56302 3.46885 1.62456C2.67691 1.68132 1.93175 2.02079 1.3692 2.58108C0.80665 3.14138 0.464181 3.88517 0.404229 4.67687C0.219621 6.95379 -0.00192261 10.1785 -0.00192261 12.6153C-0.00192261 15.0523 0.219621 18.2891 0.404229 20.5661C0.464505 21.3565 0.807417 22.0988 1.37021 22.657C1.93298 23.2153 2.67798 23.5522 3.46885 23.6061C5.93039 23.7907 9.40116 23.9999 11.9981 23.9999C14.595 23.9999 18.0535 23.7907 20.515 23.6061C21.3067 23.5547 22.0531 23.2186 22.6165 22.6599C23.1798 22.1011 23.5218 21.3574 23.5796 20.5661C23.7766 18.2891 23.9981 15.0645 23.9981 12.6153C23.9981 10.1661 23.7766 6.95379 23.5796 4.67687ZM7.07501 16.9845C6.74858 16.9845 6.43553 16.8549 6.20472 16.624C5.9739 16.3933 5.84424 16.0802 5.84424 15.7538C5.84424 15.4274 5.9739 15.1143 6.20472 14.8835C6.43553 14.6527 6.74858 14.5231 7.07501 14.5231C7.40142 14.5231 7.71447 14.6527 7.94528 14.8835C8.1761 15.1143 8.30577 15.4274 8.30577 15.7538C8.30577 16.0802 8.1761 16.3933 7.94528 16.624C7.71447 16.8549 7.40142 16.9845 7.07501 16.9845ZM7.07501 12.0615C6.74858 12.0615 6.43553 11.9318 6.20472 11.701C5.9739 11.4701 5.84424 11.1572 5.84424 10.8307C5.84424 10.5043 5.9739 10.1912 6.20472 9.96042C6.43553 9.72966 6.74858 9.59994 7.07501 9.59994C7.40142 9.59994 7.71447 9.72966 7.94528 9.96042C8.1761 10.1912 8.30577 10.5043 8.30577 10.8307C8.30577 11.1572 8.1761 11.4701 7.94528 11.701C7.71447 11.9318 7.40142 12.0615 7.07501 12.0615ZM11.9981 16.9845C11.6717 16.9845 11.3586 16.8549 11.1278 16.624C10.897 16.3933 10.7674 16.0802 10.7674 15.7538C10.7674 15.4274 10.897 15.1143 11.1278 14.8835C11.3586 14.6527 11.6717 14.5231 11.9981 14.5231C12.3245 14.5231 12.6376 14.6527 12.8683 14.8835C13.0992 15.1143 13.2288 15.4274 13.2288 15.7538C13.2288 16.0802 13.0992 16.3933 12.8683 16.624C12.6376 16.8549 12.3245 16.9845 11.9981 16.9845ZM11.9981 12.0615C11.6717 12.0615 11.3586 11.9318 11.1278 11.701C10.897 11.4701 10.7674 11.1572 10.7674 10.8307C10.7674 10.5043 10.897 10.1912 11.1278 9.96042C11.3586 9.72966 11.6717 9.59994 11.9981 9.59994C12.3245 9.59994 12.6376 9.72966 12.8683 9.96042C13.0992 10.1912 13.2288 10.5043 13.2288 10.8307C13.2288 11.1572 13.0992 11.4701 12.8683 11.701C12.6376 11.9318 12.3245 12.0615 11.9981 12.0615ZM16.9212 12.0615C16.5947 12.0615 16.2817 11.9318 16.0508 11.701C15.8201 11.4701 15.6904 11.1572 15.6904 10.8307C15.6904 10.5043 15.8201 10.1912 16.0508 9.96042C16.2817 9.72966 16.5947 9.59994 16.9212 9.59994C17.2476 9.59994 17.5607 9.72966 17.7914 9.96042C18.0222 10.1912 18.1519 10.5043 18.1519 10.8307C18.1519 11.1572 18.0222 11.4701 17.7914 11.701C17.5607 11.9318 17.2476 12.0615 16.9212 12.0615Z" fill="white"/>
<path d="M16.6134 0.922832V3.99975C16.6134 4.24458 16.5161 4.47936 16.3431 4.65247C16.1699 4.82558 15.9351 4.92283 15.6903 4.92283C15.4455 4.92283 15.2107 4.82558 15.0376 4.65247C14.8644 4.47936 14.7672 4.24458 14.7672 3.99975V0.922832C14.7672 0.67802 14.8644 0.443228 15.0376 0.270116C15.2107 0.0970039 15.4455 -0.000244141 15.6903 -0.000244141C15.9351 -0.000244141 16.1699 0.0970039 16.3431 0.270116C16.5161 0.443228 16.6134 0.67802 16.6134 0.922832Z" fill="white"/>
</svg>
