<svg width="53" height="55" viewBox="0 0 53 55" fill="none" xmlns="http://www.w3.org/2000/svg">
<ellipse cx="37.6308" cy="16.3182" rx="5.83" ry="5.89495" fill="#028650"/>
<path fill-rule="evenodd" clip-rule="evenodd" d="M48.5833 16.4074C48.5833 22.5734 43.6398 27.572 37.5417 27.572C35.7754 27.572 34.1059 27.1527 32.6255 26.4071C32.232 26.2088 31.7823 26.143 31.3577 26.2577L28.8998 26.9227C27.8327 27.2114 26.8566 26.2245 27.1422 25.1455L27.7998 22.6603C27.9133 22.2309 27.8482 21.7762 27.6521 21.3784C26.9147 19.8814 26.5 18.1934 26.5 16.4074C26.5 10.2413 31.4436 5.24268 37.5417 5.24268C43.6398 5.24268 48.5833 10.2413 48.5833 16.4074ZM37.5417 11.5228C38.6851 11.5228 39.612 12.46 39.612 13.6162V14.314H40.3021C41.4456 14.314 42.3724 15.2512 42.3724 16.4074C42.3724 17.5635 41.4456 18.5007 40.3021 18.5007H39.612V19.1985C39.612 20.3547 38.6851 21.2919 37.5417 21.2919C36.3982 21.2919 35.4714 20.3547 35.4714 19.1985V18.5007H34.7813C33.6378 18.5007 32.7109 17.5635 32.7109 16.4074C32.7109 15.2512 33.6378 14.314 34.7813 14.314H35.4714V13.6162C35.4714 12.46 36.3982 11.5228 37.5417 11.5228Z" fill="#EDEDED"/>
<path d="M17.749 17.1134L19.1823 19.7101C20.4757 22.0535 19.9565 25.1277 17.9193 27.1876C17.9193 27.1876 15.4486 29.6862 19.9285 34.2162C24.407 38.7446 26.8796 36.2477 26.8796 36.2477C28.9168 34.1878 31.957 33.6628 34.2747 34.9707L36.8427 36.4199C40.3425 38.3947 40.7557 43.3571 37.6797 46.4676C35.8313 48.3366 33.5669 49.7909 31.0638 49.8867C26.85 50.0484 19.6939 48.9701 12.5155 41.7117C5.33718 34.4533 4.27073 27.2175 4.43048 22.9568C4.52538 20.4258 5.96362 18.1362 7.81202 16.2672C10.8881 13.1568 15.7959 13.5748 17.749 17.1134Z" fill="#EDEDED"/>
</svg>
