<svg width="24" height="24" viewBox="0 0 24 24" fill="none" xmlns="http://www.w3.org/2000/svg">
<path d="M12.6754 13.5754C12.5254 13.7254 12.3754 13.9504 12.2254 14.1004C11.4004 13.3504 10.6504 12.6004 9.90036 11.7754C10.1254 11.6254 10.2754 11.4754 10.4254 11.3254C12.0754 9.67537 11.9254 7.35037 9.90036 5.32537C7.87536 3.30037 5.55036 3.07537 3.90036 4.80037C2.17536 6.52537 1.87536 9.67537 3.22536 11.7754C5.47536 15.1504 8.85035 18.5254 12.2254 20.7754C13.1254 21.3754 14.1754 21.6754 15.3004 21.6754C16.7254 21.6754 18.2254 21.1504 19.2004 20.1754C20.8504 18.5254 20.7004 16.2004 18.6754 14.1754C16.6504 12.0754 14.4004 11.8504 12.6754 13.5754Z" fill="white"/>
<path d="M20.775 3.225C20.475 2.925 20.025 2.925 19.725 3.225L15.75 7.2V4.5C15.75 4.05 15.45 3.75 15 3.75C14.55 3.75 14.25 4.05 14.25 4.5V9C14.25 9.075 14.25 9.225 14.325 9.3C14.4 9.45 14.55 9.6 14.7 9.675C14.775 9.75 14.925 9.75 15 9.75H19.5C19.95 9.75 20.25 9.45 20.25 9C20.25 8.55 19.95 8.25 19.5 8.25H16.8L20.775 4.275C21.075 3.975 21.075 3.525 20.775 3.225Z" fill="white"/>
</svg>
