<svg width="22" height="24" viewBox="0 0 22 24" fill="none" xmlns="http://www.w3.org/2000/svg">
<path d="M21.4785 13.1106C20.9502 12.5348 19.9658 12.6573 19.3075 13.1442C18.7059 13.6455 14.5931 16.3484 14.5931 16.3484H9.59435L9.5786 16.3563C9.3153 16.3476 9.10956 16.1265 9.11734 15.8637C9.12695 15.6004 9.34844 15.3942 9.61 15.4033L9.5943 15.3942C10.488 15.3942 13.2772 15.3942 13.2772 15.3942C14.0166 15.3942 14.6165 14.7951 14.6165 14.0562C14.6165 13.316 14.0166 12.7166 13.2772 12.7166C12.6076 12.7166 11.2692 12.7166 7.92193 12.7166C4.57377 12.7166 3.51355 14.1121 2.34172 15.283L0.216017 17.1402C0.0773598 17.2605 -0.00195312 17.4336 -0.00195312 17.6176V23.7894C-0.00195312 23.8709 0.0468909 23.9464 0.121844 23.9808C0.196845 24.0148 0.284923 24.003 0.347689 23.9486L4.45612 20.426C4.60087 20.3031 4.79442 20.2508 4.98103 20.2843L11.3844 21.4483C11.8308 21.5294 12.2903 21.427 12.6626 21.165C12.6626 21.165 20.8341 15.4823 21.4384 14.9796C22.013 14.4521 22.0069 13.6865 21.4785 13.1106Z" fill="white"/>
<path d="M9.0888 10.2344C10.0976 10.9254 11.3671 11.432 11.3671 11.432C11.4839 11.4699 11.6645 11.503 11.7272 11.503C11.7891 11.503 11.9696 11.4699 12.0865 11.432C12.0865 11.432 13.3551 10.9254 14.3647 10.2344C15.901 9.18721 18.393 7.13169 18.393 4.23391C18.393 1.29469 16.7302 -0.0371803 14.901 0.000788684C13.5059 0.0260544 12.682 0.85045 12.1292 1.66308C12.028 1.81392 11.8772 1.91025 11.7272 1.91419C11.5764 1.91025 11.4255 1.81392 11.3253 1.66308C10.7725 0.85045 9.94765 0.0260544 8.55259 0.000788684C6.72244 -0.0371803 5.06146 1.29469 5.06146 4.23391C5.06146 7.13169 7.55246 9.18726 9.0888 10.2344ZM7.71727 1.84135C7.85762 1.66917 8.03288 1.52316 8.23342 1.40147C8.43137 1.28203 8.68858 1.34522 8.80801 1.54317C8.92839 1.74108 8.86469 1.99875 8.66673 2.11777C8.53511 2.19797 8.43831 2.28169 8.36678 2.37015C8.22118 2.54977 7.95699 2.57635 7.77737 2.43033C7.59868 2.28432 7.57168 2.02102 7.71727 1.84135ZM6.73636 4.50902C6.73636 4.22917 6.76514 3.96934 6.82702 3.73042C6.88543 3.50631 7.11479 3.37248 7.33801 3.43135C7.56207 3.48934 7.69543 3.71823 7.63791 3.94183C7.59695 4.09703 7.57341 4.28622 7.57341 4.50902C7.57341 4.72961 7.5961 4.98335 7.64401 5.2676C7.72074 5.72276 7.91434 6.14562 8.19765 6.54275C8.33195 6.73062 8.28836 6.99219 8.10001 7.12648C7.91082 7.26074 7.6501 7.21714 7.51585 7.02884C7.17319 6.55057 6.91946 6.00738 6.8183 5.4071C6.76425 5.08539 6.73636 4.78717 6.73636 4.50902Z" fill="white"/>
</svg>
