<svg width="52" height="52" viewBox="0 0 52 52" fill="none" xmlns="http://www.w3.org/2000/svg">
<path d="M0.355157 20.7138C0.855283 21.4167 1.76445 21.6932 2.56584 21.3888C2.57734 21.3845 2.58866 21.3801 2.60016 21.3764L16.1674 16.8092C16.1644 16.6989 16.1669 16.5879 16.174 16.4763C16.2873 14.7243 17.627 13.317 19.3488 13.1402L27.5256 12.2814C28.0429 12.2269 28.5055 12.6069 28.559 13.1297C28.6129 13.6528 28.2374 14.1326 27.72 14.1746L19.5433 15.0334C18.7363 15.1224 18.1058 15.7774 18.0527 16.6002C18.0239 17.049 18.1695 17.483 18.4629 17.821C18.7565 18.1593 19.163 18.3618 19.607 18.3909L30.463 19.1065C31.6823 19.1864 32.8929 18.9144 33.9633 18.3183L48.281 10.346L44.4039 2.4408L40.8075 5.61343C39.2799 6.96048 37.2567 7.54122 35.2562 7.20499L23.2344 5.18491C21.0314 4.88882 18.823 5.44435 17.0145 6.74893L0.646449 18.1469C-0.0849474 18.7936 -0.214964 19.9132 0.355157 20.7138Z" fill="white"/>
<path d="M19.543 15.0326C18.7361 15.1216 18.1055 15.7766 18.0524 16.5993C18.0236 17.0482 18.1692 17.4821 18.4626 17.8201C18.7562 18.1585 19.1627 18.3609 19.6067 18.39L22.021 18.5492V14.7723L19.543 15.0326Z" fill="white"/>
<path d="M0.355185 20.7139C0.855311 21.4166 1.76448 21.6933 2.56587 21.3888C2.57737 21.3846 2.58869 21.3801 2.60019 21.3764L16.1675 16.8092C16.1644 16.6989 16.1669 16.588 16.1738 16.4763C16.2871 14.7244 17.627 13.3171 19.3487 13.1402L22.0211 12.8594V5.10779C20.2327 5.11884 18.4901 5.68407 17.0141 6.74898L0.646094 18.147C-0.0849189 18.7936 -0.214936 19.9132 0.355185 20.7139Z" fill="white"/>
<path d="M21.6557 50.8999C22.0538 51.4936 22.9206 51.4936 23.3183 50.8999C26.4966 46.1582 37.7017 40.2705 37.7017 32.6467C37.7017 27.389 34.2958 24.9543 30.0942 24.9543C25.8926 24.9543 22.4866 28.3983 22.4866 32.6467C22.4866 28.3985 19.0806 24.9543 14.879 24.9543C10.6774 24.9543 7.27148 27.3888 7.27148 32.6467C7.27225 40.2707 18.4775 46.1586 21.6557 50.8999Z" fill="white"/>
<path d="M30.0966 24.9548C25.8952 24.9548 22.489 28.3987 22.489 32.6471C22.489 32.6283 22.4863 32.6103 22.4863 32.5913V51.3448C22.8033 51.3458 23.1207 51.1976 23.3203 50.9C26.4987 46.1587 37.7037 40.2706 37.7037 32.6468C37.7039 27.3895 34.298 24.9548 30.0966 24.9548Z" fill="white"/>
<path d="M44.6665 0.788471L38.4258 5.10156L45.0692 14.9296L51.31 10.6165L44.6665 0.788471Z" fill="white"/>
<path d="M51.3122 10.6159L47.9854 5.69446L41.8418 10.1509L45.0717 14.9287L51.3122 10.6159Z" fill="white"/>
</svg>
