<svg width="438" height="839" viewBox="0 0 438 839" fill="none" xmlns="http://www.w3.org/2000/svg">
<path d="M964.606 0V159.864L911.8 107.059V0H910.831L910.996 0.164854V106.251L858.19 53.4449V0H857.386V53.4449L804.579 106.251V0H482.106V53.4449L429.3 106.251V0H428.331L375.69 52.6408V0H374.885V53.4449L322.079 106.251V0H0V161.235H159.866L107.06 214.041H0V215.01L0.164856 214.845H106.251L53.4454 267.651H0V268.455H53.4454L106.251 321.261H0V322.065H106.251L53.4454 374.87H0V375.674H52.6412L0 428.319V429.288H106.251L53.4454 482.094H0V964.996H322.071V858.745L374.877 911.551V964.996H375.682V911.551L428.488 858.745V964.831L428.323 964.996H429.292V857.941L482.098 805.136V965H804.571V911.555L804.736 911.39L804.571 911.225V858.75L857.378 911.555V965H858.182V912.359L910.823 965H911.792V858.75L964.598 911.555V965H965V482.098H805.134L857.94 429.292H964.996V428.323L964.831 428.488H858.745L911.551 375.683H964.996V374.878H911.551L858.745 322.073H964.996V321.269H858.745L911.551 268.463H964.996V267.659H912.355L964.996 215.018V214.049H858.745L911.551 161.243H964.996V0H964.594H964.606ZM857.784 54.1807L910.992 107.388V160.431H804.571V107.388L857.78 54.1807H857.784ZM911.796 108.193L964.035 160.431H911.796V108.193ZM589.893 910.988L537.087 858.183H643.174L695.98 910.988H589.893ZM376.253 803.765L429.059 750.959H535.949L588.755 803.765H376.253ZM267.89 910.988H161.804L214.61 858.183H320.696L267.89 910.988ZM54.0123 589.888L106.818 537.083V643.168L54.0123 695.974V589.888ZM159.862 482.902L107.623 535.141V482.902H159.862ZM161.237 375.112V268.222L214.043 215.416V428.725L161.237 481.531V375.445L161.402 375.28L161.237 375.116V375.112ZM320.7 106.821H214.614L161.808 54.0159H267.894L320.7 106.821ZM536.283 54.0159H642.37L589.564 106.821H483.477L536.283 54.0159ZM804.008 536.516L856.815 589.321H750.728L697.922 536.516H804.008ZM749.996 589.724L696.788 642.931H643.745V536.512H696.788L749.996 589.72V589.724ZM803.775 857.945V910.421L697.926 804.573H803.775V857.616L803.61 857.781L803.775 857.945ZM589.897 803.765L536.689 750.557L589.897 697.349H642.941V803.769H589.897V803.765ZM535.953 750.155H429.867L482.673 697.349H588.759L535.953 750.155ZM107.393 857.378L54.5873 804.573H267.09L214.284 857.378H107.393ZM160.437 697.916V803.765H54.5873L160.437 697.916ZM482.906 108.193L535.145 160.431H482.906V108.193ZM696.784 107.626L749.59 160.431H537.087L589.893 107.626H696.784ZM803.771 268.222V375.112L750.965 427.917V214.608L803.771 161.802V267.888L803.606 268.053L803.771 268.218V268.222ZM590.697 696.541L642.937 644.302V696.541H590.697ZM376.253 696.541L429.059 643.735H482.906H642.37L589.564 696.541H376.253ZM268.461 803.765V751.526L320.7 803.765H268.461ZM321.267 804.569V856.807L269.028 804.569H321.267ZM267.657 803.765H161.237V750.722L214.445 697.514L267.653 750.722V803.765H267.657ZM268.461 268.222L321.267 215.416V321.265V427.917L268.461 375.112V268.222ZM375.284 161.4L375.448 161.235H535.949L588.755 214.041H375.444L322.638 161.235H375.115L375.28 161.4H375.284ZM697.355 481.527V375.441L750.161 322.636V428.721L697.355 481.527ZM214.047 696.774L161.241 749.58V537.075L214.047 589.88V696.77V696.774ZM213.48 482.898L161.241 535.137V482.898H213.48ZM161.41 536.106L214.051 483.465V588.747L161.41 536.106ZM322.079 482.094V376.245L374.885 429.051V535.941L322.079 588.747V482.094ZM374.319 214.037H322.079V161.798L374.319 214.037ZM322.079 214.841H375.123L428.331 268.049L375.123 321.257H322.079V214.837V214.841ZM696.555 375.108L643.749 427.913V268.218L643.914 268.053L643.749 267.888V215.412L696.555 268.218V375.108ZM696.555 481.527L643.914 428.886L696.555 376.245V481.527ZM642.945 642.36L590.139 589.555V376.245L642.78 428.886L642.945 429.051V482.094V642.356V642.36ZM429.067 268.455H535.957L588.763 321.261H536.291L536.126 321.096L535.961 321.261H482.114H376.265L429.071 268.455H429.067ZM589.334 481.527L536.528 428.721V322.636L589.334 375.441V481.527ZM429.304 375.441L482.11 322.636V375.108L481.945 375.272L482.11 375.437V482.492V535.937L429.304 588.742V375.433V375.441ZM481.543 322.065L429.304 374.303V322.065H481.543ZM482.11 537.079V642.927H376.261L482.11 537.079ZM482.914 322.065H535.153L482.914 374.303V322.065ZM535.72 322.632V427.913L483.079 375.272L535.72 322.632ZM537.095 322.065H589.568L589.732 322.23L589.897 322.065H642.941V427.913L537.091 322.065H537.095ZM590.706 321.261L642.945 269.022V321.261H590.706ZM589.732 321.096L537.091 268.455H642.374L589.732 321.096ZM428.496 322.065V375.108L375.288 428.315L322.079 375.108V322.065H428.5H428.496ZM375.69 429.051L428.496 376.245V482.331L375.69 535.137V429.051ZM428.496 483.465V589.551L375.69 642.356V536.271L428.496 483.465ZM374.885 642.356L322.244 589.716L374.885 537.075V642.356ZM374.319 642.923H322.079V590.685L374.319 642.923ZM482.914 482.492V376.241L535.72 429.047V535.937L482.914 588.742V482.492ZM536.524 429.851L589.33 482.657V588.742L536.524 535.937V429.851ZM642.945 161.227V267.076L537.095 161.227H642.945ZM642.378 267.647H536.291L483.485 214.841H589.572L642.378 267.647ZM482.347 214.841L535.153 267.647H429.067L376.261 214.841H482.347ZM482.914 589.884L536.122 536.677L589.33 589.884V642.927H482.91V589.884H482.914ZM590.139 590.689L642.378 642.927H590.139V590.689ZM643.749 429.855L695.988 482.094H643.749V429.855ZM750.169 321.494L697.363 374.299V268.214L750.169 215.408V321.494ZM696.961 267.482L643.753 214.274V161.231H750.173V214.274L696.965 267.482H696.961ZM321.279 213.47L269.04 161.231H321.279V213.47ZM268.473 161.802L321.114 214.443L268.473 267.084V161.802ZM214.863 696.774V590.689L267.669 643.494V749.58L214.863 696.774ZM267.669 642.36L214.863 589.555V483.469L267.669 536.275V642.36ZM215.43 482.898H321.279V588.747L215.43 482.898ZM375.127 643.731L375.292 643.896L375.456 643.731H427.929L322.079 749.58V643.731H375.123H375.127ZM697.934 482.094L803.783 376.245V482.094H697.934ZM750.977 213.47V161.231H803.216L750.977 213.47ZM536.13 160.262L483.489 107.622H588.771L536.13 160.262ZM269.044 160.427L321.283 108.189V160.427H269.044ZM268.075 160.262L215.434 107.622H320.716L268.075 160.262ZM267.106 161.231L161.257 267.08V161.231H267.106ZM267.673 161.798V267.884L214.867 320.69V214.604L267.673 161.798ZM214.867 321.828L267.673 269.022V375.108L214.867 427.913V321.828ZM268.075 375.839L321.283 429.047V482.09H214.863V429.047L268.071 375.839H268.075ZM214.063 482.09H161.824L214.063 429.851V482.09ZM268.075 804.726L320.716 857.366H215.434L268.075 804.726ZM268.477 750.38V537.075L321.118 589.716L321.283 589.88V643.727V750.38L321.118 750.545L321.283 750.71V803.186L268.477 750.38ZM322.658 750.143L375.465 697.337H481.551L428.745 750.143H322.658ZM427.941 750.947L375.3 803.588L322.658 750.947H427.941ZM643.761 803.753V697.904L749.61 803.753H643.761ZM644.328 697.333H750.414L803.22 750.139H697.134L644.328 697.333ZM644.328 696.529L696.969 643.888L749.61 696.529H644.328ZM643.761 695.962V643.723H696L643.761 695.962ZM643.761 535.696V483.457L696 535.696H643.761ZM803.771 53.2077H751.532L803.771 0.969021V53.2077ZM803.771 54.0119V160.431H750.728L697.52 107.224L750.728 54.0159H803.771V54.0119ZM696.784 106.817H590.697L643.504 54.0119H749.59L696.784 106.817ZM322.071 160.427V108.189L374.311 160.427H322.071ZM160.67 54.0119L213.476 106.817H107.389L54.5833 54.0119H160.67ZM107.389 107.622H214.28L267.086 160.427H54.5833L107.389 107.622ZM160.433 483.469V535.945L160.268 536.11L160.433 536.275V696.774L107.627 749.58V536.271L160.433 483.465V483.469ZM106.822 644.302V750.388L54.0163 803.194V697.108L106.822 644.302ZM53.2122 803.194L0.566942 750.557L53.2081 697.916V803.198L53.2122 803.194ZM106.658 857.776L53.4494 910.984H0.402087V804.565H53.4454L106.653 857.772L106.658 857.776ZM107.393 858.179H213.48L160.674 910.984H54.5833L107.389 858.179H107.393ZM322.075 751.526L374.315 803.765H322.075V751.526ZM482.91 805.136L535.149 857.374H482.91V805.136ZM483.477 804.569H642.941H696.788L749.594 857.374H536.287L483.481 804.569H483.477ZM644.312 858.179H750.398L803.204 910.984H697.118L644.312 858.179ZM803.204 911.788L750.563 964.429L697.922 911.788H803.204ZM857.952 803.761L857.788 803.596L857.623 803.761H750.732L697.926 750.955H911.237L964.043 803.761H857.956H857.952ZM804.342 750.151L751.536 697.345H857.623L910.429 750.151H804.342ZM857.623 696.541H750.732L697.926 643.735H910.429L857.623 696.541ZM697.926 642.931L750.732 590.126H857.623L910.429 642.931H697.922H697.926ZM858.761 590.126H964.043L911.402 642.766L858.761 590.126ZM857.956 589.321L805.15 536.516H911.237L964.043 589.321H857.956ZM697.122 535.712L644.316 482.906H696.792L696.957 483.071L697.122 482.906H857.623L910.429 535.712H697.122ZM750.402 53.2117H537.091L589.893 0.402083H803.204L750.398 53.2077L750.402 53.2117ZM588.755 0.402083L482.906 106.251V0.402083H588.755ZM482.102 107.055L481.937 107.22L482.102 107.384V160.427H376.253L482.102 54.5788V107.055ZM428.492 0.969021V107.055L375.686 159.86V53.7786L428.492 0.969021ZM374.882 54.5788V159.86L322.24 107.22L374.882 54.5788ZM321.267 0.402083V106.251L215.418 0.402083H321.267ZM214.28 0.402083L267.086 53.2077H53.7791L0.969029 0.402083H214.276H214.28ZM52.6412 53.2077H0.402087V0.969021L52.6412 53.2077ZM0.402087 54.0119H53.4454L106.653 107.22L53.4454 160.427H0.402087V54.0119ZM160.433 161.802V214.041H108.193L160.433 161.802ZM107.389 214.845H160.433V321.265H107.389L107.224 321.1L54.1812 268.057L107.389 214.849V214.845ZM160.433 322.069V374.307L108.193 322.069H160.433ZM107.224 322.234L159.866 374.874H54.5833L107.224 322.234ZM0.969029 428.488L53.7751 375.683H159.862L107.056 428.488H0.969029ZM160.433 376.249V482.098H54.5833L160.433 376.249ZM106.822 482.902V535.945L53.6142 589.153L0.402087 535.945V482.902H106.822ZM0.402087 537.083L53.2081 589.888V696.778L0.402087 749.584V537.079V537.083ZM52.6412 803.765H0.402087V751.526L52.6412 803.765ZM0.402087 911.792H52.6412L0.402087 964.031V911.792ZM53.7791 911.792H267.086L214.28 964.598H0.969029L53.7751 911.792H53.7791ZM215.418 964.598L321.267 858.75V964.598H215.418ZM375.284 910.819L322.24 857.776L322.075 857.612V804.569H375.119L375.284 804.734L375.448 804.569H428.492V857.612L375.284 910.819ZM429.296 804.569H481.535L429.296 856.807V804.569ZM482.906 858.179H535.949L589.157 911.386L535.949 964.594H482.906V858.175V858.179ZM537.087 964.598L589.893 911.792H696.784L749.59 964.598H537.083H537.087ZM751.532 964.598L803.771 912.359V964.598H751.532ZM804.575 804.569H856.815L804.575 856.807V804.569ZM804.74 857.776L857.382 805.136V910.417L804.74 857.776ZM910.992 964.027L858.186 911.221V805.136L910.992 857.941V964.027ZM964.602 910.417L858.753 804.569H964.602V910.417ZM964.602 803.198L912.363 750.959H964.602V803.198ZM911.559 750.155L858.351 696.947L911.559 643.739H964.602V750.159H911.559V750.155ZM964.602 642.931H912.363L964.602 590.693V642.931ZM858.753 482.902H964.602V588.751L858.753 482.902ZM804.571 481.527V429.288H856.81L804.571 481.527ZM857.615 428.484H804.571V322.065H857.615L857.78 322.23L910.823 375.272L857.615 428.48V428.484ZM804.571 321.261V269.022L856.81 321.261H804.571ZM857.78 321.096L805.138 268.455H910.421L857.78 321.096ZM964.031 214.845L911.225 267.651H805.138L857.944 214.845H964.031ZM804.567 267.084V161.235H910.417L804.567 267.084Z" fill="url(#paint0_radial_1_666)"/>
<defs>
<radialGradient id="paint0_radial_1_666" cx="0" cy="0" r="1" gradientUnits="userSpaceOnUse" gradientTransform="translate(468.214 482.5) scale(375.861 375.858)">
<stop stop-color="#F2E1A4"/>
<stop offset="0.21" stop-color="#DCC177"/>
<stop offset="0.43" stop-color="#C69F47"/>
<stop offset="1" stop-color="#F2E1A4" stop-opacity="0"/>
</radialGradient>
</defs>
</svg>
