<svg width="484" height="818" viewBox="0 0 484 818" fill="none" xmlns="http://www.w3.org/2000/svg">
<path d="M483.618 0V155.06L432.399 103.841V0H431.459L431.619 0.1599V103.057L380.4 51.8388V0H379.62V51.8388L328.4 103.057V0H15.6178V51.8388L-35.6013 103.057V0H-36.5412L-87.6005 51.0588V0H-88.3805V51.8388L-139.6 103.057V0H-452V156.39H-296.939L-348.158 207.609H-452V208.549L-451.84 208.389H-348.942L-400.161 259.607H-452V260.387H-400.161L-348.942 311.606H-452V312.386H-348.942L-400.161 363.605H-452V364.385H-400.941L-452 415.447V416.387H-348.942L-400.161 467.606H-452V935.996H-139.607V832.939L-88.3882 884.157V935.996H-87.6082V884.157L-36.3891 832.939V935.836L-36.549 935.996H-35.6091V832.159L15.61 780.94V936H328.393V884.161L328.553 884.001L328.393 883.841V832.942L379.612 884.161V936H380.392V884.941L431.451 936H432.391V832.942L483.61 884.161V936H484V467.61H328.939L380.158 416.391H483.996V415.451L483.836 415.611H380.938L432.157 364.393H483.996V363.613H432.157L380.938 312.394H483.996V311.614H380.938L432.157 260.395H483.996V259.615H432.937L483.996 208.556V207.616H380.938L432.157 156.398H483.996V0H483.606H483.618ZM380.006 52.5525L431.615 104.161V155.61H328.393V104.161L380.002 52.5525H380.006ZM432.395 104.941L483.064 155.61H432.395V104.941ZM120.166 883.611L68.9468 832.393H171.845L223.064 883.611H120.166ZM-87.0544 779.61L-35.8353 728.391H67.8431L119.062 779.61H-87.0544ZM-192.16 883.611H-295.059L-243.84 832.393H-140.941L-192.16 883.611ZM-399.611 572.161L-348.392 520.943V623.84L-399.611 675.059V572.161ZM-296.943 468.39L-347.612 519.059V468.39H-296.943ZM-295.609 363.839V260.161L-244.39 208.942V415.841L-295.609 467.06V364.162L-295.449 364.003L-295.609 363.843V363.839ZM-140.937 103.611H-243.836L-295.055 52.3926H-192.156L-140.937 103.611ZM68.1669 52.3926H171.065L119.846 103.611H16.9478L68.1669 52.3926ZM327.847 520.393L379.066 571.611H276.167L224.948 520.393H327.847ZM275.458 572.001L223.848 623.61H172.399V520.389H223.848L275.458 571.997V572.001ZM327.62 832.162V883.061L224.952 780.394H327.62V831.843L327.461 832.003L327.62 832.162ZM120.17 779.61L68.5607 728.001L120.17 676.393H171.619V779.614H120.17V779.61ZM67.847 727.611H-35.0514L16.1677 676.393H119.066L67.847 727.611ZM-347.834 831.613L-399.053 780.394H-192.936L-244.156 831.613H-347.834ZM-296.385 676.943V779.61H-399.053L-296.385 676.943ZM16.3939 104.941L67.0632 155.61H16.3939V104.941ZM223.844 104.391L275.064 155.61H68.9468L120.166 104.391H223.844ZM327.617 260.161V363.839L276.397 415.057V208.159L327.617 156.94V259.837L327.457 259.997L327.617 260.157V260.161ZM120.946 675.609L171.615 624.94V675.609H120.946ZM-87.0544 675.609L-35.8353 624.39H16.3939H171.065L119.846 675.609H-87.0544ZM-191.607 779.61V728.941L-140.937 779.61H-191.607ZM-140.387 780.39V831.059L-191.057 780.39H-140.387ZM-192.387 779.61H-295.609V728.161L-244 676.552L-192.39 728.161V779.61H-192.387ZM-191.607 260.161L-140.387 208.942V311.61V415.057L-191.607 363.839V260.161ZM-87.9944 156.55L-87.8344 156.39H67.8431L119.062 207.609H-87.8383L-139.057 156.39H-88.1582L-87.9983 156.55H-87.9944ZM224.398 467.056V364.159L275.617 312.94V415.837L224.398 467.056ZM-244.386 675.835L-295.605 727.054V520.935L-244.386 572.153V675.831V675.835ZM-244.936 468.386L-295.605 519.055V468.386H-244.936ZM-295.441 519.995L-244.382 468.936V571.054L-295.441 519.995ZM-139.6 467.606V364.939L-88.3805 416.157V519.835L-139.6 571.054V467.606ZM-88.9304 207.605H-139.6V156.936L-88.9304 207.605ZM-139.6 208.385H-88.1504L-36.5412 259.993L-88.1504 311.602H-139.6V208.381V208.385ZM223.622 363.835L172.403 415.054V260.157L172.563 259.997L172.403 259.837V208.939L223.622 260.157V363.835ZM223.622 467.056L172.563 415.997L223.622 364.939V467.056ZM171.623 623.056L120.404 571.837V364.939L171.463 415.997L171.623 416.157V467.606V623.052V623.056ZM-35.8275 260.387H67.851L119.07 311.606H68.1747L68.0148 311.446L67.8549 311.606H15.6256H-87.0427L-35.8236 260.387H-35.8275ZM119.624 467.056L68.4047 415.837V312.94L119.624 364.159V467.056ZM-35.5974 364.159L15.6217 312.94V363.835L15.4618 363.995L15.6217 364.155V467.992V519.831L-35.5974 571.05V364.151V364.159ZM15.0718 312.386L-35.5974 363.055V312.386H15.0718ZM15.6217 520.939V623.606H-87.0466L15.6217 520.939ZM16.4017 312.386H67.0709L16.4017 363.055V312.386ZM67.6208 312.936V415.054L16.5616 363.995L67.6208 312.936ZM68.9547 312.386H119.85L120.01 312.546L120.17 312.386H171.619V415.054L68.9507 312.386H68.9547ZM120.954 311.606L171.623 260.937V311.606H120.954ZM120.01 311.446L68.9507 260.387H171.069L120.01 311.446ZM-36.3813 312.386V363.835L-87.9904 415.444L-139.6 363.835V312.386H-36.3774H-36.3813ZM-87.6005 416.157L-36.3813 364.939V467.836L-87.6005 519.055V416.157ZM-36.3813 468.936V571.834L-87.6005 623.052V520.155L-36.3813 468.936ZM-88.3805 623.052L-139.44 571.993L-88.3805 520.935V623.052ZM-88.9304 623.602H-139.6V572.933L-88.9304 623.602ZM16.4017 467.992V364.935L67.6208 416.153V519.831L16.4017 571.05V467.992ZM68.4008 416.933L119.62 468.152V571.05L68.4008 519.831V416.933ZM171.623 156.382V259.05L68.9547 156.382H171.623ZM171.073 259.603H68.1747L16.9555 208.385H119.854L171.073 259.603ZM15.8518 208.385L67.0709 259.603H-35.8275L-87.0466 208.385H15.8518ZM16.4017 572.157L68.0109 520.549L119.62 572.157V623.606H16.3978V572.157H16.4017ZM120.404 572.937L171.073 623.606H120.404V572.937ZM172.403 416.937L223.072 467.606H172.403V416.937ZM275.625 311.832L224.406 363.051V260.153L275.625 208.935V311.832ZM224.016 259.444L172.407 207.835V156.386H275.629V207.835L224.02 259.444H224.016ZM-140.376 207.055L-191.045 156.386H-140.376V207.055ZM-191.595 156.94L-140.536 207.999L-191.595 259.057V156.94ZM-243.594 675.835V572.937L-192.375 624.156V727.054L-243.594 675.835ZM-192.375 623.056L-243.594 571.837V468.94L-192.375 520.159V623.056ZM-243.044 468.386H-140.376V571.054L-243.044 468.386ZM-88.1465 624.386L-87.9866 624.546L-87.8266 624.386H-36.9312L-139.6 727.054V624.386H-88.1504H-88.1465ZM224.96 467.606L327.628 364.939V467.606H224.96ZM276.409 207.055V156.386H327.078L276.409 207.055ZM68.0187 155.446L16.9594 104.387H119.078L68.0187 155.446ZM-191.041 155.606L-140.372 104.937V155.606H-191.041ZM-191.981 155.446L-243.04 104.387H-140.922L-191.981 155.446ZM-192.921 156.386L-295.589 259.054V156.386H-192.921ZM-192.371 156.936V259.834L-243.59 311.052V208.155L-192.371 156.936ZM-243.59 312.156L-192.371 260.937V363.835L-243.59 415.054V312.156ZM-191.981 364.545L-140.372 416.153V467.602H-243.594V416.153L-191.985 364.545H-191.981ZM-244.37 467.602H-295.039L-244.37 416.933V467.602ZM-191.981 780.542L-140.922 831.601H-243.04L-191.981 780.542ZM-191.591 727.83V520.935L-140.532 571.993L-140.372 572.153V624.382V727.83L-140.532 727.99L-140.372 728.149V779.048L-191.591 727.83ZM-139.038 727.6L-87.8188 676.381H15.0796L-36.1395 727.6H-139.038ZM-36.9195 728.38L-87.9788 779.438L-139.038 728.38H-36.9195ZM172.415 779.598V676.931L275.083 779.598H172.415ZM172.965 676.377H275.863L327.082 727.596H224.184L172.965 676.377ZM172.965 675.597L224.024 624.538L275.083 675.597H172.965ZM172.415 675.047V624.378H223.084L172.415 675.047ZM172.415 519.597V468.928L223.084 519.597H172.415ZM327.617 51.6087H276.947L327.617 0.9399V51.6087ZM327.617 52.3887V155.61H276.167L224.558 104.001L276.167 52.3926H327.617V52.3887ZM223.844 103.607H120.946L172.165 52.3887H275.064L223.844 103.607ZM-139.607 155.606V104.937L-88.9382 155.606H-139.607ZM-296.159 52.3887L-244.939 103.607H-347.838L-399.057 52.3887H-296.159ZM-347.838 104.387H-244.159L-192.94 155.606H-399.057L-347.838 104.387ZM-296.389 468.94V519.839L-296.549 519.999L-296.389 520.159V675.835L-347.608 727.054V520.155L-296.389 468.936V468.94ZM-348.388 624.94V727.837L-399.607 779.056V676.159L-348.388 624.94ZM-400.387 779.056L-451.45 728.001L-400.391 676.943V779.06L-400.387 779.056ZM-348.548 831.999L-400.157 883.607H-451.61V780.386H-400.161L-348.552 831.995L-348.548 831.999ZM-347.834 832.389H-244.936L-296.155 883.607H-399.057L-347.838 832.389H-347.834ZM-139.603 728.941L-88.9343 779.61H-139.603V728.941ZM16.3978 780.94L67.0671 831.609H16.3978V780.94ZM16.9478 780.39H171.619H223.848L275.068 831.609H68.1708L16.9517 780.39H16.9478ZM172.949 832.389H275.847L327.067 883.607H224.168L172.949 832.389ZM327.067 884.387L276.007 935.446L224.948 884.387H327.067ZM380.169 779.606L380.01 779.446L379.85 779.606H276.171L224.952 728.387H431.853L483.072 779.606H380.173H380.169ZM328.17 727.607L276.951 676.389H379.85L431.069 727.607H328.17ZM379.85 675.609H276.171L224.952 624.39H431.069L379.85 675.609ZM224.952 623.61L276.171 572.391H379.85L431.069 623.61H224.948H224.952ZM380.953 572.391H483.072L432.013 623.45L380.953 572.391ZM380.173 571.611L328.954 520.393H431.853L483.072 571.611H380.173ZM224.172 519.613L172.953 468.394H223.852L224.012 468.554L224.172 468.394H379.85L431.069 519.613H224.172ZM275.851 51.6126H68.9507L120.166 0.39H327.067L275.847 51.6087L275.851 51.6126ZM119.062 0.39L16.3939 103.057V0.39H119.062ZM15.6139 103.837L15.454 103.997L15.6139 104.157V155.606H-87.0544L15.6139 52.9386V103.837ZM-36.3852 0.9399V103.837L-87.6043 155.056V52.1625L-36.3852 0.9399ZM-88.3843 52.9386V155.056L-139.444 103.997L-88.3843 52.9386ZM-140.387 0.39V103.057L-243.056 0.39H-140.387ZM-244.159 0.39L-192.94 51.6087H-399.837L-451.06 0.39H-244.163H-244.159ZM-400.941 51.6087H-451.61V0.9399L-400.941 51.6087ZM-451.61 52.3887H-400.161L-348.552 103.997L-400.161 155.606H-451.61V52.3887ZM-296.389 156.94V207.609H-347.058L-296.389 156.94ZM-347.838 208.389H-296.389V311.61H-347.838L-347.998 311.45L-399.447 260.001L-347.838 208.393V208.389ZM-296.389 312.39V363.059L-347.058 312.39H-296.389ZM-347.998 312.55L-296.939 363.609H-399.057L-347.998 312.55ZM-451.06 415.611L-399.841 364.393H-296.943L-348.162 415.611H-451.06ZM-296.389 364.942V467.61H-399.057L-296.389 364.942ZM-348.388 468.39V519.839L-399.997 571.447L-451.61 519.839V468.39H-348.388ZM-451.61 520.943L-400.391 572.161V675.839L-451.61 727.057V520.939V520.943ZM-400.941 779.61H-451.61V728.941L-400.941 779.61ZM-451.61 884.391H-400.941L-451.61 935.06V884.391ZM-399.837 884.391H-192.94L-244.159 935.61H-451.06L-399.841 884.391H-399.837ZM-243.056 935.61L-140.387 832.942V935.61H-243.056ZM-87.9944 883.447L-139.444 831.999L-139.603 831.839V780.39H-88.1543L-87.9944 780.55L-87.8344 780.39H-36.3852V831.839L-87.9944 883.447ZM-35.6052 780.39H15.064L-35.6052 831.059V780.39ZM16.3939 832.389H67.8431L119.452 883.997L67.8431 935.606H16.3939V832.385V832.389ZM68.9468 935.61L120.166 884.391H223.844L275.064 935.61H68.9429H68.9468ZM276.947 935.61L327.617 884.941V935.61H276.947ZM328.397 780.39H379.066L328.397 831.059V780.39ZM328.556 831.999L379.616 780.94V883.057L328.556 831.999ZM431.615 935.056L380.396 883.837V780.94L431.615 832.159V935.056ZM483.614 883.057L380.946 780.39H483.614V883.057ZM483.614 779.06L432.945 728.391H483.614V779.06ZM432.165 727.611L380.556 676.003L432.165 624.394H483.614V727.615H432.165V727.611ZM483.614 623.61H432.945L483.614 572.941V623.61ZM380.946 468.39H483.614V571.057L380.946 468.39ZM328.393 467.056V416.387H379.062L328.393 467.056ZM379.842 415.607H328.393V312.386H379.842L380.002 312.546L431.451 363.995L379.842 415.603V415.607ZM328.393 311.606V260.937L379.062 311.606H328.393ZM380.002 311.446L328.943 260.387H431.061L380.002 311.446ZM483.06 208.389L431.841 259.607H328.943L380.162 208.389H483.06ZM328.389 259.057V156.39H431.057L328.389 259.057Z" fill="url(#paint0_radial_1_634)"/>
<defs>
<radialGradient id="paint0_radial_1_634" cx="0" cy="0" r="1" gradientUnits="userSpaceOnUse" gradientTransform="translate(2.14318 468) scale(364.566 364.562)">
<stop stop-color="#F2E1A4"/>
<stop offset="0.21" stop-color="#DCC177"/>
<stop offset="0.43" stop-color="#C69F47"/>
<stop offset="1" stop-color="#F2E1A4" stop-opacity="0"/>
</radialGradient>
</defs>
</svg>
