<svg width="25" height="25" viewBox="0 0 25 25" fill="none" xmlns="http://www.w3.org/2000/svg">
<path d="M24.126 22.3838H0.87014C0.393396 22.3838 -0.00195312 22.7791 -0.00195312 23.2559C-0.00195312 23.7326 0.393396 24.128 0.87014 24.128H24.126C24.6027 24.128 24.998 23.7326 24.998 23.2559C24.998 22.7791 24.6027 22.3838 24.126 22.3838Z" fill="white"/>
<path d="M18.312 0H6.68412C3.19575 0 2.03296 2.0814 2.03296 4.65116V23.2558H9.0097V16.2093C9.0097 15.6047 9.49808 15.1163 10.1027 15.1163H14.9051C15.4981 15.1163 15.9981 15.6047 15.9981 16.2093V23.2558H22.9748V4.65116C22.9632 2.0814 21.8004 0 18.312 0ZM15.4051 8.43023H13.3702V10.4651C13.3702 10.9419 12.9748 11.3372 12.4981 11.3372C12.0213 11.3372 11.626 10.9419 11.626 10.4651V8.43023H9.5911C9.11435 8.43023 8.71901 8.03488 8.71901 7.55814C8.71901 7.0814 9.11435 6.68605 9.5911 6.68605H11.626V4.65116C11.626 4.17442 12.0213 3.77907 12.4981 3.77907C12.9748 3.77907 13.3702 4.17442 13.3702 4.65116V6.68605H15.4051C15.8818 6.68605 16.2771 7.0814 16.2771 7.55814C16.2771 8.03488 15.8818 8.43023 15.4051 8.43023Z" fill="white"/>
</svg>
