<svg width="38" height="52" viewBox="0 0 38 52" fill="none" xmlns="http://www.w3.org/2000/svg">
<path fill-rule="evenodd" clip-rule="evenodd" d="M19 15.0073C16.4109 15.0073 14.3125 17.1291 14.3125 19.747C14.3125 22.3649 16.4109 24.4867 19 24.4867C21.5891 24.4867 23.6875 22.3649 23.6875 19.747C23.6875 17.1291 21.5891 15.0073 19 15.0073ZM19 27.6465C14.6859 27.6465 11.1875 24.1107 11.1875 19.747C11.1875 15.3833 14.6859 11.8474 19 11.8474C23.3141 11.8474 26.8125 15.3833 26.8125 19.747C26.8125 24.1107 23.3141 27.6465 19 27.6465ZM19 0.788086C8.64531 0.788086 0.25 9.27693 0.25 19.747C0.25 27.675 15.8828 51.3625 19 51.3451C22.0688 51.3625 37.75 27.5675 37.75 19.747C37.75 9.27693 29.3547 0.788086 19 0.788086Z" fill="white"/>
</svg>
