<svg width="167" height="60" viewBox="0 0 167 60" fill="none" xmlns="http://www.w3.org/2000/svg">
<g clip-path="url(#clip0_1_706)">
<path d="M38.4 35.5002C38.6 35.1002 38.8 34.8002 38.9 34.8002C39.6 35.2002 40 35.5002 40.2 35.6002L40.8 34.7002L39.4 33.7002C39.1 34.2002 39 34.4002 38.9 34.5002C38.3 34.2002 37.9 33.9002 37.6 33.7002L37 34.8002C37.2 34.9002 37.4 35.0002 37.7 35.2002C38 35.3002 38.2 35.4002 38.4 35.5002Z" fill="white"/>
<path d="M79.6 36.3996C79.9 35.8996 80.1 35.3996 80.3 34.8996C79.9 34.6996 79.5 34.4996 79.3 34.3996C79.2 34.2996 79.2 34.1996 79.2 34.0996V33.8996C79.2 33.7996 79.2 33.6996 79.2 33.5996H79C78.6 34.1996 78.4 34.6996 78.2 34.9996C78.2 35.0996 78.1 35.1996 78.1 35.2996C78.1 35.3996 78.1 35.4996 78.2 35.4996C78.3 35.5996 78.4 35.6996 78.5 35.7996C78.7 37.0996 78.8 38.1996 78.9 38.8996C78.9 39.0996 79 39.4996 79 39.8996C79.1 40.5996 79.1 40.9996 79.1 41.1996C79.1 41.3996 79.1 41.4996 79.1 41.5996V41.6996C78.8 41.6996 77.9 41.6996 76.1 41.6996H75.5C75.5 41.5996 75.7 41.3996 75.8 41.0996C75.9 40.8996 76 40.6996 76 40.6996C76 40.1996 75.6 39.5996 74.8 39.1996C74.1 38.7996 73.5 38.4996 73 38.4996C72.3 38.4996 71.2 38.8996 69.8 39.7996C68.1 40.7996 67 41.4996 66.3 41.6996H65.5C65.2 41.6996 64.9 41.5996 64.9 41.4996C65.1 41.2996 65.2 40.7996 65.3 40.2996C65.3 39.8996 65.4 39.5996 65.4 39.1996C65 39.5996 64.6 39.9996 64.3 40.3996C64.3 40.5996 64.3 40.8996 64.3 41.0996C64.3 41.4996 64.1 41.6996 63.9 41.6996H61.9H54.9C54.7 41.6996 54.6 41.5996 54.5 41.3996C54.5 41.2996 54.5 41.2996 54.5 41.1996C54.5 41.1996 54.5 41.0996 54.5 40.9996C54.8 40.8996 55.1 40.7996 55.4 40.6996C55.6 40.6996 55.7 40.5996 55.8 40.5996H56.9L57.4 39.2996H56.7C56.3 39.2996 56 39.2996 55.8 39.1996C54.4 38.8996 53.4 38.5996 52.7 38.3996C52.4 38.2996 52.2 38.2996 51.9 38.2996C51.7 38.2996 51.5 38.2996 51.5 38.2996C51.3 38.3996 51.1 38.3996 51 38.4996C50.7 38.6996 50.4 39.0996 50.2 39.5996C50.1 39.7996 50.1 39.9996 50.1 39.9996V40.1996C50.2 40.1996 50.4 39.9996 50.6 39.7996C50.8 39.6996 51 39.5996 51.2 39.5996C51.2 39.5996 51.3 39.5996 51.3 39.4996C51.4 39.4996 51.4 39.4996 51.5 39.4996C51.9 39.4996 52.7 39.6996 54.2 40.0996C53.6 40.5996 53 40.9996 52.4 41.1996C52 41.2996 51.6 41.3996 51.3 41.3996H42.4C42 41.3996 41.8 41.2996 41.6 41.0996C41.6 40.9996 41.5 40.9996 41.5 40.8996C41.2 38.4996 41 36.7996 40.9 35.5996C40.4 36.1996 40.1 36.5996 40.1 36.6996C40.1 36.9996 40.1 37.2996 40.1 37.3996C40 37.4996 39.6 37.5996 39.1 37.7996C38.7 37.8996 38.4 38.0996 38.2 38.2996C37.6 38.8996 37.2 39.6996 37 40.6996C37.2 40.8996 37.4 40.9996 37.7 41.0996C37.8 41.1996 38 41.1996 38.3 41.2996C39.2 41.5996 39.7 41.6996 39.8 41.6996C39.9 41.6996 40 41.6996 40 41.5996C40.1 41.3996 40.2 41.2996 40.2 41.0996C40.3 40.8996 40.5 40.6996 40.6 40.6996C40.7 40.7996 40.7 40.8996 40.7 41.0996C40.8 41.6996 40.8 41.9996 40.9 42.0996C41 42.2996 41.2 42.4996 41.4 42.5996C41.5 42.6996 41.6 42.6996 41.7 42.6996H51.7C51.8 42.6996 51.9 42.6996 52 42.5996C52.5 42.2996 52.8 42.0996 53 41.8996C53.4 41.5996 53.8 41.2996 54 41.0996C54.1 41.7996 54.2 42.1996 54.3 42.2996C54.4 42.4996 54.5 42.6996 54.7 42.6996H63.9C64 42.6996 64.2 42.5996 64.5 42.2996C64.6 42.4996 64.7 42.5996 64.8 42.6996H79.6C79.8 42.4996 79.9 42.1996 79.9 41.7996C79.9 41.4996 80 41.1996 80 40.8996C80 40.6996 80.1 40.3996 80.1 40.1996L79.6 36.3996ZM39.8 40.5996C39.7 40.5996 39.5 40.5996 39.3 40.4996C39.1 40.4996 38.8 40.3996 38.4 40.1996C38.2 40.0996 38 39.9996 37.8 39.7996C38 39.6996 38.3 39.4996 38.7 39.3996C39.1 39.2996 39.4 39.0996 39.5 38.9996C39.7 38.6996 39.9 38.4996 40 38.1996L40.4 40.4996H39.8V40.5996ZM74.6 41.5996C74.5 41.6996 74.4 41.6996 74.3 41.6996H68C68.7 41.2996 69.4 40.8996 70.1 40.4996C71 39.9996 71.7 39.7996 72.3 39.7996C72.6 39.7996 72.9 39.7996 73.1 39.8996C73.2 39.8996 73.5 40.0996 73.9 40.3996C74.4 40.7996 74.6 41.0996 74.6 41.2996C74.8 41.3996 74.7 41.4996 74.6 41.5996Z" fill="white"/>
<path d="M82 34.8002L82.8 43.0002C83.2 42.1002 83.4 41.4002 83.4 40.7002L83 32.7002C82.3 33.7002 82 34.4002 82 34.8002Z" fill="white"/>
<path d="M166.4 28.9C151.9 25.7 140.4 14.4 137 0H136.6V18.3C136.6 24.3 141.4 29.1 147.4 29.1H166.5V28.9H166.4Z" fill="#018796"/>
<path d="M4.30078 48.5004L3.00078 47.7004C2.70078 48.2004 2.50078 48.5004 2.40078 48.8004C3.00078 49.2004 3.50078 49.4004 3.80078 49.6004C4.00078 49.0004 4.10078 48.8004 4.20078 48.8004C4.80078 49.2004 5.20078 49.4004 5.40078 49.5004C5.40078 49.4004 5.50078 49.3004 5.70078 49.0004C5.80078 48.8004 5.90078 48.5004 5.90078 48.5004L4.60078 47.8004C4.50078 48.1004 4.40078 48.3004 4.30078 48.5004ZM17.2008 45.6004L18.6008 46.5004C19.0008 45.9004 19.2008 45.5004 19.2008 45.4004C18.3008 44.9004 17.8008 44.6004 17.8008 44.6004C17.7008 44.8004 17.5008 45.2004 17.2008 45.6004ZM19.5008 38.1004C19.1008 39.0004 18.9008 39.4004 18.9008 39.4004C19.4008 40.6004 19.7008 41.3004 19.7008 41.5004C19.7008 41.6004 19.7008 41.6004 19.7008 41.6004H5.30078C5.00078 42.2004 4.80078 42.6004 4.60078 42.9004C4.70078 43.0004 5.10078 43.0004 5.60078 43.1004C6.10078 43.1004 6.50078 43.2004 6.70078 43.3004C7.10078 43.5004 7.30078 43.8004 7.30078 44.2004C7.00078 44.4004 6.60078 44.6004 6.20078 44.8004C5.70078 45.0004 5.10078 45.1004 4.30078 45.2004C3.70078 45.2004 3.40078 45.2004 3.40078 45.2004C1.80078 45.2004 0.900781 44.6004 0.900781 43.4004C0.900781 43.1004 1.10078 42.6004 1.40078 41.8004C1.70078 41.1004 1.90078 40.7004 1.90078 40.7004V40.5004H1.80078C1.40078 40.9004 1.10078 41.4004 0.800781 42.2004C0.500781 43.0004 0.300781 43.7004 0.300781 44.3004C0.300781 45.1004 0.600781 45.7004 1.10078 46.1004C1.60078 46.5004 2.20078 46.6004 2.90078 46.6004C3.40078 46.6004 4.00078 46.5004 4.60078 46.4004C5.60078 46.1004 6.50078 45.8004 7.20078 45.4004C7.30078 45.3004 7.30078 45.2004 7.40078 45.1004C8.00078 44.1004 8.40078 43.4004 8.70078 42.9004H20.0008C20.3008 41.8004 20.4008 41.1004 20.4008 40.8004C20.4008 40.5004 20.3008 40.0004 20.1008 39.3004C19.9008 38.8004 19.6008 38.3004 19.5008 38.1004ZM31.5008 38.1004C31.1008 39.0004 30.9008 39.4004 30.9008 39.4004C31.4008 40.6004 31.7008 41.3004 31.7008 41.5004C31.7008 41.6004 31.7008 41.6004 31.7008 41.6004H28.9008H28.3008C28.0008 41.1004 27.7008 40.4004 27.6008 39.2004C27.4008 37.9004 27.3008 37.1004 27.1008 36.6004C27.0008 36.7004 26.9008 37.0004 26.7008 37.3004C26.5008 37.6004 26.4008 37.8004 26.4008 38.0004L27.1008 40.7004C27.0008 41.2004 26.9008 41.5004 26.6008 41.5004C25.9008 41.7004 25.2008 41.8004 24.6008 41.8004C24.2008 41.8004 23.8008 41.8004 23.5008 41.7004C23.4008 41.6004 23.3008 41.6004 23.3008 41.5004C23.3008 41.4004 23.2008 41.3004 23.2008 41.2004C23.2008 40.8004 23.1008 40.6004 23.1008 40.6004C22.8008 41.5004 22.6008 42.2004 22.6008 42.5004C22.6008 42.6004 22.6008 42.7004 22.7008 42.9004C22.8008 43.0004 22.8008 43.0004 22.9008 43.0004C23.2008 43.1004 23.5008 43.1004 23.9008 43.1004C24.4008 43.1004 25.0008 43.1004 25.7008 43.0004C26.3008 42.9004 26.6008 42.8004 26.7008 42.8004C27.1008 42.3004 27.3008 41.9004 27.4008 41.6004C27.4008 41.6004 27.5008 41.8004 27.7008 42.2004C27.8008 42.5004 27.9008 42.6004 28.1008 42.7004C28.3008 42.8004 28.4008 42.8004 28.4008 42.8004H32.3008C32.6008 41.7004 32.7008 41.0004 32.7008 40.7004C32.7008 40.4004 32.6008 39.9004 32.4008 39.2004C31.9008 38.8004 31.7008 38.3004 31.5008 38.1004ZM29.3008 45.6004L30.7008 46.5004C31.1008 45.9004 31.3008 45.5004 31.3008 45.4004C30.4008 44.9004 29.9008 44.6004 29.9008 44.6004C29.7008 44.8004 29.5008 45.2004 29.3008 45.6004ZM89.8008 35.5004C90.0008 35.1004 90.2008 34.8004 90.3008 34.8004C91.0008 35.2004 91.4008 35.5004 91.6008 35.6004L92.2008 34.7004L90.8008 33.8004C90.5008 34.2004 90.4008 34.5004 90.3008 34.6004C89.7008 34.3004 89.3008 34.0004 89.0008 33.8004L88.4008 34.9004C88.6008 35.0004 88.8008 35.1004 89.1008 35.3004C89.4008 35.3004 89.6008 35.4004 89.8008 35.5004ZM100.701 35.5004C100.901 35.6004 101.201 35.6004 101.401 35.7004C101.201 35.9004 101.001 36.0004 100.801 36.2004C100.401 36.5004 100.301 36.8004 100.301 36.9004C100.301 36.9004 100.301 37.0004 100.401 37.0004C101.501 36.2004 102.501 35.7004 103.501 35.6004C103.701 35.3004 103.801 35.1004 103.901 34.9004H102.401C101.301 34.8004 100.801 34.6004 100.801 34.4004C100.801 34.2004 100.901 34.1004 101.201 33.9004C101.401 33.7004 101.701 33.6004 101.901 33.6004C102.101 33.6004 102.401 33.7004 102.601 33.9004C102.801 33.5004 102.901 33.3004 102.901 33.4004C102.901 33.3004 102.801 33.2004 102.701 33.1004C102.501 33.0004 102.401 32.9004 102.401 32.9004C101.901 32.9004 101.501 33.1004 101.001 33.7004C100.601 34.2004 100.301 34.7004 100.301 35.2004C100.201 35.3004 100.401 35.4004 100.701 35.5004ZM106.701 45.1004C106.001 44.6004 105.501 44.4004 105.301 44.2004C105.101 44.4004 104.901 44.8004 104.701 45.3004L106.201 46.1004C106.401 45.8004 106.501 45.5004 106.601 45.4004C107.201 45.7004 107.701 46.0004 108.001 46.2004C108.201 46.0004 108.301 45.6004 108.601 45.1004C107.801 44.6004 107.301 44.3004 107.201 44.3004C107.001 44.7004 106.801 44.9004 106.701 45.1004ZM130.101 40.1004C129.701 39.3004 128.801 38.3004 127.301 37.0004C127.001 36.8004 126.901 36.7004 126.801 36.7004C126.701 36.7004 126.601 36.9004 126.401 37.2004C126.201 37.5004 126.201 37.7004 126.201 37.8004C126.201 38.0004 126.201 38.1004 126.201 38.3004C125.701 38.8004 125.201 39.6004 124.801 40.5004C124.801 40.6004 124.701 40.8004 124.601 41.2004C124.501 41.5004 124.501 41.7004 124.401 41.7004H108.101C108.101 41.6004 108.101 41.4004 108.101 41.2004C108.101 41.0004 108.101 40.9004 108.101 40.9004V39.7004C108.101 39.7004 108.101 39.5004 108.001 39.2004C108.001 38.9004 107.901 38.7004 107.901 38.6004C107.901 38.6004 107.701 38.8004 107.401 39.2004C107.101 39.6004 107.001 39.9004 107.001 40.0004C107.001 40.0004 107.001 40.2004 107.101 40.7004C107.201 41.1004 107.201 41.5004 107.201 41.6004C107.201 41.7004 107.201 41.7004 107.201 41.8004H103.701C103.501 41.8004 103.301 41.7004 103.301 41.5004L103.701 39.0004V38.4004C103.601 38.5004 103.301 38.8004 103.001 39.2004C102.601 39.6004 102.501 39.9004 102.501 40.0004V41.4004C102.401 41.5004 102.301 41.6004 102.101 41.7004C101.901 41.8004 101.801 41.8004 101.701 41.8004H93.7008C93.3008 41.8004 93.1008 41.7004 92.9008 41.5004C92.9008 41.4004 92.8008 41.4004 92.8008 41.3004C92.5008 38.9004 92.3008 37.2004 92.2008 36.0004C91.7008 36.6004 91.4008 37.0004 91.4008 37.1004C91.4008 37.4004 91.4008 37.7004 91.4008 37.8004C91.3008 37.9004 90.9008 38.0004 90.4008 38.2004C90.0008 38.4004 89.7008 38.5004 89.5008 38.7004C88.9008 39.3004 88.5008 40.1004 88.3008 41.1004C88.5008 41.3004 88.7008 41.4004 89.0008 41.5004C89.1008 41.6004 89.3008 41.6004 89.6008 41.7004C90.5008 41.9004 91.0008 42.1004 91.1008 42.1004C91.2008 42.1004 91.3008 42.1004 91.3008 42.0004C91.4008 41.8004 91.5008 41.7004 91.5008 41.5004C91.6008 41.3004 91.8008 41.1004 91.9008 41.1004C92.0008 41.2004 92.0008 41.3004 92.0008 41.5004C92.1008 42.1004 92.1008 42.4004 92.1008 42.5004C92.2008 42.8004 92.4008 42.9004 92.6008 43.0004C92.7008 43.1004 92.8008 43.1004 92.9008 43.1004H101.801C102.101 42.6004 102.301 42.4004 102.301 42.3004C102.401 42.5004 102.501 42.6004 102.601 42.8004C102.701 43.0004 102.901 43.1004 103.001 43.1004H106.801C107.101 42.7004 107.301 42.4004 107.301 42.4004C107.501 42.7004 107.601 43.0004 107.701 43.1004H124.401C124.201 43.1004 124.801 43.0004 126.201 42.8004L129.401 43.1004C129.601 43.0004 129.801 42.8004 130.001 42.4004C130.201 42.0004 130.301 41.6004 130.301 41.3004C130.401 40.9004 130.301 40.5004 130.101 40.1004ZM91.2008 40.6004C91.1008 40.6004 90.9008 40.6004 90.7008 40.5004C90.5008 40.5004 90.2008 40.4004 89.8008 40.2004C89.6008 40.1004 89.4008 40.0004 89.2008 39.8004C89.4008 39.7004 89.7008 39.5004 90.1008 39.4004C90.5008 39.3004 90.8008 39.1004 90.9008 39.0004C91.1008 38.7004 91.3008 38.5004 91.4008 38.2004L91.8008 40.5004H91.2008V40.6004ZM127.201 41.0004C127.001 41.2004 126.801 41.3004 126.601 41.3004C126.501 41.3004 126.201 41.2004 126.001 41.1004C125.601 41.0004 125.401 40.8004 125.401 40.6004C125.401 40.6004 125.501 40.4004 125.601 40.2004C126.001 39.6004 126.401 39.3004 126.701 39.3004C126.901 39.3004 127.101 39.4004 127.201 39.7004C127.401 40.0004 127.501 40.2004 127.501 40.4004C127.501 40.6004 127.401 40.8004 127.201 41.0004ZM129.701 41.7004H129.401C129.201 41.7004 128.901 41.6004 128.601 41.5004C128.201 41.3004 128.001 41.1004 128.001 40.9004C128.001 40.8004 128.001 40.6004 128.101 40.4004C128.201 40.1004 128.401 39.9004 128.501 39.9004C128.701 39.9004 128.901 40.2004 129.301 40.6004C129.501 41.0004 129.701 41.3004 129.701 41.5004V41.7004Z" fill="white"/>
<path d="M38.5004 54.5996H35.0004V51.1996H33.9004V59.4996H35.0004V55.5996H38.5004V59.4996H39.6004V51.1996H38.5004V54.5996ZM116.1 59.4996H117.2V51.1996H116.1V59.4996ZM118.2 52.2996H120.4V59.4996H121.5V52.2996H123.7V51.2996H118.1V52.2996H118.2ZM130.6 51.2996H130.5H129.5L127.5 54.8996L125.4 51.2996H124.1L126.8 56.0996V59.5996H127.9V56.0996L130.6 51.2996ZM76.9004 51.2996L74.3004 59.5996H75.3004L76.0004 57.1996L78.8004 57.0996L79.7004 59.4996H80.8004L78.0004 51.2996H76.9004ZM76.3004 56.1996L77.4004 52.5996L78.5004 56.1996H76.3004ZM104.4 51.0996C103.4 51.0996 102.6 51.4996 102 52.2996C101.4 53.0996 101.1 54.1996 101.1 55.3996C101.1 56.5996 101.4 57.5996 102 58.3996C102.6 59.1996 103.4 59.6996 104.4 59.6996C105.4 59.6996 106.3 59.2996 106.8 58.3996C107.4 57.4996 107.7 56.4996 107.7 55.2996C107.7 54.0996 107.4 53.0996 106.8 52.2996C106.2 51.4996 105.4 51.0996 104.4 51.0996ZM105.9 57.7996C105.5 58.3996 105 58.6996 104.4 58.6996C103.8 58.6996 103.3 58.3996 102.9 57.7996C102.5 57.1996 102.3 56.3996 102.3 55.3996C102.3 54.3996 102.5 53.5996 102.9 52.9996C103.3 52.3996 103.8 52.0996 104.4 52.0996C105 52.0996 105.5 52.3996 105.9 52.8996C106.3 53.4996 106.5 54.2996 106.5 55.2996C106.5 56.2996 106.3 57.1996 105.9 57.7996ZM85.7004 56.6996C85.7004 57.3996 85.6004 57.8996 85.3004 58.1996C85.0004 58.4996 84.6004 58.6996 84.0004 58.6996C83.7004 58.6996 83.4004 58.5996 83.1004 58.4996C82.8004 58.3996 82.6004 58.1996 82.5004 57.9996C82.4004 57.7996 82.3004 57.2996 82.3004 56.6996V51.2996H81.2004V56.6996C81.2004 57.7996 81.4004 58.4996 81.9004 58.9996C82.3004 59.4996 83.0004 59.6996 84.0004 59.6996C84.8004 59.6996 85.5004 59.4996 86.0004 58.9996C86.5004 58.4996 86.8004 57.6996 86.8004 56.6996V51.2996H85.8004L85.7004 56.6996ZM87.5004 52.2996H89.7004V59.4996H90.8004V52.2996H93.0004V51.2996H87.4004V52.2996H87.5004ZM98.7004 54.5996H95.2004V51.1996H94.0004V59.4996H95.1004V55.5996H98.6004V59.4996H99.7004V51.1996H98.6004L98.7004 54.5996ZM69.4004 54.5996H65.9004V51.1996H64.8004V59.4996H65.9004V55.5996H69.4004V59.4996H70.5004V51.1996H69.4004V54.5996ZM58.2004 52.2996H60.4004V59.4996H61.5004V52.2996H63.7004V51.2996H58.1004L58.2004 52.2996ZM49.5004 51.2996L46.9004 59.5996H47.9004L48.6004 57.1996L51.4004 57.0996L52.3004 59.4996H53.4004L50.8004 51.1996L49.5004 51.2996ZM48.9004 56.1996L50.0004 52.5996L51.1004 56.1996H48.9004ZM42.6004 55.6996H45.8004V54.6996H42.6004V52.2996H46.6004V51.2996H41.5004V59.5996H46.7004V58.4996H42.6004V55.6996ZM114.3 54.8996C114.5 54.4996 114.6 54.0996 114.6 53.5996C114.6 52.9996 114.4 52.4996 114 51.9996C113.6 51.4996 112.9 51.2996 112.1 51.2996H109V59.5996H110.1V55.9996H112.2L113.7 59.5996H114.8L113.3 55.7996C113.7 55.5996 114.1 55.2996 114.3 54.8996ZM112 54.9996H110V52.2996H112.1C112.5 52.2996 112.8 52.3996 113.1 52.5996C113.4 52.7996 113.5 53.0996 113.5 53.4996C113.5 53.8996 113.4 54.2996 113.1 54.4996C112.9 54.8996 112.5 54.9996 112 54.9996ZM55.3004 51.2996H54.1004V59.5996H58.9004V58.4996H55.3004V51.2996Z" fill="white"/>
<path d="M134.4 0C131 14.5 119.4 25.8 104.9 28.9V29.1H124C130 29.1 134.8 24.3 134.8 18.3V0H134.4Z" fill="#86B826"/>
<path d="M166.4 30.7998H147.3C141.3 30.7998 136.5 35.5998 136.5 41.5998V59.9998H136.9C140.3 45.5998 151.8 34.2998 166.3 31.0998V30.7998H166.4Z" fill="#86B826"/>
<path d="M29.1 51.2998H28V59.5998H29.1V51.2998Z" fill="white"/>
<path d="M24.6008 51.2998H23.4008L20.8008 59.5998H21.8008L22.5008 57.1998L25.3008 57.0998L26.2008 59.4998H27.3008L24.6008 51.2998ZM22.8008 56.1998L23.9008 52.5998L25.0008 56.1998H22.8008Z" fill="white"/>
<path d="M19.9996 55.9004C19.7996 55.6004 19.3996 55.3004 18.9996 55.2004C19.7996 54.9004 20.1996 54.3004 20.1996 53.4004C20.1996 52.9004 19.9996 52.4004 19.5996 52.0004C19.1996 51.6004 18.5996 51.4004 17.7996 51.4004H14.5996V59.7004H17.7996C18.6996 59.7004 19.2996 59.5004 19.7996 59.0004C20.1996 58.6004 20.3996 58.0004 20.3996 57.3004C20.4996 56.7004 20.2996 56.3004 19.9996 55.9004ZM15.7996 52.3004H17.6996C18.1996 52.3004 18.4996 52.4004 18.7996 52.6004C18.9996 52.8004 19.1996 53.1004 19.1996 53.5004C19.1996 53.9004 19.0996 54.2004 18.8996 54.4004C18.6996 54.7004 18.1996 54.8004 17.4996 54.8004H15.8996V52.3004H15.7996ZM18.8996 58.1004C18.5996 58.3004 18.2996 58.5004 17.7996 58.5004H15.7996V55.7004H17.6996C18.0996 55.7004 18.4996 55.8004 18.6996 55.9004C18.8996 56.0004 19.0996 56.2004 19.1996 56.4004C19.2996 56.6004 19.3996 56.9004 19.3996 57.2004C19.2996 57.6004 19.1996 57.9004 18.8996 58.1004Z" fill="white"/>
<path d="M5.3 52.4998C4.7 51.6998 3.8 51.2998 2.7 51.2998H0V59.5998H3C3.9 59.5998 4.7 59.1998 5.3 58.3998C5.9 57.5998 6.2 56.5998 6.2 55.3998C6.3 54.1998 5.9 53.2998 5.3 52.4998ZM4.5 57.6998C4.1 58.2998 3.5 58.5998 2.7 58.5998H1.1V52.2998H2.6C3.5 52.2998 4.1 52.5998 4.5 53.1998C4.9 53.7998 5.1 54.4998 5.1 55.2998C5.1 56.2998 4.9 57.0998 4.5 57.6998Z" fill="white"/>
<path d="M12 56.7002C12 57.4002 11.9 57.9002 11.6 58.2002C11.3 58.5002 10.9 58.7002 10.3 58.7002C10 58.7002 9.7 58.6002 9.4 58.5002C9.1 58.4002 8.9 58.2002 8.8 58.0002C8.7 57.8002 8.6 57.3002 8.6 56.7002V51.3002H7.5V56.7002C7.5 57.7002 7.7 58.5002 8.2 59.0002C8.7 59.5002 9.3 59.7002 10.3 59.7002C11.1 59.7002 11.8 59.5002 12.3 59.0002C12.8 58.5002 13.1 57.7002 13.1 56.6002V51.2002H12.1L12 56.7002Z" fill="white"/>
<path d="M0.900391 28.8002V20.2002H2.50039V27.5002H6.10039V28.8002H0.900391Z" fill="white"/>
<path d="M7.09961 21.4006V20.1006H8.59961V21.4006H7.09961ZM7.09961 28.8006V22.4006H8.59961V28.8006H7.09961Z" fill="white"/>
<path d="M13.0004 28.9006C12.0004 28.9006 11.2004 28.6006 10.7004 28.0006C10.2004 27.4006 9.90039 26.6006 9.90039 25.5006C9.90039 24.4006 10.2004 23.6006 10.8004 23.0006C11.4004 22.4006 12.1004 22.1006 13.1004 22.1006C13.9004 22.1006 14.5004 22.3006 15.0004 22.6006L14.6004 23.7006C14.1004 23.4006 13.6004 23.3006 13.1004 23.3006C12.6004 23.3006 12.2004 23.5006 11.9004 23.9006C11.6004 24.3006 11.5004 24.8006 11.5004 25.5006C11.5004 26.2006 11.6004 26.8006 11.9004 27.1006C12.2004 27.4006 12.6004 27.7006 13.2004 27.7006C13.8004 27.7006 14.3004 27.5006 14.8004 27.2006L14.9004 28.4006C14.6004 28.6006 14.4004 28.7006 14.1004 28.8006C13.8004 28.9006 13.4004 28.9006 13.0004 28.9006Z" fill="white"/>
<path d="M19.1008 28.9002C18.1008 28.9002 17.3008 28.6002 16.7008 28.0002C16.1008 27.4002 15.8008 26.6002 15.8008 25.5002C15.8008 24.5002 16.1008 23.7002 16.6008 23.1002C17.1008 22.5002 17.9008 22.2002 18.8008 22.2002C19.7008 22.2002 20.4008 22.5002 20.9008 23.0002C21.4008 23.5002 21.6008 24.3002 21.6008 25.2002C21.6008 25.3002 21.6008 25.4002 21.6008 25.5002C21.6008 25.6002 21.6008 25.8002 21.6008 25.8002H17.3008C17.3008 26.4002 17.5008 26.9002 17.8008 27.2002C18.1008 27.5002 18.5008 27.7002 19.1008 27.7002C19.8008 27.7002 20.5008 27.5002 21.1008 27.1002L21.3008 28.2002C20.7008 28.7002 20.0008 28.9002 19.1008 28.9002ZM17.4008 24.9002H20.2008C20.2008 24.4002 20.1008 24.0002 19.8008 23.7002C19.5008 23.4002 19.2008 23.3002 18.8008 23.3002C18.4008 23.3002 18.1008 23.4002 17.8008 23.7002C17.5008 24.0002 17.4008 24.4002 17.4008 24.9002Z" fill="white"/>
<path d="M22.9004 28.8002V22.4002H24.1004L24.3004 23.2002C25.0004 22.6002 25.7004 22.2002 26.5004 22.2002C27.3004 22.2002 27.8004 22.4002 28.2004 22.8002C28.6004 23.2002 28.8004 23.9002 28.8004 24.7002V28.8002H27.3004V24.9002C27.3004 24.4002 27.2004 24.0002 27.0004 23.7002C26.8004 23.4002 26.5004 23.3002 26.1004 23.3002C25.8004 23.3002 25.5004 23.4002 25.2004 23.6002C24.9004 23.8002 24.7004 24.0002 24.6004 24.2002C24.5004 24.5002 24.5004 25.0002 24.5004 25.6002V28.7002H22.9004V28.8002Z" fill="white"/>
<path d="M32.3 28.9002C31.4 28.9002 30.6 28.7002 30 28.4002L30.2 27.2002C30.5 27.3002 30.8 27.5002 31.2 27.6002C31.6 27.7002 32 27.8002 32.3 27.8002C32.6 27.8002 32.9 27.7002 33.1 27.6002C33.3 27.5002 33.4 27.3002 33.4 27.0002C33.4 26.8002 33.3 26.6002 33.1 26.5002C32.9 26.4002 32.6 26.2002 32.1 26.0002C31.9 25.9002 31.8 25.9002 31.8 25.9002C31.2 25.7002 30.8 25.4002 30.5 25.1002C30.2 24.8002 30 24.5002 30 24.0002C30 23.4002 30.2 23.0002 30.6 22.7002C31 22.4002 31.6 22.2002 32.4 22.2002C33.2 22.2002 33.9 22.4002 34.6 22.7002L34.2 23.8002C33.6 23.5002 33 23.4002 32.4 23.4002C32.1 23.4002 31.9 23.5002 31.7 23.6002C31.5 23.7002 31.4 23.9002 31.4 24.1002C31.4 24.3002 31.5 24.5002 31.7 24.6002C31.9 24.7002 32.2 24.9002 32.7 25.0002C32.7 25.0002 32.8 25.0002 32.9 25.1002C33 25.2002 33.1 25.2002 33.1 25.2002C33.7 25.4002 34.1 25.7002 34.4 26.0002C34.7 26.3002 34.8 26.7002 34.8 27.2002C34.8 27.8002 34.6 28.3002 34.1 28.7002C33.6 29.1002 33.1 28.9002 32.3 28.9002Z" fill="white"/>
<path d="M39.0012 28.9002C38.0012 28.9002 37.2012 28.6002 36.6012 28.0002C36.0012 27.4002 35.7012 26.6002 35.7012 25.5002C35.7012 24.5002 36.0012 23.7002 36.5012 23.1002C37.0012 22.5002 37.8012 22.2002 38.7012 22.2002C39.6012 22.2002 40.3012 22.5002 40.8012 23.0002C41.3012 23.5002 41.5012 24.3002 41.5012 25.2002C41.5012 25.3002 41.5012 25.4002 41.5012 25.5002C41.5012 25.6002 41.5012 25.8002 41.5012 25.8002H37.2012C37.2012 26.4002 37.4012 26.9002 37.7012 27.2002C38.0012 27.5002 38.4012 27.7002 39.0012 27.7002C39.7012 27.7002 40.4012 27.5002 41.0012 27.1002L41.2012 28.2002C40.6012 28.7002 39.8012 28.9002 39.0012 28.9002ZM37.3012 24.9002H40.1012C40.1012 24.4002 40.0012 24.0002 39.7012 23.7002C39.5012 23.4002 39.1012 23.3002 38.7012 23.3002C38.3012 23.3002 38.0012 23.4002 37.7012 23.7002C37.4012 24.0002 37.3012 24.4002 37.3012 24.9002Z" fill="white"/>
<path d="M45.2 28.9004C44.4 28.9004 43.7 28.6004 43.2 28.0004C42.7 27.4004 42.5 26.6004 42.5 25.5004C42.5 24.5004 42.7 23.7004 43.2 23.1004C43.7 22.5004 44.3 22.2004 45.2 22.2004C46.1 22.2004 46.8 22.5004 47.1 23.2004C47.1 22.8004 47 22.4004 47 22.1004V20.0004L48.5 19.9004V28.8004H47.2L47 27.9004C46.9 28.0004 46.9 28.1004 46.8 28.2004C46.7 28.3004 46.7 28.4004 46.6 28.5004C46.5 28.6004 46.4 28.7004 46.2 28.7004C46 28.7004 45.9 28.8004 45.7 28.9004C45.5 29.0004 45.4 28.9004 45.2 28.9004ZM45.5 27.8004C46.5 27.8004 47.1 27.1004 47.1 25.7004C47.1 24.9004 47 24.3004 46.7 24.0004C46.4 23.7004 46 23.5004 45.5 23.5004C45 23.5004 44.7 23.7004 44.4 24.1004C44.1 24.5004 44 24.8004 44 25.6004C44 26.3004 44.1 26.9004 44.4 27.2004C44.7 27.5004 45 27.8004 45.5 27.8004Z" fill="white"/>
<path d="M53.5 28.8002V20.2002H56.2C57.3 20.2002 58.2 20.4002 58.7 20.7002C59.2 21.0002 59.5 21.6002 59.5 22.4002C59.5 22.5002 59.5 22.6002 59.5 22.8002C59.5 23.0002 59.4 23.1002 59.4 23.2002C59.4 23.3002 59.3 23.5002 59.2 23.6002C59.1 23.7002 59 23.8002 58.8 24.0002C58.6 24.2002 58.5 24.2002 58.2 24.3002C58.7 24.4002 59.1 24.7002 59.4 25.0002C59.7 25.3002 59.8 25.8002 59.8 26.4002C59.8 27.2002 59.5 27.8002 58.9 28.3002C58.3 28.8002 57.5 28.9002 56.5 28.9002H53.5V28.8002ZM55 23.8002H56.4C57.5 23.8002 58 23.4002 58 22.6002C58 22.2002 57.8 21.8002 57.5 21.7002C57.2 21.6002 56.7 21.4002 56.1 21.4002H55.1V23.8002H55ZM55 27.7002H56.4C57.6 27.7002 58.2 27.2002 58.2 26.3002C58.2 25.8002 58 25.5002 57.7 25.3002C57.4 25.1002 56.9 25.0002 56.3 25.0002H55V27.7002Z" fill="white"/>
<path d="M61.5008 31.5008C61.3008 31.5008 61.0008 31.5008 60.7008 31.5008L60.6008 30.3008C60.8008 30.3008 61.0008 30.3008 61.3008 30.3008C61.7008 30.3008 61.9008 30.2008 62.2008 30.1008C62.5008 30.0008 62.6008 29.7008 62.7008 29.3008C62.7008 29.3008 62.8008 29.0008 62.9008 28.6008L60.3008 22.3008H61.9008L63.6008 27.0008C63.7008 26.5008 64.0008 25.7008 64.4008 24.4008C64.8008 23.1008 65.1008 22.4008 65.1008 22.3008H66.7008C64.9008 27.0008 64.0008 29.4008 64.0008 29.4008C63.7008 30.1008 63.4008 30.6008 63.0008 30.9008C62.6008 31.2008 62.1008 31.5008 61.5008 31.5008Z" fill="white"/>
</g>
<defs>
<clipPath id="clip0_1_706">
<rect width="166.4" height="60" fill="white"/>
</clipPath>
</defs>
</svg>
