<svg width="263" height="61" viewBox="0 0 263 61" fill="none" xmlns="http://www.w3.org/2000/svg">
<path d="M118.737 31.454L114.475 42.8327L109.354 28.9736H103.732L111.682 48.3119L107.385 58.1957H112.72L122.556 34.7945C120.872 34.2488 119.498 33.029 118.737 31.4555V31.454Z" fill="white"/>
<path d="M9.51117 29.6717C10.6205 27.7264 12.1363 26.2103 14.0587 25.1235C15.9796 24.0368 18.1347 23.4941 20.5226 23.4941C23.3155 23.4941 25.7623 24.2106 27.863 25.642C29.9638 27.0749 31.4312 29.0565 32.267 31.5868H26.5013C25.9286 30.3927 25.123 29.4979 24.0847 28.9008C23.0465 28.3038 21.8465 28.006 20.4863 28.006C19.0294 28.006 17.7342 28.3461 16.6007 29.0263C15.4672 29.7064 14.5831 30.6678 13.9514 31.9087C13.3182 33.1497 13.0023 34.6068 13.0023 36.2785C13.0023 37.9502 13.3182 39.3756 13.9514 40.6301C14.5831 41.8832 15.4672 42.8505 16.6007 43.5307C17.7342 44.2109 19.0294 44.551 20.4863 44.551C21.8465 44.551 23.0465 44.2472 24.0847 43.638C25.123 43.0289 25.9286 42.128 26.5013 40.9339H32.267C31.4312 43.4884 29.9698 45.476 27.8812 46.8968C25.7925 48.3177 23.3397 49.0281 20.5226 49.0281C18.1347 49.0281 15.9811 48.4854 14.0587 47.3987C12.1378 46.3119 10.622 44.8019 9.51117 42.8687C8.40187 40.9354 7.8457 38.7392 7.8457 36.28C7.8457 33.8208 8.40035 31.6185 9.51117 29.6732V29.6717Z" fill="white"/>
<path d="M35.0422 33.4852C35.8417 31.9344 36.9268 30.7403 38.3006 29.9044C39.6729 29.0685 41.2069 28.6514 42.9026 28.6514C44.3821 28.6514 45.6773 28.9506 46.7881 29.5462C47.8974 30.1432 48.7876 30.8944 49.4556 31.8029V28.9733H54.5049V48.8134H49.4556V45.9128C48.8118 46.8439 47.9216 47.6133 46.7881 48.2224C45.6547 48.8315 44.3474 49.1353 42.8678 49.1353C41.1963 49.1353 39.6744 48.7061 38.3021 47.846C36.9283 46.986 35.8432 45.7753 35.0437 44.2108C34.2442 42.6479 33.8438 40.8508 33.8438 38.8208C33.8438 36.7908 34.2427 35.0375 35.0437 33.4852H35.0422ZM48.7377 35.76C48.2602 34.8894 47.6148 34.2198 46.8048 33.7542C45.9932 33.2887 45.1212 33.0559 44.1902 33.0559C43.2592 33.0559 42.3993 33.2826 41.6119 33.7361C40.8245 34.1895 40.1852 34.8531 39.6955 35.7237C39.2059 36.5959 38.9611 37.6282 38.9611 38.8208C38.9611 40.0134 39.2059 41.0594 39.6955 41.9542C40.1852 42.849 40.829 43.5367 41.6285 44.0128C42.428 44.4905 43.2819 44.7293 44.1887 44.7293C45.0955 44.7293 45.9902 44.4965 46.8032 44.031C47.6148 43.5654 48.2586 42.8973 48.7362 42.0252C49.2138 41.1546 49.4526 40.1086 49.4526 38.8918C49.4526 37.6751 49.2138 36.6306 48.7362 35.7585L48.7377 35.76Z" fill="white"/>
<path d="M62.9896 22.3125V48.8138H57.9766V22.3125H62.9896Z" fill="white"/>
<path d="M71.5091 22.3125V48.8138H66.4961V22.3125H71.5091Z" fill="white"/>
<path d="M102.517 23.8164V48.8122H97.5035V32.5544L90.8069 48.8122H87.012L80.2806 32.5544V48.8122H75.2676V23.8164H80.9607L88.9102 42.4019L96.8597 23.8164H102.518H102.517Z" fill="white"/>
<path d="M168.511 47.8642C166.983 47.0162 165.783 45.8176 164.913 44.2653C164.041 42.7129 163.605 40.9233 163.605 38.8934C163.605 36.8634 164.053 35.0738 164.948 33.5215C165.842 31.9691 167.066 30.7705 168.617 29.9225C170.169 29.0746 171.9 28.6514 173.81 28.6514C175.72 28.6514 177.451 29.0761 179.003 29.9225C180.553 30.7705 181.777 31.9706 182.672 33.5215C183.567 35.0738 184.014 36.8649 184.014 38.8934C184.014 40.9218 183.555 42.7129 182.636 44.2653C181.717 45.8176 180.475 47.0177 178.912 47.8642C177.348 48.7121 175.599 49.1353 173.666 49.1353C171.733 49.1353 170.038 48.7121 168.51 47.8642H168.511ZM176.228 44.1035C177.027 43.6622 177.665 43.0001 178.143 42.1159C178.62 41.2332 178.859 40.1585 178.859 38.8934C178.859 37.007 178.363 35.5575 177.374 34.5417C176.382 33.5275 175.172 33.0196 173.739 33.0196C172.306 33.0196 171.106 33.5275 170.14 34.5417C169.173 35.5575 168.69 37.007 168.69 38.8934C168.69 40.7797 169.161 42.2293 170.104 43.245C171.047 44.2607 172.235 44.7671 173.666 44.7671C174.573 44.7671 175.427 44.5464 176.226 44.105L176.228 44.1035Z" fill="white"/>
<path d="M186.237 33.5033C187.073 31.9631 188.23 30.7705 189.71 29.9225C191.189 29.0746 192.885 28.6514 194.794 28.6514C197.253 28.6514 199.287 29.2666 200.898 30.4954C202.509 31.7258 203.59 33.4504 204.138 35.6708H198.731C198.444 34.8108 197.962 34.1366 197.28 33.6469C196.6 33.1572 195.758 32.9123 194.756 32.9123C193.323 32.9123 192.19 33.4308 191.354 34.4707C190.518 35.5091 190.101 36.9843 190.101 38.8934C190.101 40.8024 190.518 42.2414 191.354 43.2798C192.19 44.3182 193.323 44.8381 194.756 44.8381C196.784 44.8381 198.11 43.9312 198.731 42.1159H204.138C203.588 44.2653 202.503 45.9718 200.88 47.2369C199.255 48.502 197.227 49.1353 194.792 49.1353C192.882 49.1353 191.188 48.7121 189.708 47.8642C188.229 47.0162 187.071 45.8221 186.235 44.2834C185.4 42.7432 184.982 40.9475 184.982 38.8934C184.982 36.8392 185.4 35.0435 186.235 33.5033H186.237Z" fill="white"/>
<path d="M212.232 33.0911V42.6892C212.232 43.3573 212.392 43.841 212.715 44.1402C213.037 44.4395 213.58 44.5876 214.345 44.5876H216.672V48.8138H213.521C209.295 48.8138 207.184 46.7612 207.184 42.6544V33.0926H204.82V28.9737H207.184V24.0674H212.233V28.9737H216.674V33.0926H212.233L212.232 33.0911Z" fill="white"/>
<path d="M222.507 47.8642C220.979 47.0162 219.779 45.8176 218.909 44.2653C218.037 42.7129 217.602 40.9233 217.602 38.8934C217.602 36.8634 218.049 35.0738 218.944 33.5215C219.838 31.9691 221.062 30.7705 222.613 29.9225C224.165 29.0746 225.896 28.6514 227.806 28.6514C229.716 28.6514 231.447 29.0761 232.999 29.9225C234.549 30.7705 235.774 31.9706 236.668 33.5215C237.563 35.0738 238.01 36.8649 238.01 38.8934C238.01 40.9218 237.551 42.7129 236.632 44.2653C235.713 45.8176 234.471 47.0177 232.908 47.8642C231.344 48.7121 229.595 49.1353 227.662 49.1353C225.729 49.1353 224.034 48.7121 222.506 47.8642H222.507ZM230.224 44.1035C231.024 43.6622 231.661 43.0001 232.139 42.1159C232.616 41.2332 232.855 40.1585 232.855 38.8934C232.855 37.007 232.36 35.5575 231.37 34.5417C230.378 33.5275 229.168 33.0196 227.735 33.0196C226.302 33.0196 225.102 33.5275 224.136 34.5417C223.169 35.5575 222.686 37.007 222.686 38.8934C222.686 40.7797 223.157 42.2293 224.1 43.245C225.043 44.2607 226.231 44.7671 227.662 44.7671C228.569 44.7671 229.423 44.5464 230.223 44.105L230.224 44.1035Z" fill="white"/>
<path d="M247.804 29.5833C248.842 28.9862 250.03 28.6885 251.366 28.6885V33.9531H250.041C248.466 33.9531 247.278 34.3234 246.479 35.0625C245.679 35.8032 245.279 37.0925 245.279 38.9305V48.8142H240.266V28.9742H245.279V32.0546C245.922 31.0041 246.764 30.1803 247.803 29.5833H247.804Z" fill="white"/>
<path d="M125.43 32.5153C127.374 32.1238 128.663 30.236 128.485 28.1576C128.361 26.7051 126.759 24.6615 124.891 24.8489C124.939 25.2057 124.988 25.5594 125.028 25.8571C126.837 26.758 127.431 27.6634 127.223 29.1129C127.055 30.2753 126.115 31.1822 124.886 31.3635C123.795 31.5253 122.612 30.8784 122.107 29.8415C121.504 28.605 121.862 27.488 123.363 26.04C123.295 25.7589 123.218 25.4399 123.121 25.0349C121.111 25.8813 120.176 27.872 120.771 29.7976C121.391 31.7989 123.339 32.9355 125.43 32.5138V32.5153Z" fill="white"/>
<path d="M154.061 38.3315C153.849 38.3482 153.624 38.3542 153.352 38.3542C153.16 38.3542 152.968 38.3497 152.775 38.3466H152.704C149.477 43.7473 142.696 53.0672 132.494 54.3021C130.032 54.5999 127.658 55.1849 125.186 55.0413C124.545 55.0035 123.893 54.8826 123.278 54.6951C120.89 53.962 120.47 52.4248 120.961 50.4206C121.129 49.7359 121.45 49.0632 121.818 48.4571C124.014 44.8356 127.18 42.3219 131.178 40.3766C130.963 41.1067 130.814 41.6342 130.653 42.1587C130.303 43.315 130.407 44.4063 131.214 45.3389C131.822 46.0417 132.57 46.4619 133.616 46.1491C133.941 43.7306 134.911 41.5526 135.742 39.2792C135.771 39.2777 135.799 39.2777 135.828 39.2762C138.799 39.5196 141.683 39.0873 144.354 37.3793C144.697 37.7405 144.937 38.0322 145.216 38.2801C145.717 38.723 146.288 39.0117 146.988 38.9225C148.003 38.7925 149.02 38.6671 150.036 38.5295C150.706 38.4388 151.372 38.3285 152.11 38.2167C152.069 37.8887 152.039 37.6393 152.005 37.3672C151.664 37.3672 151.392 37.34 151.127 37.3717C149.873 37.5229 148.611 37.6362 147.372 37.8705C146.497 38.0368 145.88 37.742 145.442 37.0619C145.133 36.5827 144.908 36.0386 144.718 35.4974C144.467 34.7855 144.669 34.1855 145.233 33.6519C146.176 32.7601 147.075 31.8199 147.987 30.8934C148.17 30.7075 148.322 30.4898 148.531 30.2359C148.281 30.0273 148.088 29.864 147.842 29.6585C146.877 30.6228 146.013 31.5978 145.032 32.4366C143.911 33.3965 143.404 34.5044 143.72 35.9615C143.732 36.0159 143.676 36.0854 143.592 36.3016C141.515 37.3672 139.304 37.7965 136.942 37.7315V37.7269C136.808 37.7239 136.673 37.7194 136.539 37.7179C136.508 37.7179 136.478 37.7133 136.448 37.7118C136.542 37.4594 136.581 37.3415 136.628 37.2266C137.35 35.4566 138.045 33.6731 138.801 31.9182C141.001 26.8048 143.228 21.7034 145.436 16.593C145.567 16.2877 145.7 15.9446 145.693 15.6226C145.665 14.4859 144.477 13.0122 143.234 12.6162C143.033 12.8384 142.742 13.0742 142.566 13.375C142.272 13.8738 142.026 14.4043 141.801 14.9379C138.663 22.3972 135.534 29.861 132.401 37.3233C132.258 37.6634 132.118 38.0035 132.006 38.2756C128.192 39.5468 125.551 41.1414 123.177 43.6641C121.298 45.6593 119.836 47.8994 119.304 50.6503C118.746 53.5343 119.923 55.8786 122.572 57.1408C123.824 57.7378 125.161 58.022 126.528 58.1247C131.25 58.48 135.695 57.5186 139.863 55.2559C144.153 52.9282 147.798 49.8114 151.044 46.202C151.933 45.2134 155.404 40.8089 155.648 40.4446C156.166 39.6707 156.668 38.8893 157.151 38.1003C156.476 38.1592 155.803 38.2076 155.141 38.2544C154.78 38.2801 154.419 38.3058 154.059 38.333L154.061 38.3315Z" fill="white"/>
<path d="M161.262 32.7178C160.811 32.8009 160.448 32.8674 160.102 32.9309C159.934 33.6564 160.185 34.1295 160.653 34.648C160.718 34.6208 160.783 34.5936 160.85 34.5663C160.85 34.5694 160.845 34.5724 160.844 34.5769C160.779 34.7644 160.8 34.9805 160.77 35.183C160.591 36.3771 160.152 36.9243 158.967 37.0513C157.108 37.2493 155.235 37.3279 153.369 37.4518C153.077 37.4715 152.779 37.4428 152.492 37.4805C152.482 37.671 152.47 37.8917 152.459 38.0186C152.985 38.0262 153.514 38.0489 154.037 38.0096C155.8 37.8766 157.572 37.7828 159.32 37.5319C160.797 37.3203 161.559 35.9887 161.217 34.4122C161.324 34.3668 161.433 34.3215 161.553 34.2716C161.451 33.7305 161.368 33.2846 161.262 32.7178Z" fill="white"/>
<path d="M157.026 26.6051C157.289 26.3723 157.565 26.1275 157.91 25.8236C157.529 25.3914 157.23 25.0513 156.866 24.6371C156.754 24.6991 156.65 24.758 156.548 24.814C155.518 23.573 153.999 23.3523 152.923 24.3847C151.647 25.6075 150.482 26.9452 149.289 28.2511C148.936 28.6381 148.629 29.0689 148.309 29.4875C148.414 29.5571 148.596 29.684 148.753 29.7929C148.96 29.5903 149.12 29.3379 149.317 29.1202C150.565 27.7266 151.782 26.3013 153.084 24.9591C153.914 24.1035 154.615 24.096 155.667 24.6915C155.844 24.7928 156.001 24.9424 156.19 25.0059C156.193 25.0059 156.198 25.0059 156.202 25.0074C156.14 25.0422 156.078 25.077 156.016 25.1117C156.136 25.7995 156.353 26.2892 157.029 26.6036L157.026 26.6051Z" fill="white"/>
<path d="M162.917 11.8606C161.366 7.31696 158.348 4.31813 153.604 3.21926C150.929 2.59954 148.24 2.72348 145.567 3.25856C140.475 4.27731 135.949 6.51737 131.874 9.69457C129.707 11.3844 127.788 13.3313 126.255 15.6288C123.975 19.0478 122.767 22.7223 123.684 26.8472C122.643 27.9415 122.429 28.7184 122.912 29.583C123.311 30.2949 124.105 30.6607 124.912 30.5035C125.732 30.3433 126.325 29.7115 126.415 28.9013C126.526 27.9037 126.083 27.3157 124.689 26.6371C124.643 26.4633 124.572 26.2698 124.54 26.0718C124.232 24.1098 124.682 22.2658 125.471 20.4913C126.456 18.2724 127.937 16.4011 129.65 14.7052C133.915 10.4836 138.985 7.62531 144.686 5.83115C147.341 4.99528 150.031 4.3801 152.842 4.6038C157.131 4.9454 159.655 7.25801 160.453 11.2257C160.967 13.7847 160.802 16.3377 160.378 18.8709C159.438 24.4802 157.56 29.7689 154.731 34.7116C154.515 35.0894 154.075 35.9555 153.413 37.1254C153.905 37.0937 154.397 37.0635 154.89 37.0332C155.883 36.9743 156.9 36.9123 157.911 36.8262C158.559 35.7107 159.169 34.5801 159.731 33.4298C159.723 33.253 159.738 33.0655 159.785 32.8585L159.833 32.6514L160.124 32.5985C161.866 28.8545 163.115 24.9124 163.63 20.6802C163.991 17.7071 163.897 14.7339 162.917 11.8606Z" fill="white"/>
</svg>
