<svg width="162" height="177" viewBox="0 0 162 177" fill="none" xmlns="http://www.w3.org/2000/svg">
<path d="M5.21931 2.60294C5.21931 4.04051 4.05669 5.20588 2.62253 5.20588C1.18837 5.20588 0.0257568 4.04051 0.0257568 2.60294C0.0257568 1.16538 1.18837 0 2.62253 0C4.05669 0 5.21931 1.16538 5.21931 2.60294Z" fill="#0976CF"/>
<path d="M20.7999 2.60294C20.7999 4.04051 19.6373 5.20588 18.2032 5.20588C16.769 5.20588 15.6064 4.04051 15.6064 2.60294C15.6064 1.16538 16.769 0 18.2032 0C19.6373 0 20.7999 1.16538 20.7999 2.60294Z" fill="#0976CF"/>
<path d="M36.3806 2.60294C36.3806 4.04051 35.218 5.20588 33.7838 5.20588C32.3497 5.20588 31.187 4.04051 31.187 2.60294C31.187 1.16538 32.3497 0 33.7838 0C35.218 0 36.3806 1.16538 36.3806 2.60294Z" fill="#0976CF"/>
<path d="M51.9612 2.60294C51.9612 4.04051 50.7986 5.20588 49.3645 5.20588C47.9303 5.20588 46.7677 4.04051 46.7677 2.60294C46.7677 1.16538 47.9303 0 49.3645 0C50.7986 0 51.9612 1.16538 51.9612 2.60294Z" fill="#0976CF"/>
<path d="M67.5419 2.60294C67.5419 4.04051 66.3793 5.20588 64.9451 5.20588C63.511 5.20588 62.3483 4.04051 62.3483 2.60294C62.3483 1.16538 63.511 0 64.9451 0C66.3793 0 67.5419 1.16538 67.5419 2.60294Z" fill="#0976CF"/>
<path d="M83.1225 2.60294C83.1225 4.04051 81.9599 5.20588 80.5258 5.20588C79.0916 5.20588 77.929 4.04051 77.929 2.60294C77.929 1.16538 79.0916 0 80.5258 0C81.9599 0 83.1225 1.16538 83.1225 2.60294Z" fill="#0976CF"/>
<path d="M98.7032 2.60294C98.7032 4.04051 97.5406 5.20588 96.1064 5.20588C94.6722 5.20588 93.5096 4.04051 93.5096 2.60294C93.5096 1.16538 94.6722 0 96.1064 0C97.5406 0 98.7032 1.16538 98.7032 2.60294Z" fill="#0976CF"/>
<path d="M114.284 2.60294C114.284 4.04051 113.121 5.20588 111.687 5.20588C110.253 5.20588 109.09 4.04051 109.09 2.60294C109.09 1.16538 110.253 0 111.687 0C113.121 0 114.284 1.16538 114.284 2.60294Z" fill="#0976CF"/>
<path d="M129.864 2.60294C129.864 4.04051 128.702 5.20588 127.268 5.20588C125.834 5.20588 124.671 4.04051 124.671 2.60294C124.671 1.16538 125.834 0 127.268 0C128.702 0 129.864 1.16538 129.864 2.60294Z" fill="#0976CF"/>
<path d="M145.445 2.60294C145.445 4.04051 144.282 5.20588 142.848 5.20588C141.414 5.20588 140.252 4.04051 140.252 2.60294C140.252 1.16538 141.414 0 142.848 0C144.282 0 145.445 1.16538 145.445 2.60294Z" fill="#0976CF"/>
<path d="M161.026 2.60294C161.026 4.04051 159.863 5.20588 158.429 5.20588C156.995 5.20588 155.832 4.04051 155.832 2.60294C155.832 1.16538 156.995 0 158.429 0C159.863 0 161.026 1.16538 161.026 2.60294Z" fill="#0976CF"/>
<path d="M5.21931 18.2206C5.21931 19.6582 4.05669 20.8235 2.62253 20.8235C1.18837 20.8235 0.0257568 19.6582 0.0257568 18.2206C0.0257568 16.783 1.18837 15.6176 2.62253 15.6176C4.05669 15.6176 5.21931 16.783 5.21931 18.2206Z" fill="#0976CF"/>
<path d="M20.7999 18.2206C20.7999 19.6582 19.6373 20.8235 18.2032 20.8235C16.769 20.8235 15.6064 19.6582 15.6064 18.2206C15.6064 16.783 16.769 15.6176 18.2032 15.6176C19.6373 15.6176 20.7999 16.783 20.7999 18.2206Z" fill="#0976CF"/>
<path d="M36.3806 18.2206C36.3806 19.6582 35.218 20.8235 33.7838 20.8235C32.3497 20.8235 31.187 19.6582 31.187 18.2206C31.187 16.783 32.3497 15.6176 33.7838 15.6176C35.218 15.6176 36.3806 16.783 36.3806 18.2206Z" fill="#0976CF"/>
<path d="M51.9612 18.2206C51.9612 19.6582 50.7986 20.8235 49.3645 20.8235C47.9303 20.8235 46.7677 19.6582 46.7677 18.2206C46.7677 16.783 47.9303 15.6176 49.3645 15.6176C50.7986 15.6176 51.9612 16.783 51.9612 18.2206Z" fill="#0976CF"/>
<path d="M67.5419 18.2206C67.5419 19.6582 66.3793 20.8235 64.9451 20.8235C63.511 20.8235 62.3483 19.6582 62.3483 18.2206C62.3483 16.783 63.511 15.6176 64.9451 15.6176C66.3793 15.6176 67.5419 16.783 67.5419 18.2206Z" fill="#0976CF"/>
<path d="M83.1225 18.2206C83.1225 19.6582 81.9599 20.8235 80.5258 20.8235C79.0916 20.8235 77.929 19.6582 77.929 18.2206C77.929 16.783 79.0916 15.6176 80.5258 15.6176C81.9599 15.6176 83.1225 16.783 83.1225 18.2206Z" fill="#0976CF"/>
<path d="M98.7032 18.2206C98.7032 19.6582 97.5406 20.8235 96.1064 20.8235C94.6722 20.8235 93.5096 19.6582 93.5096 18.2206C93.5096 16.783 94.6722 15.6176 96.1064 15.6176C97.5406 15.6176 98.7032 16.783 98.7032 18.2206Z" fill="#0976CF"/>
<path d="M114.284 18.2206C114.284 19.6582 113.121 20.8235 111.687 20.8235C110.253 20.8235 109.09 19.6582 109.09 18.2206C109.09 16.783 110.253 15.6176 111.687 15.6176C113.121 15.6176 114.284 16.783 114.284 18.2206Z" fill="#0976CF"/>
<path d="M129.864 18.2206C129.864 19.6582 128.702 20.8235 127.268 20.8235C125.834 20.8235 124.671 19.6582 124.671 18.2206C124.671 16.783 125.834 15.6176 127.268 15.6176C128.702 15.6176 129.864 16.783 129.864 18.2206Z" fill="#0976CF"/>
<path d="M145.445 18.2206C145.445 19.6582 144.282 20.8235 142.848 20.8235C141.414 20.8235 140.252 19.6582 140.252 18.2206C140.252 16.783 141.414 15.6176 142.848 15.6176C144.282 15.6176 145.445 16.783 145.445 18.2206Z" fill="#0976CF"/>
<path d="M161.026 18.2206C161.026 19.6582 159.863 20.8235 158.429 20.8235C156.995 20.8235 155.832 19.6582 155.832 18.2206C155.832 16.783 156.995 15.6176 158.429 15.6176C159.863 15.6176 161.026 16.783 161.026 18.2206Z" fill="#0976CF"/>
<path d="M5.21931 33.8382C5.21931 35.2758 4.05669 36.4412 2.62253 36.4412C1.18837 36.4412 0.0257568 35.2758 0.0257568 33.8382C0.0257568 32.4007 1.18837 31.2353 2.62253 31.2353C4.05669 31.2353 5.21931 32.4007 5.21931 33.8382Z" fill="#0976CF"/>
<path d="M20.7999 33.8382C20.7999 35.2758 19.6373 36.4412 18.2032 36.4412C16.769 36.4412 15.6064 35.2758 15.6064 33.8382C15.6064 32.4007 16.769 31.2353 18.2032 31.2353C19.6373 31.2353 20.7999 32.4007 20.7999 33.8382Z" fill="#0976CF"/>
<path d="M36.3806 33.8382C36.3806 35.2758 35.218 36.4412 33.7838 36.4412C32.3497 36.4412 31.187 35.2758 31.187 33.8382C31.187 32.4007 32.3497 31.2353 33.7838 31.2353C35.218 31.2353 36.3806 32.4007 36.3806 33.8382Z" fill="#0976CF"/>
<path d="M51.9612 33.8382C51.9612 35.2758 50.7986 36.4412 49.3645 36.4412C47.9303 36.4412 46.7677 35.2758 46.7677 33.8382C46.7677 32.4007 47.9303 31.2353 49.3645 31.2353C50.7986 31.2353 51.9612 32.4007 51.9612 33.8382Z" fill="#0976CF"/>
<path d="M67.5419 33.8382C67.5419 35.2758 66.3793 36.4412 64.9451 36.4412C63.511 36.4412 62.3483 35.2758 62.3483 33.8382C62.3483 32.4007 63.511 31.2353 64.9451 31.2353C66.3793 31.2353 67.5419 32.4007 67.5419 33.8382Z" fill="#0976CF"/>
<path d="M83.1225 33.8382C83.1225 35.2758 81.9599 36.4412 80.5258 36.4412C79.0916 36.4412 77.929 35.2758 77.929 33.8382C77.929 32.4007 79.0916 31.2353 80.5258 31.2353C81.9599 31.2353 83.1225 32.4007 83.1225 33.8382Z" fill="#0976CF"/>
<path d="M98.7032 33.8382C98.7032 35.2758 97.5406 36.4412 96.1064 36.4412C94.6722 36.4412 93.5096 35.2758 93.5096 33.8382C93.5096 32.4007 94.6722 31.2353 96.1064 31.2353C97.5406 31.2353 98.7032 32.4007 98.7032 33.8382Z" fill="#0976CF"/>
<path d="M114.284 33.8382C114.284 35.2758 113.121 36.4412 111.687 36.4412C110.253 36.4412 109.09 35.2758 109.09 33.8382C109.09 32.4007 110.253 31.2353 111.687 31.2353C113.121 31.2353 114.284 32.4007 114.284 33.8382Z" fill="#0976CF"/>
<path d="M129.864 33.8382C129.864 35.2758 128.702 36.4412 127.268 36.4412C125.834 36.4412 124.671 35.2758 124.671 33.8382C124.671 32.4007 125.834 31.2353 127.268 31.2353C128.702 31.2353 129.864 32.4007 129.864 33.8382Z" fill="#0976CF"/>
<path d="M145.445 33.8382C145.445 35.2758 144.282 36.4412 142.848 36.4412C141.414 36.4412 140.252 35.2758 140.252 33.8382C140.252 32.4007 141.414 31.2353 142.848 31.2353C144.282 31.2353 145.445 32.4007 145.445 33.8382Z" fill="#0976CF"/>
<path d="M161.026 33.8382C161.026 35.2758 159.863 36.4412 158.429 36.4412C156.995 36.4412 155.832 35.2758 155.832 33.8382C155.832 32.4007 156.995 31.2353 158.429 31.2353C159.863 31.2353 161.026 32.4007 161.026 33.8382Z" fill="#0976CF"/>
<path d="M5.21931 49.4559C5.21931 50.8934 4.05669 52.0588 2.62253 52.0588C1.18837 52.0588 0.0257568 50.8934 0.0257568 49.4559C0.0257568 48.0183 1.18837 46.8529 2.62253 46.8529C4.05669 46.8529 5.21931 48.0183 5.21931 49.4559Z" fill="#0976CF"/>
<path d="M20.7999 49.4559C20.7999 50.8934 19.6373 52.0588 18.2032 52.0588C16.769 52.0588 15.6064 50.8934 15.6064 49.4559C15.6064 48.0183 16.769 46.8529 18.2032 46.8529C19.6373 46.8529 20.7999 48.0183 20.7999 49.4559Z" fill="#0976CF"/>
<path d="M36.3806 49.4559C36.3806 50.8934 35.218 52.0588 33.7838 52.0588C32.3497 52.0588 31.187 50.8934 31.187 49.4559C31.187 48.0183 32.3497 46.8529 33.7838 46.8529C35.218 46.8529 36.3806 48.0183 36.3806 49.4559Z" fill="#0976CF"/>
<path d="M51.9612 49.4559C51.9612 50.8934 50.7986 52.0588 49.3645 52.0588C47.9303 52.0588 46.7677 50.8934 46.7677 49.4559C46.7677 48.0183 47.9303 46.8529 49.3645 46.8529C50.7986 46.8529 51.9612 48.0183 51.9612 49.4559Z" fill="#0976CF"/>
<path d="M67.5419 49.4559C67.5419 50.8934 66.3793 52.0588 64.9451 52.0588C63.511 52.0588 62.3483 50.8934 62.3483 49.4559C62.3483 48.0183 63.511 46.8529 64.9451 46.8529C66.3793 46.8529 67.5419 48.0183 67.5419 49.4559Z" fill="#0976CF"/>
<path d="M83.1225 49.4559C83.1225 50.8934 81.9599 52.0588 80.5258 52.0588C79.0916 52.0588 77.929 50.8934 77.929 49.4559C77.929 48.0183 79.0916 46.8529 80.5258 46.8529C81.9599 46.8529 83.1225 48.0183 83.1225 49.4559Z" fill="#0976CF"/>
<path d="M98.7032 49.4559C98.7032 50.8934 97.5406 52.0588 96.1064 52.0588C94.6722 52.0588 93.5096 50.8934 93.5096 49.4559C93.5096 48.0183 94.6722 46.8529 96.1064 46.8529C97.5406 46.8529 98.7032 48.0183 98.7032 49.4559Z" fill="#0976CF"/>
<path d="M114.284 49.4559C114.284 50.8934 113.121 52.0588 111.687 52.0588C110.253 52.0588 109.09 50.8934 109.09 49.4559C109.09 48.0183 110.253 46.8529 111.687 46.8529C113.121 46.8529 114.284 48.0183 114.284 49.4559Z" fill="#0976CF"/>
<path d="M129.864 49.4559C129.864 50.8934 128.702 52.0588 127.268 52.0588C125.834 52.0588 124.671 50.8934 124.671 49.4559C124.671 48.0183 125.834 46.8529 127.268 46.8529C128.702 46.8529 129.864 48.0183 129.864 49.4559Z" fill="#0976CF"/>
<path d="M145.445 49.4559C145.445 50.8934 144.282 52.0588 142.848 52.0588C141.414 52.0588 140.252 50.8934 140.252 49.4559C140.252 48.0183 141.414 46.8529 142.848 46.8529C144.282 46.8529 145.445 48.0183 145.445 49.4559Z" fill="#0976CF"/>
<path d="M161.026 49.4559C161.026 50.8934 159.863 52.0588 158.429 52.0588C156.995 52.0588 155.832 50.8934 155.832 49.4559C155.832 48.0183 156.995 46.8529 158.429 46.8529C159.863 46.8529 161.026 48.0183 161.026 49.4559Z" fill="#0976CF"/>
<path d="M5.21931 65.0735C5.21931 66.5111 4.05669 67.6765 2.62253 67.6765C1.18837 67.6765 0.0257568 66.5111 0.0257568 65.0735C0.0257568 63.636 1.18837 62.4706 2.62253 62.4706C4.05669 62.4706 5.21931 63.636 5.21931 65.0735Z" fill="#0976CF"/>
<path d="M20.7999 65.0735C20.7999 66.5111 19.6373 67.6765 18.2032 67.6765C16.769 67.6765 15.6064 66.5111 15.6064 65.0735C15.6064 63.636 16.769 62.4706 18.2032 62.4706C19.6373 62.4706 20.7999 63.636 20.7999 65.0735Z" fill="#0976CF"/>
<path d="M36.3806 65.0735C36.3806 66.5111 35.218 67.6765 33.7838 67.6765C32.3497 67.6765 31.187 66.5111 31.187 65.0735C31.187 63.636 32.3497 62.4706 33.7838 62.4706C35.218 62.4706 36.3806 63.636 36.3806 65.0735Z" fill="#0976CF"/>
<path d="M51.9612 65.0735C51.9612 66.5111 50.7986 67.6765 49.3645 67.6765C47.9303 67.6765 46.7677 66.5111 46.7677 65.0735C46.7677 63.636 47.9303 62.4706 49.3645 62.4706C50.7986 62.4706 51.9612 63.636 51.9612 65.0735Z" fill="#0976CF"/>
<path d="M67.5419 65.0735C67.5419 66.5111 66.3793 67.6765 64.9451 67.6765C63.511 67.6765 62.3483 66.5111 62.3483 65.0735C62.3483 63.636 63.511 62.4706 64.9451 62.4706C66.3793 62.4706 67.5419 63.636 67.5419 65.0735Z" fill="#0976CF"/>
<path d="M83.1225 65.0735C83.1225 66.5111 81.9599 67.6765 80.5258 67.6765C79.0916 67.6765 77.929 66.5111 77.929 65.0735C77.929 63.636 79.0916 62.4706 80.5258 62.4706C81.9599 62.4706 83.1225 63.636 83.1225 65.0735Z" fill="#0976CF"/>
<path d="M98.7032 65.0735C98.7032 66.5111 97.5406 67.6765 96.1064 67.6765C94.6722 67.6765 93.5096 66.5111 93.5096 65.0735C93.5096 63.636 94.6722 62.4706 96.1064 62.4706C97.5406 62.4706 98.7032 63.636 98.7032 65.0735Z" fill="#0976CF"/>
<path d="M114.284 65.0735C114.284 66.5111 113.121 67.6765 111.687 67.6765C110.253 67.6765 109.09 66.5111 109.09 65.0735C109.09 63.636 110.253 62.4706 111.687 62.4706C113.121 62.4706 114.284 63.636 114.284 65.0735Z" fill="#0976CF"/>
<path d="M129.864 65.0735C129.864 66.5111 128.702 67.6765 127.268 67.6765C125.834 67.6765 124.671 66.5111 124.671 65.0735C124.671 63.636 125.834 62.4706 127.268 62.4706C128.702 62.4706 129.864 63.636 129.864 65.0735Z" fill="#0976CF"/>
<path d="M145.445 65.0735C145.445 66.5111 144.282 67.6765 142.848 67.6765C141.414 67.6765 140.252 66.5111 140.252 65.0735C140.252 63.636 141.414 62.4706 142.848 62.4706C144.282 62.4706 145.445 63.636 145.445 65.0735Z" fill="#0976CF"/>
<path d="M161.026 65.0735C161.026 66.5111 159.863 67.6765 158.429 67.6765C156.995 67.6765 155.832 66.5111 155.832 65.0735C155.832 63.636 156.995 62.4706 158.429 62.4706C159.863 62.4706 161.026 63.636 161.026 65.0735Z" fill="#0976CF"/>
<path d="M5.21931 80.6912C5.21931 82.1287 4.05669 83.2941 2.62253 83.2941C1.18837 83.2941 0.0257568 82.1287 0.0257568 80.6912C0.0257568 79.2536 1.18837 78.0882 2.62253 78.0882C4.05669 78.0882 5.21931 79.2536 5.21931 80.6912Z" fill="#0976CF"/>
<path d="M20.7999 80.6912C20.7999 82.1287 19.6373 83.2941 18.2032 83.2941C16.769 83.2941 15.6064 82.1287 15.6064 80.6912C15.6064 79.2536 16.769 78.0882 18.2032 78.0882C19.6373 78.0882 20.7999 79.2536 20.7999 80.6912Z" fill="#0976CF"/>
<path d="M36.3806 80.6912C36.3806 82.1287 35.218 83.2941 33.7838 83.2941C32.3497 83.2941 31.187 82.1287 31.187 80.6912C31.187 79.2536 32.3497 78.0882 33.7838 78.0882C35.218 78.0882 36.3806 79.2536 36.3806 80.6912Z" fill="#0976CF"/>
<path d="M51.9612 80.6912C51.9612 82.1287 50.7986 83.2941 49.3645 83.2941C47.9303 83.2941 46.7677 82.1287 46.7677 80.6912C46.7677 79.2536 47.9303 78.0882 49.3645 78.0882C50.7986 78.0882 51.9612 79.2536 51.9612 80.6912Z" fill="#0976CF"/>
<path d="M67.5419 80.6912C67.5419 82.1287 66.3793 83.2941 64.9451 83.2941C63.511 83.2941 62.3483 82.1287 62.3483 80.6912C62.3483 79.2536 63.511 78.0882 64.9451 78.0882C66.3793 78.0882 67.5419 79.2536 67.5419 80.6912Z" fill="#0976CF"/>
<path d="M83.1225 80.6912C83.1225 82.1287 81.9599 83.2941 80.5258 83.2941C79.0916 83.2941 77.929 82.1287 77.929 80.6912C77.929 79.2536 79.0916 78.0882 80.5258 78.0882C81.9599 78.0882 83.1225 79.2536 83.1225 80.6912Z" fill="#0976CF"/>
<path d="M98.7032 80.6912C98.7032 82.1287 97.5406 83.2941 96.1064 83.2941C94.6722 83.2941 93.5096 82.1287 93.5096 80.6912C93.5096 79.2536 94.6722 78.0882 96.1064 78.0882C97.5406 78.0882 98.7032 79.2536 98.7032 80.6912Z" fill="#0976CF"/>
<path d="M114.284 80.6912C114.284 82.1287 113.121 83.2941 111.687 83.2941C110.253 83.2941 109.09 82.1287 109.09 80.6912C109.09 79.2536 110.253 78.0882 111.687 78.0882C113.121 78.0882 114.284 79.2536 114.284 80.6912Z" fill="#0976CF"/>
<path d="M129.864 80.6912C129.864 82.1287 128.702 83.2941 127.268 83.2941C125.834 83.2941 124.671 82.1287 124.671 80.6912C124.671 79.2536 125.834 78.0882 127.268 78.0882C128.702 78.0882 129.864 79.2536 129.864 80.6912Z" fill="#0976CF"/>
<path d="M145.445 80.6912C145.445 82.1287 144.282 83.2941 142.848 83.2941C141.414 83.2941 140.252 82.1287 140.252 80.6912C140.252 79.2536 141.414 78.0882 142.848 78.0882C144.282 78.0882 145.445 79.2536 145.445 80.6912Z" fill="#0976CF"/>
<path d="M161.026 80.6912C161.026 82.1287 159.863 83.2941 158.429 83.2941C156.995 83.2941 155.832 82.1287 155.832 80.6912C155.832 79.2536 156.995 78.0882 158.429 78.0882C159.863 78.0882 161.026 79.2536 161.026 80.6912Z" fill="#0976CF"/>
<path d="M5.21931 96.3088C5.21931 97.7464 4.05669 98.9118 2.62253 98.9118C1.18837 98.9118 0.0257568 97.7464 0.0257568 96.3088C0.0257568 94.8713 1.18837 93.7059 2.62253 93.7059C4.05669 93.7059 5.21931 94.8713 5.21931 96.3088Z" fill="#0976CF"/>
<path d="M20.7999 96.3088C20.7999 97.7464 19.6373 98.9118 18.2032 98.9118C16.769 98.9118 15.6064 97.7464 15.6064 96.3088C15.6064 94.8713 16.769 93.7059 18.2032 93.7059C19.6373 93.7059 20.7999 94.8713 20.7999 96.3088Z" fill="#0976CF"/>
<path d="M36.3806 96.3088C36.3806 97.7464 35.218 98.9118 33.7838 98.9118C32.3497 98.9118 31.187 97.7464 31.187 96.3088C31.187 94.8713 32.3497 93.7059 33.7838 93.7059C35.218 93.7059 36.3806 94.8713 36.3806 96.3088Z" fill="#0976CF"/>
<path d="M51.9612 96.3088C51.9612 97.7464 50.7986 98.9118 49.3645 98.9118C47.9303 98.9118 46.7677 97.7464 46.7677 96.3088C46.7677 94.8713 47.9303 93.7059 49.3645 93.7059C50.7986 93.7059 51.9612 94.8713 51.9612 96.3088Z" fill="#0976CF"/>
<path d="M67.5419 96.3088C67.5419 97.7464 66.3793 98.9118 64.9451 98.9118C63.511 98.9118 62.3483 97.7464 62.3483 96.3088C62.3483 94.8713 63.511 93.7059 64.9451 93.7059C66.3793 93.7059 67.5419 94.8713 67.5419 96.3088Z" fill="#0976CF"/>
<path d="M83.1225 96.3088C83.1225 97.7464 81.9599 98.9118 80.5258 98.9118C79.0916 98.9118 77.929 97.7464 77.929 96.3088C77.929 94.8713 79.0916 93.7059 80.5258 93.7059C81.9599 93.7059 83.1225 94.8713 83.1225 96.3088Z" fill="#0976CF"/>
<path d="M98.7032 96.3088C98.7032 97.7464 97.5406 98.9118 96.1064 98.9118C94.6722 98.9118 93.5096 97.7464 93.5096 96.3088C93.5096 94.8713 94.6722 93.7059 96.1064 93.7059C97.5406 93.7059 98.7032 94.8713 98.7032 96.3088Z" fill="#0976CF"/>
<path d="M114.284 96.3088C114.284 97.7464 113.121 98.9118 111.687 98.9118C110.253 98.9118 109.09 97.7464 109.09 96.3088C109.09 94.8713 110.253 93.7059 111.687 93.7059C113.121 93.7059 114.284 94.8713 114.284 96.3088Z" fill="#0976CF"/>
<path d="M129.864 96.3088C129.864 97.7464 128.702 98.9118 127.268 98.9118C125.834 98.9118 124.671 97.7464 124.671 96.3088C124.671 94.8713 125.834 93.7059 127.268 93.7059C128.702 93.7059 129.864 94.8713 129.864 96.3088Z" fill="#0976CF"/>
<path d="M145.445 96.3088C145.445 97.7464 144.282 98.9118 142.848 98.9118C141.414 98.9118 140.252 97.7464 140.252 96.3088C140.252 94.8713 141.414 93.7059 142.848 93.7059C144.282 93.7059 145.445 94.8713 145.445 96.3088Z" fill="#0976CF"/>
<path d="M161.026 96.3088C161.026 97.7464 159.863 98.9118 158.429 98.9118C156.995 98.9118 155.832 97.7464 155.832 96.3088C155.832 94.8713 156.995 93.7059 158.429 93.7059C159.863 93.7059 161.026 94.8713 161.026 96.3088Z" fill="#0976CF"/>
<path d="M5.21931 111.926C5.21931 113.364 4.05669 114.529 2.62253 114.529C1.18837 114.529 0.0257568 113.364 0.0257568 111.926C0.0257568 110.489 1.18837 109.324 2.62253 109.324C4.05669 109.324 5.21931 110.489 5.21931 111.926Z" fill="#0976CF"/>
<path d="M20.7999 111.926C20.7999 113.364 19.6373 114.529 18.2032 114.529C16.769 114.529 15.6064 113.364 15.6064 111.926C15.6064 110.489 16.769 109.324 18.2032 109.324C19.6373 109.324 20.7999 110.489 20.7999 111.926Z" fill="#0976CF"/>
<path d="M36.3806 111.926C36.3806 113.364 35.218 114.529 33.7838 114.529C32.3497 114.529 31.187 113.364 31.187 111.926C31.187 110.489 32.3497 109.324 33.7838 109.324C35.218 109.324 36.3806 110.489 36.3806 111.926Z" fill="#0976CF"/>
<path d="M51.9612 111.926C51.9612 113.364 50.7986 114.529 49.3645 114.529C47.9303 114.529 46.7677 113.364 46.7677 111.926C46.7677 110.489 47.9303 109.324 49.3645 109.324C50.7986 109.324 51.9612 110.489 51.9612 111.926Z" fill="#0976CF"/>
<path d="M67.5419 111.926C67.5419 113.364 66.3793 114.529 64.9451 114.529C63.511 114.529 62.3483 113.364 62.3483 111.926C62.3483 110.489 63.511 109.324 64.9451 109.324C66.3793 109.324 67.5419 110.489 67.5419 111.926Z" fill="#0976CF"/>
<path d="M83.1225 111.926C83.1225 113.364 81.9599 114.529 80.5258 114.529C79.0916 114.529 77.929 113.364 77.929 111.926C77.929 110.489 79.0916 109.324 80.5258 109.324C81.9599 109.324 83.1225 110.489 83.1225 111.926Z" fill="#0976CF"/>
<path d="M98.7032 111.926C98.7032 113.364 97.5406 114.529 96.1064 114.529C94.6722 114.529 93.5096 113.364 93.5096 111.926C93.5096 110.489 94.6722 109.324 96.1064 109.324C97.5406 109.324 98.7032 110.489 98.7032 111.926Z" fill="#0976CF"/>
<path d="M114.284 111.926C114.284 113.364 113.121 114.529 111.687 114.529C110.253 114.529 109.09 113.364 109.09 111.926C109.09 110.489 110.253 109.324 111.687 109.324C113.121 109.324 114.284 110.489 114.284 111.926Z" fill="#0976CF"/>
<path d="M129.864 111.926C129.864 113.364 128.702 114.529 127.268 114.529C125.834 114.529 124.671 113.364 124.671 111.926C124.671 110.489 125.834 109.324 127.268 109.324C128.702 109.324 129.864 110.489 129.864 111.926Z" fill="#0976CF"/>
<path d="M145.445 111.926C145.445 113.364 144.282 114.529 142.848 114.529C141.414 114.529 140.252 113.364 140.252 111.926C140.252 110.489 141.414 109.324 142.848 109.324C144.282 109.324 145.445 110.489 145.445 111.926Z" fill="#0976CF"/>
<path d="M161.026 111.926C161.026 113.364 159.863 114.529 158.429 114.529C156.995 114.529 155.832 113.364 155.832 111.926C155.832 110.489 156.995 109.324 158.429 109.324C159.863 109.324 161.026 110.489 161.026 111.926Z" fill="#0976CF"/>
<path d="M5.21931 127.544C5.21931 128.982 4.05669 130.147 2.62253 130.147C1.18837 130.147 0.0257568 128.982 0.0257568 127.544C0.0257568 126.107 1.18837 124.941 2.62253 124.941C4.05669 124.941 5.21931 126.107 5.21931 127.544Z" fill="#0976CF"/>
<path d="M20.7999 127.544C20.7999 128.982 19.6373 130.147 18.2032 130.147C16.769 130.147 15.6064 128.982 15.6064 127.544C15.6064 126.107 16.769 124.941 18.2032 124.941C19.6373 124.941 20.7999 126.107 20.7999 127.544Z" fill="#0976CF"/>
<path d="M36.3806 127.544C36.3806 128.982 35.218 130.147 33.7838 130.147C32.3497 130.147 31.187 128.982 31.187 127.544C31.187 126.107 32.3497 124.941 33.7838 124.941C35.218 124.941 36.3806 126.107 36.3806 127.544Z" fill="#0976CF"/>
<path d="M51.9612 127.544C51.9612 128.982 50.7986 130.147 49.3645 130.147C47.9303 130.147 46.7677 128.982 46.7677 127.544C46.7677 126.107 47.9303 124.941 49.3645 124.941C50.7986 124.941 51.9612 126.107 51.9612 127.544Z" fill="#0976CF"/>
<path d="M67.5419 127.544C67.5419 128.982 66.3793 130.147 64.9451 130.147C63.511 130.147 62.3483 128.982 62.3483 127.544C62.3483 126.107 63.511 124.941 64.9451 124.941C66.3793 124.941 67.5419 126.107 67.5419 127.544Z" fill="#0976CF"/>
<path d="M83.1225 127.544C83.1225 128.982 81.9599 130.147 80.5258 130.147C79.0916 130.147 77.929 128.982 77.929 127.544C77.929 126.107 79.0916 124.941 80.5258 124.941C81.9599 124.941 83.1225 126.107 83.1225 127.544Z" fill="#0976CF"/>
<path d="M98.7032 127.544C98.7032 128.982 97.5406 130.147 96.1064 130.147C94.6722 130.147 93.5096 128.982 93.5096 127.544C93.5096 126.107 94.6722 124.941 96.1064 124.941C97.5406 124.941 98.7032 126.107 98.7032 127.544Z" fill="#0976CF"/>
<path d="M114.284 127.544C114.284 128.982 113.121 130.147 111.687 130.147C110.253 130.147 109.09 128.982 109.09 127.544C109.09 126.107 110.253 124.941 111.687 124.941C113.121 124.941 114.284 126.107 114.284 127.544Z" fill="#0976CF"/>
<path d="M129.864 127.544C129.864 128.982 128.702 130.147 127.268 130.147C125.834 130.147 124.671 128.982 124.671 127.544C124.671 126.107 125.834 124.941 127.268 124.941C128.702 124.941 129.864 126.107 129.864 127.544Z" fill="#0976CF"/>
<path d="M145.445 127.544C145.445 128.982 144.282 130.147 142.848 130.147C141.414 130.147 140.252 128.982 140.252 127.544C140.252 126.107 141.414 124.941 142.848 124.941C144.282 124.941 145.445 126.107 145.445 127.544Z" fill="#0976CF"/>
<path d="M161.026 127.544C161.026 128.982 159.863 130.147 158.429 130.147C156.995 130.147 155.832 128.982 155.832 127.544C155.832 126.107 156.995 124.941 158.429 124.941C159.863 124.941 161.026 126.107 161.026 127.544Z" fill="#0976CF"/>
<path d="M5.21931 143.162C5.21931 144.599 4.05669 145.765 2.62253 145.765C1.18837 145.765 0.0257568 144.599 0.0257568 143.162C0.0257568 141.724 1.18837 140.559 2.62253 140.559C4.05669 140.559 5.21931 141.724 5.21931 143.162Z" fill="#0976CF"/>
<path d="M20.7999 143.162C20.7999 144.599 19.6373 145.765 18.2032 145.765C16.769 145.765 15.6064 144.599 15.6064 143.162C15.6064 141.724 16.769 140.559 18.2032 140.559C19.6373 140.559 20.7999 141.724 20.7999 143.162Z" fill="#0976CF"/>
<path d="M36.3806 143.162C36.3806 144.599 35.218 145.765 33.7838 145.765C32.3497 145.765 31.187 144.599 31.187 143.162C31.187 141.724 32.3497 140.559 33.7838 140.559C35.218 140.559 36.3806 141.724 36.3806 143.162Z" fill="#0976CF"/>
<path d="M51.9612 143.162C51.9612 144.599 50.7986 145.765 49.3645 145.765C47.9303 145.765 46.7677 144.599 46.7677 143.162C46.7677 141.724 47.9303 140.559 49.3645 140.559C50.7986 140.559 51.9612 141.724 51.9612 143.162Z" fill="#0976CF"/>
<path d="M67.5419 143.162C67.5419 144.599 66.3793 145.765 64.9451 145.765C63.511 145.765 62.3483 144.599 62.3483 143.162C62.3483 141.724 63.511 140.559 64.9451 140.559C66.3793 140.559 67.5419 141.724 67.5419 143.162Z" fill="#0976CF"/>
<path d="M83.1225 143.162C83.1225 144.599 81.9599 145.765 80.5258 145.765C79.0916 145.765 77.929 144.599 77.929 143.162C77.929 141.724 79.0916 140.559 80.5258 140.559C81.9599 140.559 83.1225 141.724 83.1225 143.162Z" fill="#0976CF"/>
<path d="M98.7032 143.162C98.7032 144.599 97.5406 145.765 96.1064 145.765C94.6722 145.765 93.5096 144.599 93.5096 143.162C93.5096 141.724 94.6722 140.559 96.1064 140.559C97.5406 140.559 98.7032 141.724 98.7032 143.162Z" fill="#0976CF"/>
<path d="M114.284 143.162C114.284 144.599 113.121 145.765 111.687 145.765C110.253 145.765 109.09 144.599 109.09 143.162C109.09 141.724 110.253 140.559 111.687 140.559C113.121 140.559 114.284 141.724 114.284 143.162Z" fill="#0976CF"/>
<path d="M129.864 143.162C129.864 144.599 128.702 145.765 127.268 145.765C125.834 145.765 124.671 144.599 124.671 143.162C124.671 141.724 125.834 140.559 127.268 140.559C128.702 140.559 129.864 141.724 129.864 143.162Z" fill="#0976CF"/>
<path d="M145.445 143.162C145.445 144.599 144.282 145.765 142.848 145.765C141.414 145.765 140.252 144.599 140.252 143.162C140.252 141.724 141.414 140.559 142.848 140.559C144.282 140.559 145.445 141.724 145.445 143.162Z" fill="#0976CF"/>
<path d="M161.026 143.162C161.026 144.599 159.863 145.765 158.429 145.765C156.995 145.765 155.832 144.599 155.832 143.162C155.832 141.724 156.995 140.559 158.429 140.559C159.863 140.559 161.026 141.724 161.026 143.162Z" fill="#0976CF"/>
<path d="M5.21931 158.779C5.21931 160.217 4.05669 161.382 2.62253 161.382C1.18837 161.382 0.0257568 160.217 0.0257568 158.779C0.0257568 157.342 1.18837 156.176 2.62253 156.176C4.05669 156.176 5.21931 157.342 5.21931 158.779Z" fill="#0976CF"/>
<path d="M20.7999 158.779C20.7999 160.217 19.6373 161.382 18.2032 161.382C16.769 161.382 15.6064 160.217 15.6064 158.779C15.6064 157.342 16.769 156.176 18.2032 156.176C19.6373 156.176 20.7999 157.342 20.7999 158.779Z" fill="#0976CF"/>
<path d="M36.3806 158.779C36.3806 160.217 35.218 161.382 33.7838 161.382C32.3497 161.382 31.187 160.217 31.187 158.779C31.187 157.342 32.3497 156.176 33.7838 156.176C35.218 156.176 36.3806 157.342 36.3806 158.779Z" fill="#0976CF"/>
<path d="M51.9612 158.779C51.9612 160.217 50.7986 161.382 49.3645 161.382C47.9303 161.382 46.7677 160.217 46.7677 158.779C46.7677 157.342 47.9303 156.176 49.3645 156.176C50.7986 156.176 51.9612 157.342 51.9612 158.779Z" fill="#0976CF"/>
<path d="M67.5419 158.779C67.5419 160.217 66.3793 161.382 64.9451 161.382C63.511 161.382 62.3483 160.217 62.3483 158.779C62.3483 157.342 63.511 156.176 64.9451 156.176C66.3793 156.176 67.5419 157.342 67.5419 158.779Z" fill="#0976CF"/>
<path d="M83.1225 158.779C83.1225 160.217 81.9599 161.382 80.5258 161.382C79.0916 161.382 77.929 160.217 77.929 158.779C77.929 157.342 79.0916 156.176 80.5258 156.176C81.9599 156.176 83.1225 157.342 83.1225 158.779Z" fill="#0976CF"/>
<path d="M98.7032 158.779C98.7032 160.217 97.5406 161.382 96.1064 161.382C94.6722 161.382 93.5096 160.217 93.5096 158.779C93.5096 157.342 94.6722 156.176 96.1064 156.176C97.5406 156.176 98.7032 157.342 98.7032 158.779Z" fill="#0976CF"/>
<path d="M114.284 158.779C114.284 160.217 113.121 161.382 111.687 161.382C110.253 161.382 109.09 160.217 109.09 158.779C109.09 157.342 110.253 156.176 111.687 156.176C113.121 156.176 114.284 157.342 114.284 158.779Z" fill="#0976CF"/>
<path d="M129.864 158.779C129.864 160.217 128.702 161.382 127.268 161.382C125.834 161.382 124.671 160.217 124.671 158.779C124.671 157.342 125.834 156.176 127.268 156.176C128.702 156.176 129.864 157.342 129.864 158.779Z" fill="#0976CF"/>
<path d="M145.445 158.779C145.445 160.217 144.282 161.382 142.848 161.382C141.414 161.382 140.252 160.217 140.252 158.779C140.252 157.342 141.414 156.176 142.848 156.176C144.282 156.176 145.445 157.342 145.445 158.779Z" fill="#0976CF"/>
<path d="M161.026 158.779C161.026 160.217 159.863 161.382 158.429 161.382C156.995 161.382 155.832 160.217 155.832 158.779C155.832 157.342 156.995 156.176 158.429 156.176C159.863 156.176 161.026 157.342 161.026 158.779Z" fill="#0976CF"/>
<path d="M5.21931 174.397C5.21931 175.835 4.05669 177 2.62253 177C1.18837 177 0.0257568 175.835 0.0257568 174.397C0.0257568 172.959 1.18837 171.794 2.62253 171.794C4.05669 171.794 5.21931 172.959 5.21931 174.397Z" fill="#0976CF"/>
<path d="M20.7999 174.397C20.7999 175.835 19.6373 177 18.2032 177C16.769 177 15.6064 175.835 15.6064 174.397C15.6064 172.959 16.769 171.794 18.2032 171.794C19.6373 171.794 20.7999 172.959 20.7999 174.397Z" fill="#0976CF"/>
<path d="M36.3806 174.397C36.3806 175.835 35.218 177 33.7838 177C32.3497 177 31.187 175.835 31.187 174.397C31.187 172.959 32.3497 171.794 33.7838 171.794C35.218 171.794 36.3806 172.959 36.3806 174.397Z" fill="#0976CF"/>
<path d="M51.9612 174.397C51.9612 175.835 50.7986 177 49.3645 177C47.9303 177 46.7677 175.835 46.7677 174.397C46.7677 172.959 47.9303 171.794 49.3645 171.794C50.7986 171.794 51.9612 172.959 51.9612 174.397Z" fill="#0976CF"/>
<path d="M67.5419 174.397C67.5419 175.835 66.3793 177 64.9451 177C63.511 177 62.3483 175.835 62.3483 174.397C62.3483 172.959 63.511 171.794 64.9451 171.794C66.3793 171.794 67.5419 172.959 67.5419 174.397Z" fill="#0976CF"/>
<path d="M83.1225 174.397C83.1225 175.835 81.9599 177 80.5258 177C79.0916 177 77.929 175.835 77.929 174.397C77.929 172.959 79.0916 171.794 80.5258 171.794C81.9599 171.794 83.1225 172.959 83.1225 174.397Z" fill="#0976CF"/>
<path d="M98.7032 174.397C98.7032 175.835 97.5406 177 96.1064 177C94.6722 177 93.5096 175.835 93.5096 174.397C93.5096 172.959 94.6722 171.794 96.1064 171.794C97.5406 171.794 98.7032 172.959 98.7032 174.397Z" fill="#0976CF"/>
<path d="M114.284 174.397C114.284 175.835 113.121 177 111.687 177C110.253 177 109.09 175.835 109.09 174.397C109.09 172.959 110.253 171.794 111.687 171.794C113.121 171.794 114.284 172.959 114.284 174.397Z" fill="#0976CF"/>
<path d="M129.864 174.397C129.864 175.835 128.702 177 127.268 177C125.834 177 124.671 175.835 124.671 174.397C124.671 172.959 125.834 171.794 127.268 171.794C128.702 171.794 129.864 172.959 129.864 174.397Z" fill="#0976CF"/>
<path d="M145.445 174.397C145.445 175.835 144.282 177 142.848 177C141.414 177 140.252 175.835 140.252 174.397C140.252 172.959 141.414 171.794 142.848 171.794C144.282 171.794 145.445 172.959 145.445 174.397Z" fill="#0976CF"/>
<path d="M161.026 174.397C161.026 175.835 159.863 177 158.429 177C156.995 177 155.832 175.835 155.832 174.397C155.832 172.959 156.995 171.794 158.429 171.794C159.863 171.794 161.026 172.959 161.026 174.397Z" fill="#0976CF"/>
</svg>
