<svg width="22" height="26" viewBox="0 0 22 26" fill="none" xmlns="http://www.w3.org/2000/svg">
<path d="M11.5546 0.0216769C12.9367 8.23674e-08 14.3086 0.0112719 15.6797 0C15.7253 1.76102 16.421 3.34603 17.5279 4.52004L17.5262 4.51831C18.7175 5.62036 20.2675 6.33482 21.9764 6.45621L22 6.45795V10.8245C20.3857 10.7829 18.8677 10.4005 17.4992 9.74328L17.5684 9.77276C16.9065 9.44587 16.3467 9.11032 15.8148 8.73574L15.8587 8.76522C15.8486 11.9292 15.8689 15.0931 15.8376 18.2458C15.7507 19.8525 15.2306 21.3178 14.3964 22.5413L14.4133 22.5144C13.0186 24.5659 10.7593 25.9124 8.19016 25.9922H8.17834C8.07449 25.9974 7.95207 26 7.82881 26C6.36821 26 5.00301 25.5821 3.8396 24.8563L3.87337 24.8763C1.75592 23.5679 0.295321 21.3291 0.0251525 18.7253L0.0217754 18.6897C0.000668501 18.1478 -0.0094629 17.6059 0.011644 17.0752C0.42534 12.9315 3.80583 9.72594 7.91492 9.72594C8.37674 9.72594 8.82928 9.76669 9.26915 9.84386L9.22186 9.83692C9.24297 11.4401 9.17965 13.0442 9.17965 14.6474C8.82252 14.5148 8.41051 14.4376 7.98078 14.4376C6.40367 14.4376 5.06211 15.4729 4.56568 16.9183L4.55808 16.9443C4.44579 17.3145 4.38078 17.7403 4.38078 18.1807C4.38078 18.3594 4.39175 18.5363 4.41202 18.7097L4.41033 18.6889C4.69063 20.4629 6.17149 21.8016 7.95714 21.8016C8.00864 21.8016 8.0593 21.8008 8.10995 21.7982H8.10235C9.33753 21.76 10.4098 21.0776 11.016 20.0692L11.0244 20.0536C11.2498 19.7311 11.4043 19.3409 11.4558 18.9169L11.4567 18.9048C11.5622 16.9651 11.52 15.0367 11.5301 13.0971C11.5403 8.73054 11.52 4.37437 11.5512 0.0190756L11.5546 0.0216769Z" fill="white"/>
</svg>
