<svg width="313" height="434" viewBox="0 0 313 434" fill="none" xmlns="http://www.w3.org/2000/svg">
<path d="M-22.1613 134.807C-3.04222 155.948 47.1387 158.297 69.1463 143.069C93.4482 126.248 74.4541 59.8638 66.2316 53.6179C58.0092 47.372 51.1974 115.235 24.7259 112.194C-4.65761 108.811 -15.3599 60.7731 -26.7094 64.7233C-37.8769 68.6083 -44.2593 110.37 -22.1613 134.807Z" stroke="#024A85" stroke-opacity="0.5" stroke-miterlimit="10"/>
<path d="M-23.8341 143.164C-5.55368 168.881 54.4121 168.23 78.5904 149.578C105.973 128.443 78.4244 57.8901 71.1825 48.1325C64.9464 39.7197 50.4209 106.815 19.1332 106.288C-14.8581 105.724 -29.7135 63.5776 -36.4756 68.5127C-43.7226 73.8121 -45.2514 112.979 -23.8341 143.164Z" stroke="#024A85" stroke-opacity="0.5" stroke-miterlimit="10"/>
<path d="M-25.4999 151.518C-8.10556 181.774 61.6724 178.142 88.0266 156.089C118.514 130.602 82.4263 56.5207 76.1405 42.645C71.5457 32.5647 49.6696 98.333 13.5267 100.394C-25.0226 102.588 -44.703 65.5012 -46.1898 72.29C-50.2218 78.0198 -46.2409 115.459 -25.4999 151.518Z" stroke="#024A85" stroke-opacity="0.5" stroke-miterlimit="10"/>
<path d="M-27.1934 159.881C-10.6154 194.636 68.9 188.04 97.4449 162.581C130.955 132.73 91.6015 52.8904 81.0731 37.1411C74.4755 27.277 48.8938 89.8024 7.9248 94.476C-35.1908 99.3905 -59.3843 67.8491 -55.9369 76.0526C-56.3961 82.7274 -47.1817 117.938 -27.1934 159.881Z" stroke="#024A85" stroke-opacity="0.5" stroke-miterlimit="10"/>
<path d="M-28.844 168.231C-13.0633 207.466 76.1522 197.913 106.916 169.106C143.477 134.876 96.229 52.3558 86.0512 31.6725C80.3323 20.0676 48.1733 81.2811 2.35918 88.5877C-45.3211 96.2303 -72.3238 68.9891 -65.646 79.8521C-61.3745 86.8119 -48.0904 120.392 -28.844 168.231Z" stroke="#024A85" stroke-opacity="0.5" stroke-miterlimit="10"/>
<path d="M-30.5199 176.58C-15.4974 220.293 83.3866 207.784 116.351 175.617C155.951 136.987 92.8133 53.504 91.0365 26.171C90.1013 12.0106 47.4474 72.7059 -3.21251 82.6774C-55.4643 92.9465 -87.4085 71.1965 -75.3461 83.6262C-67.8756 91.3696 -48.9795 122.834 -30.5199 176.58Z" stroke="#024A85" stroke-opacity="0.5" stroke-miterlimit="10"/>
<path d="M-32.186 184.935C-17.9234 233.118 90.5824 217.654 125.796 182.133C168.416 139.092 95.8227 52.4789 95.9583 20.6996C96.0272 5.15137 46.6714 64.1499 -8.8327 76.7938C-65.6759 89.7417 -102.409 73.639 -85.1115 87.423C-74.2587 96.0672 -49.8531 125.272 -32.186 184.935Z" stroke="#024A85" stroke-opacity="0.5" stroke-miterlimit="10"/>
<path d="M-33.8573 193.293C-20.3321 245.943 97.8206 227.495 135.242 188.644C180.887 141.214 98.7038 51.3986 100.918 15.2147C101.953 -1.75247 45.9003 55.5719 -14.4239 70.8908C-75.8336 86.4879 -117.274 76.1172 -94.8387 91.2061C-80.5753 100.808 -50.6984 127.723 -33.8573 193.293Z" stroke="#024A85" stroke-opacity="0.5" stroke-miterlimit="10"/>
<path d="M-35.5334 201.649C-22.7381 258.762 105.04 237.375 144.683 195.152C193.35 143.317 101.52 50.257 105.881 9.7247C107.866 -8.69747 45.1451 46.978 -20.0108 64.9904C-86.0036 83.2324 -132.073 78.592 -104.571 94.986C-86.8451 105.566 -51.5462 130.146 -35.5334 201.649Z" stroke="#024A85" stroke-opacity="0.5" stroke-miterlimit="10"/>
<path d="M-37.1958 210.004C-25.0922 271.612 112.253 247.236 154.122 201.663C205.807 145.441 104.247 49.0754 110.827 4.24158C113.748 -15.6642 44.3736 38.3909 -25.6065 59.0951C-96.1841 79.9746 -146.854 81.0499 -114.31 98.7785C-93.0845 110.328 -52.3695 132.583 -37.1958 210.004Z" stroke="#024A85" stroke-opacity="0.5" stroke-miterlimit="10"/>
<path d="M-38.8707 218.36C-27.517 284.413 119.464 257.111 163.564 208.171C218.257 147.517 106.944 47.8184 115.783 -1.2463C119.627 -22.6566 43.6013 29.7857 -31.2014 53.1892C-106.371 76.7078 -161.597 83.5283 -124.041 102.559C-99.3124 115.093 -53.1886 135.024 -38.8707 218.36Z" stroke="#024A85" stroke-opacity="0.5" stroke-miterlimit="10"/>
<path d="M-40.5426 226.718C-29.9022 297.239 126.668 266.942 173.009 214.682C230.706 149.612 109.629 46.5993 120.72 -6.72659C125.501 -29.6524 42.8411 21.1888 -36.814 47.2984C-116.57 73.447 -176.347 85.9958 -133.791 106.347C-105.531 119.852 -54.0046 137.467 -40.5426 226.718Z" stroke="#024A85" stroke-opacity="0.5" stroke-miterlimit="10"/>
<path d="M-42.2103 235.072C-32.2815 310.068 133.904 276.787 182.443 221.192C243.151 151.704 112.289 45.3185 125.69 -12.2258C131.386 -36.6864 42.0518 12.579 -42.3942 41.3887C-126.84 70.1985 -191.055 88.4502 -143.53 110.128C-111.745 124.613 -54.809 139.905 -42.2103 235.072Z" stroke="#024A85" stroke-opacity="0.5" stroke-miterlimit="10"/>
<path d="M-43.8828 243.427C-34.6582 322.898 141.075 286.647 191.889 227.707C255.629 153.789 114.968 44.0028 130.65 -17.7061C137.267 -43.7184 41.2743 3.97539 -47.985 35.4904C-136.929 66.9021 -205.763 90.8974 -153.242 113.913C-117.948 129.373 -55.6183 142.344 -43.8828 243.427Z" stroke="#024A85" stroke-opacity="0.5" stroke-miterlimit="10"/>
<path d="M-45.5542 251.786C-37.0337 335.731 148.168 296.402 201.33 234.196C267.897 155.743 117.563 42.6617 135.597 -23.2119C143.143 -50.7775 40.4914 -4.65528 -53.5797 29.5725C-147.12 63.6082 -220.481 93.3267 -162.981 117.675C-124.149 134.136 -56.4081 144.798 -45.5542 251.786Z" stroke="#024A85" stroke-opacity="0.5" stroke-miterlimit="10"/>
<path d="M-47.2207 260.139C-39.4044 348.558 155.377 306.26 210.763 240.729C280.374 157.867 120.151 41.3652 140.544 -28.6748C149.007 -57.8072 39.7008 -13.2415 -59.1969 23.7024C-157.342 60.3563 -235.208 95.8006 -172.744 121.485C-130.354 138.894 -57.2097 147.242 -47.2207 260.139Z" stroke="#024A85" stroke-opacity="0.5" stroke-miterlimit="10"/>
<path d="M-48.8949 268.496C-41.7668 361.425 162.595 316.127 220.213 247.237C292.779 159.986 122.82 40.0131 145.509 -34.1629C154.897 -64.8957 38.8722 -22.031 -64.7669 17.8005C-167.57 56.9019 -249.887 98.2425 -182.444 125.26C-136.551 143.654 -58.0023 149.695 -48.8949 268.496Z" stroke="#024A85" stroke-opacity="0.5" stroke-miterlimit="10"/>
<path d="M-50.5692 276.852C-43.9732 374.215 169.812 325.992 229.656 253.745C305.281 162.081 125.44 38.6542 150.464 -39.6587C160.776 -71.9281 38.0997 -30.6046 -70.3612 11.8942C-177.752 53.6575 -264.581 100.686 -192.18 129.049C-142.749 148.412 -58.5788 152.128 -50.5692 276.852Z" stroke="#024A85" stroke-opacity="0.5" stroke-miterlimit="10"/>
<path d="M-52.233 285.208C-46.3785 387.054 177.022 335.846 239.101 260.255C317.743 164.196 128.055 37.2919 155.424 -45.1445C166.66 -78.9899 37.3136 -39.1801 -75.9507 5.99789C-187.93 50.4155 -279.282 103.126 -201.907 132.832C-148.9 153.186 -59.415 154.584 -52.233 285.208Z" stroke="#024A85" stroke-opacity="0.5" stroke-miterlimit="10"/>
<path d="M-53.9067 293.565C-48.7862 399.892 184.242 345.72 248.537 266.766C330.178 166.309 130.671 35.912 160.374 -50.6294C172.538 -86.0601 36.5541 -47.8025 -81.5203 0.0957513C-198.08 47.2054 -294.008 105.706 -211.622 136.61C-155.172 158.034 -60.2611 157.041 -53.9067 293.565Z" stroke="#024A85" stroke-opacity="0.5" stroke-miterlimit="10"/>
<path d="M-55.5801 301.92C-51.2162 412.733 191.473 355.606 257.981 273.274C342.658 168.409 133.287 34.5303 165.302 -56.1109C178.393 -93.1345 35.7592 -56.3392 -87.1661 -5.79874C-208.299 43.9299 -308.694 108.076 -221.381 140.396C-161.341 162.738 -61.073 159.472 -55.5801 301.92Z" stroke="#024A85" stroke-opacity="0.5" stroke-miterlimit="10"/>
<path d="M-231.109 144.185C-167.517 167.445 -61.9436 161.958 -57.2459 310.275C-53.5995 425.573 198.672 365.453 267.426 279.79C355.124 170.514 135.903 33.1501 170.282 -61.6029C198.093 -138.228 -417.084 76.169 -231.109 144.185Z" stroke="#024A85" stroke-opacity="0.5" stroke-miterlimit="10"/>
</svg>
