<svg width="618" height="692" viewBox="0 0 618 692" fill="none" xmlns="http://www.w3.org/2000/svg">
<path d="M592.674 74.1229C618.204 134.038 724.436 176.964 783.027 160.81C847.731 142.96 855.867 -14.2042 842.787 -33.8481C829.707 -53.4919 764.956 87.3778 710.247 60.8546C649.524 31.4016 661.958 -80.0318 634.623 -80.0984C607.728 -80.1679 563.168 4.86722 592.674 74.1229Z" stroke="url(#paint0_linear_1_450)" stroke-opacity="0.5" stroke-miterlimit="10"/>
<path d="M582.906 90.8388C603.254 159.966 732.752 203.824 798.542 181.941C873.059 157.134 865.866 -15.4549 857.488 -41.9144C850.281 -64.7214 769.501 68.6742 702.573 43.9276C629.856 17.059 629.005 -84.8313 610.813 -79.3167C591.309 -73.3843 559.108 9.73025 582.906 90.8388Z" stroke="url(#paint1_linear_1_450)" stroke-opacity="0.5" stroke-miterlimit="10"/>
<path d="M573.155 107.556C588.246 185.781 741.057 230.629 814.038 203.069C898.446 171.243 875.488 -15.3818 872.206 -49.9799C869.761 -75.1359 774.145 49.8569 694.861 27.0132C610.302 2.6396 595.335 -92.0064 587.124 -78.5221C574.22 -69.2373 555.148 14.3196 573.155 107.556Z" stroke="url(#paint2_linear_1_450)" stroke-opacity="0.5" stroke-miterlimit="10"/>
<path d="M563.336 124.269C573.348 211.559 749.298 257.377 829.507 224.145C923.641 185.21 897.905 -16.2682 886.879 -58.0993C879.965 -84.3017 778.77 30.9173 687.174 10.0528C590.781 -11.9135 562.011 -98.0353 563.373 -77.7833C557.458 -63.7688 551.291 18.9432 563.336 124.269Z" stroke="url(#paint3_linear_1_450)" stroke-opacity="0.5" stroke-miterlimit="10"/>
<path d="M553.618 140.991C558.609 237.316 757.611 284.095 845.066 245.334C948.996 199.28 908.254 -13.9253 901.624 -66.1074C897.886 -95.392 783.508 12.0403 679.544 -6.81592C571.317 -26.3574 533.328 -105.347 539.677 -76.9354C543.729 -58.7374 547.523 23.5376 553.618 140.991Z" stroke="url(#paint4_linear_1_450)" stroke-opacity="0.5" stroke-miterlimit="10"/>
<path d="M543.852 157.689C543.906 263.077 765.893 310.791 860.562 266.463C974.278 213.235 900.06 -14.0327 916.413 -74.1817C924.854 -105.354 788.279 -6.95744 671.922 -23.7372C551.919 -41.0779 499.246 -111.983 516.023 -76.1361C526.38 -53.8379 543.81 28.1204 543.852 157.689Z" stroke="url(#paint5_linear_1_450)" stroke-opacity="0.5" stroke-miterlimit="10"/>
<path d="M534.102 174.407C529.22 288.841 774.09 337.46 876.075 287.611C999.546 227.172 907.293 -13.9664 931.043 -82.2384C942.669 -115.639 792.927 -25.951 664.174 -40.6369C532.316 -55.6795 465.17 -118.048 492.211 -75.3366C509.18 -48.5474 540.132 32.7078 534.102 174.407Z" stroke="url(#paint6_linear_1_450)" stroke-opacity="0.5" stroke-miterlimit="10"/>
<path d="M524.331 191.128C514.567 314.612 782.394 364.093 891.587 308.747C1024.81 241.147 914.285 -14.1188 945.759 -90.2985C960.51 -126.023 797.595 -44.9912 656.497 -57.5596C512.859 -70.3488 431.354 -123.937 468.486 -74.5407C492.086 -43.1162 536.499 37.3403 524.331 191.128Z" stroke="url(#paint7_linear_1_450)" stroke-opacity="0.5" stroke-miterlimit="10"/>
<path d="M514.565 207.843C499.935 340.382 790.641 390.803 907.102 329.877C1050.07 255.083 921.194 -14.4455 960.496 -98.361C978.365 -136.499 802.322 -64.0473 648.84 -74.4671C493.388 -85.0244 397.694 -129.778 444.764 -73.749C475.091 -37.6072 532.894 41.9178 514.565 207.843Z" stroke="url(#paint8_linear_1_450)" stroke-opacity="0.5" stroke-miterlimit="10"/>
<path d="M504.815 224.561C485.379 366.249 798.875 417.458 922.6 351.006C1075.3 269.05 927.927 -14.9342 975.181 -106.429C996.158 -147.053 806.995 -83.1092 641.147 -91.3784C473.884 -99.7214 364.071 -135.649 421.005 -72.9437C458.146 -32.0746 529.319 46.5346 504.815 224.561Z" stroke="url(#paint9_linear_1_450)" stroke-opacity="0.5" stroke-miterlimit="10"/>
<path d="M495.045 241.278C470.714 391.962 807.103 444.149 938.112 372.138C1100.56 282.914 934.66 -15.6 989.897 -114.493C1013.97 -157.658 811.687 -102.204 633.47 -108.305C454.378 -114.436 330.524 -141.44 397.279 -72.1517C441.231 -26.5201 525.756 51.1711 495.045 241.278Z" stroke="url(#paint10_linear_1_450)" stroke-opacity="0.5" stroke-miterlimit="10"/>
<path d="M485.277 257.997C456.114 417.756 815.345 470.737 953.627 393.272C1125.8 296.814 941.336 -16.1992 1004.56 -122.561C1031.77 -168.279 816.397 -121.277 625.743 -125.218C434.841 -129.151 296.967 -147.266 373.505 -71.3632C424.337 -20.9787 522.196 55.8102 485.277 257.997Z" stroke="url(#paint11_linear_1_450)" stroke-opacity="0.5" stroke-miterlimit="10"/>
<path d="M475.525 274.712C441.527 443.563 823.648 497.38 969.123 414.398C1151.03 310.708 948.008 -16.9464 1019.32 -130.642C1049.63 -178.97 821.057 -140.396 618.102 -142.143C415.146 -143.891 263.512 -153.085 349.763 -70.5763C407.458 -15.4235 518.669 60.4476 475.525 274.712Z" stroke="url(#paint12_linear_1_450)" stroke-opacity="0.5" stroke-miterlimit="10"/>
<path d="M465.757 291.428C426.941 469.374 831.797 524.008 984.634 435.546C1176.34 324.614 954.741 -17.7545 1034.03 -138.688C1067.47 -189.66 825.733 -159.493 610.425 -159.052C395.87 -158.597 230.06 -158.919 326.072 -69.7627C390.596 -9.863 515.125 65.0861 465.757 291.428Z" stroke="url(#paint13_linear_1_450)" stroke-opacity="0.5" stroke-miterlimit="10"/>
<path d="M455.99 308.149C412.356 495.189 839.857 550.346 1000.16 456.63C1201.29 338.074 961.314 -18.6834 1048.74 -146.802C1085.32 -200.416 830.419 -178.655 602.755 -176.01C376.376 -173.376 196.598 -164.803 302.338 -69.0208C373.736 -4.29804 511.613 69.7683 455.99 308.149Z" stroke="url(#paint14_linear_1_450)" stroke-opacity="0.5" stroke-miterlimit="10"/>
<path d="M446.237 324.864C397.786 520.999 848.088 576.998 1015.63 477.806C1226.57 352.062 967.837 -19.5191 1063.42 -154.821C1103.13 -211.114 835.055 -197.724 595.002 -192.878C356.782 -188.087 163.087 -170.594 278.52 -68.1896C356.873 1.25887 508.083 74.4229 446.237 324.864Z" stroke="url(#paint15_linear_1_450)" stroke-opacity="0.5" stroke-miterlimit="10"/>
<path d="M436.47 341.582C383.209 546.901 856.338 603.676 1031.16 498.941C1251.69 365.984 974.581 -20.4129 1078.15 -162.881C1121.04 -221.919 839.764 -217.259 587.378 -209.779C337.329 -203.238 129.705 -176.417 254.867 -67.3876C340.029 6.82323 504.571 79.1024 436.47 341.582Z" stroke="url(#paint16_linear_1_450)" stroke-opacity="0.5" stroke-miterlimit="10"/>
<path d="M426.702 358.296C369.022 572.756 864.587 630.349 1046.67 520.071C1277.05 379.928 981.224 -21.3578 1092.87 -170.965C1138.88 -232.611 844.433 -236.288 579.704 -226.707C317.82 -217.901 96.2883 -182.249 231.125 -66.582C323.186 12.3838 501.537 83.9041 426.702 358.296Z" stroke="url(#paint17_linear_1_450)" stroke-opacity="0.5" stroke-miterlimit="10"/>
<path d="M416.95 375.018C354.366 598.563 872.821 656.991 1062.19 541.206C1302.29 393.884 987.85 -22.3164 1107.59 -179.025C1156.75 -243.365 849.068 -255.332 572.026 -243.612C298.31 -232.559 62.8543 -188.094 207.4 -65.7861C306.421 18.0126 497.921 88.5561 416.95 375.018Z" stroke="url(#paint18_linear_1_450)" stroke-opacity="0.5" stroke-miterlimit="10"/>
<path d="M407.181 391.735C339.71 624.366 881.067 683.684 1077.68 562.335C1327.49 407.813 994.499 -23.3116 1122.29 -187.091C1174.62 -254.141 853.8 -274.458 564.401 -260.515C278.842 -247.126 29.2664 -193.659 183.711 -64.9897C289.351 23.7094 494.288 93.2026 407.181 391.735Z" stroke="url(#paint19_linear_1_450)" stroke-opacity="0.5" stroke-miterlimit="10"/>
<path d="M397.413 408.449C325.003 650.16 889.328 710.412 1093.2 583.464C1352.79 421.751 1001.15 -24.3096 1136.94 -195.165C1192.44 -264.943 858.391 -293.424 556.605 -277.458C259.274 -261.886 -4.08106 -199.643 159.918 -64.208C272.606 29.1741 490.747 97.8212 397.413 408.449Z" stroke="url(#paint20_linear_1_450)" stroke-opacity="0.5" stroke-miterlimit="10"/>
<path d="M136.193 -63.3969C255.843 34.6408 487.039 102.513 387.662 425.169C310.398 675.988 897.548 737.032 1108.71 604.615C1378.06 435.689 1007.8 -25.3036 1151.71 -203.222C1268.11 -347.095 -213.732 -350.095 136.193 -63.3969Z" stroke="url(#paint21_linear_1_450)" stroke-opacity="0.5" stroke-miterlimit="10"/>
<defs>
<linearGradient id="paint0_linear_1_450" x1="699.69" y1="158.853" x2="725.945" y2="-69.6681" gradientUnits="userSpaceOnUse">
<stop offset="0.485577" stop-color="#028650"/>
<stop offset="0.740385" stop-color="#004984"/>
</linearGradient>
<linearGradient id="paint1_linear_1_450" x1="701.298" y1="182.25" x2="729.825" y2="-66.0483" gradientUnits="userSpaceOnUse">
<stop offset="0.485577" stop-color="#028650"/>
<stop offset="0.740385" stop-color="#004984"/>
</linearGradient>
<linearGradient id="paint2_linear_1_450" x1="702.636" y1="205.932" x2="734.209" y2="-68.8821" gradientUnits="userSpaceOnUse">
<stop offset="0.485577" stop-color="#028650"/>
<stop offset="0.740385" stop-color="#004984"/>
</linearGradient>
<linearGradient id="paint3_linear_1_450" x1="704.417" y1="229.865" x2="739.83" y2="-78.3659" gradientUnits="userSpaceOnUse">
<stop offset="0.485577" stop-color="#028650"/>
<stop offset="0.740385" stop-color="#004984"/>
</linearGradient>
<linearGradient id="paint4_linear_1_450" x1="699.729" y1="253.238" x2="739.077" y2="-89.2518" gradientUnits="userSpaceOnUse">
<stop offset="0.485577" stop-color="#028650"/>
<stop offset="0.740385" stop-color="#004984"/>
</linearGradient>
<linearGradient id="paint5_linear_1_450" x1="691.16" y1="276.269" x2="734.481" y2="-100.798" gradientUnits="userSpaceOnUse">
<stop offset="0.485577" stop-color="#028650"/>
<stop offset="0.740385" stop-color="#004984"/>
</linearGradient>
<linearGradient id="paint6_linear_1_450" x1="684.611" y1="299.629" x2="731.91" y2="-112.06" gradientUnits="userSpaceOnUse">
<stop offset="0.485577" stop-color="#028650"/>
<stop offset="0.740385" stop-color="#004984"/>
</linearGradient>
<linearGradient id="paint7_linear_1_450" x1="678.092" y1="323.044" x2="729.4" y2="-123.54" gradientUnits="userSpaceOnUse">
<stop offset="0.485577" stop-color="#028650"/>
<stop offset="0.740385" stop-color="#004984"/>
</linearGradient>
<linearGradient id="paint8_linear_1_450" x1="671.598" y1="346.556" x2="726.953" y2="-135.257" gradientUnits="userSpaceOnUse">
<stop offset="0.485577" stop-color="#028650"/>
<stop offset="0.740385" stop-color="#004984"/>
</linearGradient>
<linearGradient id="paint9_linear_1_450" x1="665.085" y1="370.116" x2="724.523" y2="-147.232" gradientUnits="userSpaceOnUse">
<stop offset="0.485577" stop-color="#028650"/>
<stop offset="0.740385" stop-color="#004984"/>
</linearGradient>
<linearGradient id="paint10_linear_1_450" x1="658.621" y1="393.696" x2="722.176" y2="-159.483" gradientUnits="userSpaceOnUse">
<stop offset="0.485577" stop-color="#028650"/>
<stop offset="0.740385" stop-color="#004984"/>
</linearGradient>
<linearGradient id="paint11_linear_1_450" x1="652.151" y1="417.284" x2="719.857" y2="-172.021" gradientUnits="userSpaceOnUse">
<stop offset="0.485577" stop-color="#028650"/>
<stop offset="0.740385" stop-color="#004984"/>
</linearGradient>
<linearGradient id="paint12_linear_1_450" x1="645.708" y1="440.925" x2="717.611" y2="-184.911" gradientUnits="userSpaceOnUse">
<stop offset="0.485577" stop-color="#028650"/>
<stop offset="0.740385" stop-color="#004984"/>
</linearGradient>
<linearGradient id="paint13_linear_1_450" x1="639.333" y1="464.603" x2="715.472" y2="-198.106" gradientUnits="userSpaceOnUse">
<stop offset="0.485577" stop-color="#028650"/>
<stop offset="0.740385" stop-color="#004984"/>
</linearGradient>
<linearGradient id="paint14_linear_1_450" x1="632.858" y1="488.159" x2="713.269" y2="-211.73" gradientUnits="userSpaceOnUse">
<stop offset="0.485577" stop-color="#028650"/>
<stop offset="0.740385" stop-color="#004984"/>
</linearGradient>
<linearGradient id="paint15_linear_1_450" x1="626.416" y1="511.876" x2="711.148" y2="-225.627" gradientUnits="userSpaceOnUse">
<stop offset="0.485577" stop-color="#028650"/>
<stop offset="0.740385" stop-color="#004984"/>
</linearGradient>
<linearGradient id="paint16_linear_1_450" x1="620.041" y1="535.645" x2="709.164" y2="-240.077" gradientUnits="userSpaceOnUse">
<stop offset="0.485577" stop-color="#028650"/>
<stop offset="0.740385" stop-color="#004984"/>
</linearGradient>
<linearGradient id="paint17_linear_1_450" x1="613.684" y1="559.397" x2="707.216" y2="-254.701" gradientUnits="userSpaceOnUse">
<stop offset="0.485577" stop-color="#028650"/>
<stop offset="0.740385" stop-color="#004984"/>
</linearGradient>
<linearGradient id="paint18_linear_1_450" x1="607.309" y1="583.148" x2="705.291" y2="-269.685" gradientUnits="userSpaceOnUse">
<stop offset="0.485577" stop-color="#028650"/>
<stop offset="0.740385" stop-color="#004984"/>
</linearGradient>
<linearGradient id="paint19_linear_1_450" x1="600.911" y1="606.924" x2="703.387" y2="-285.018" gradientUnits="userSpaceOnUse">
<stop offset="0.485577" stop-color="#028650"/>
<stop offset="0.740385" stop-color="#004984"/>
</linearGradient>
<linearGradient id="paint20_linear_1_450" x1="594.548" y1="630.724" x2="701.544" y2="-300.568" gradientUnits="userSpaceOnUse">
<stop offset="0.485577" stop-color="#028650"/>
<stop offset="0.740385" stop-color="#004984"/>
</linearGradient>
<linearGradient id="paint21_linear_1_450" x1="588.215" y1="654.503" x2="699.76" y2="-316.376" gradientUnits="userSpaceOnUse">
<stop offset="0.485577" stop-color="#028650"/>
<stop offset="0.740385" stop-color="#004984"/>
</linearGradient>
</defs>
</svg>
